<?xml version="1.0" standalone="no"?>
<!DOCTYPE svg PUBLIC "-//W3C//DTD SVG 1.1//EN" "http://www.w3.org/Graphics/SVG/1.1/DTD/svg11.dtd" >
<svg xmlns="http://www.w3.org/2000/svg" xmlns:xlink="http://www.w3.org/1999/xlink" version="1.1">
<metadata>
Created by FontForge 20201107 at Sun Jun 12 11:16:30 2022
 By Unknown
""
</metadata>
<defs>
<font id="SiarzonGlifRegular" horiz-adv-x="561" >
  <font-face 
    font-family="SiarzonGlif"
    font-weight="500"
    font-stretch="normal"
    units-per-em="1000"
    panose-1="0 0 0 0 0 0 0 0 0 0"
    ascent="800"
    descent="-200"
    x-height="510"
    cap-height="716"
    bbox="-53 -238 1108 959"
    underline-thickness="0"
    underline-position="0"
    unicode-range="U+0020-0237"
  />
<missing-glyph horiz-adv-x="457" 
d="M20 675h417v-675h-417v675zM68 48h320v579h-320v-579z" />
    <glyph glyph-name=".notdef" horiz-adv-x="457" 
d="M20 675h417v-675h-417v675zM68 48h320v579h-320v-579z" />
    <glyph glyph-name="space" unicode=" " horiz-adv-x="232" 
 />
    <glyph glyph-name="exclam" unicode="!" horiz-adv-x="238" 
d="M86 211l-9 262v243h84v-243l-10 -262h-65zM119 -6c-18 0 -33 6 -45 19c-13 12 -19 27 -19 45v0c0 17 6 32 19 45c12 12 27 18 45 18v0c17 0 32 -6 45 -18c12 -13 18 -28 18 -45v0c0 -18 -6 -33 -18 -45c-13 -13 -28 -19 -45 -19v0z" />
    <glyph glyph-name="quotedbl" unicode="&#x22;" horiz-adv-x="322" 
d="M51 495v221h77v-221h-77zM194 495v221h77v-221h-77z" />
    <glyph glyph-name="numbersign" unicode="#" horiz-adv-x="641" 
d="M123 0l31 206h-124l12 70h123l21 141h-125l11 70h124l29 197h74l-29 -197h142l29 197h74l-29 -197h124l-11 -70h-123l-21 -141h125l-11 -70h-125l-31 -206h-74l31 206h-142l-31 -206h-74zM239 276h142l21 141h-142z" />
    <glyph glyph-name="dollar" unicode="$" horiz-adv-x="542" 
d="M496 180c0 -55 -18 -99 -53 -132s-79 -53 -132 -61v0v-87h-70v86c-47 5 -90 24 -130 56c-41 31 -68 73 -81 126v0l76 30c9 -33 26 -62 51 -86c24 -24 52 -39 84 -45v0v251l-3 1c-60 24 -105 52 -136 83s-46 70 -46 117v0c0 29 8 57 23 84c15 26 36 48 64 65s61 28 98 31
v0v85h70v-87c47 -7 84 -24 113 -50c28 -27 47 -55 57 -85v0l-76 -32c-5 19 -16 36 -31 52c-16 15 -37 26 -63 32v0v-235c59 -25 104 -52 137 -81c32 -29 48 -69 48 -118v0zM141 519c0 -25 8 -46 25 -63c16 -17 41 -34 75 -49v0v210c-30 -5 -54 -16 -72 -33
c-19 -18 -28 -40 -28 -65v0zM311 69c31 6 55 18 74 37c18 19 27 43 27 72v0c0 25 -8 46 -25 63s-42 33 -76 48v0v-220z" />
    <glyph glyph-name="percent" unicode="%" horiz-adv-x="827" 
d="M210 358c-31 0 -59 8 -85 24c-27 15 -47 36 -62 63c-15 26 -23 54 -23 84v0c0 30 8 58 23 85c15 26 35 47 62 63c26 15 54 23 85 23v0c31 0 59 -8 85 -23c26 -16 47 -37 62 -63c15 -27 22 -55 22 -85v0c0 -30 -7 -58 -22 -84c-15 -27 -36 -48 -62 -63
c-26 -16 -54 -24 -85 -24v0zM218 -7l-54 35l445 663l53 -36zM210 420c29 0 53 11 72 32s29 46 29 77v0c0 31 -10 57 -29 78s-43 31 -72 31v0c-29 0 -53 -10 -72 -31c-20 -21 -30 -47 -30 -78v0c0 -31 10 -56 30 -77c19 -21 43 -32 72 -32v0zM618 -16c-31 0 -59 8 -85 24
c-27 15 -47 36 -62 63c-15 26 -23 54 -23 84v0c0 30 8 58 23 85c15 26 35 47 62 63c26 15 54 23 85 23v0c31 0 59 -8 85 -23c26 -16 47 -37 62 -63c15 -27 22 -55 22 -85v0c0 -30 -7 -58 -22 -84c-15 -27 -36 -48 -62 -63c-26 -16 -54 -24 -85 -24v0zM618 46
c29 0 53 11 72 32s29 46 29 77v0c0 31 -10 57 -29 78s-43 31 -72 31v0c-29 0 -53 -10 -72 -31c-20 -21 -30 -47 -30 -78v0c0 -31 10 -56 30 -77c19 -21 43 -32 72 -32v0z" />
    <glyph glyph-name="ampersand" unicode="&#x26;" horiz-adv-x="628" 
d="M600 258l-84 -137l68 -89l-64 -48l-51 68c-47 -45 -102 -68 -167 -68v0c-47 0 -91 11 -130 33c-40 22 -71 52 -94 91c-23 38 -35 80 -35 127v0c0 42 11 82 34 120c23 37 53 68 92 92v0l-1 1c-17 23 -30 44 -39 63s-13 38 -13 58v0c0 29 8 57 23 82s36 44 62 59
s54 22 85 22v0c40 0 74 -11 101 -34s47 -52 58 -87v0l-73 -39c-9 23 -19 42 -32 57s-31 22 -54 22v0c-25 0 -45 -7 -61 -22s-24 -35 -24 -60v0c0 -25 8 -48 25 -69v0l241 -315l66 113zM302 61c49 0 89 18 120 53v0l-206 271c-29 -15 -52 -36 -69 -63s-26 -56 -26 -86v0
c0 -33 8 -63 24 -90s38 -47 66 -62c27 -15 58 -23 91 -23v0z" />
    <glyph glyph-name="quotesingle" unicode="'" horiz-adv-x="180" 
d="M51 495v221h77v-221h-77z" />
    <glyph glyph-name="parenleft" unicode="(" horiz-adv-x="323" 
d="M241 -136c-49 56 -90 124 -125 204c-35 79 -53 164 -53 254v0c0 90 18 175 53 255c35 79 76 147 125 203v0l62 -44c-45 -54 -83 -117 -112 -190s-44 -148 -44 -224v0c0 -76 15 -150 44 -223s67 -137 112 -191v0z" />
    <glyph glyph-name="parenright" unicode=")" horiz-adv-x="323" 
d="M82 -136l-62 44c45 54 83 118 112 191s44 147 44 223v0c0 76 -15 151 -44 224s-67 136 -112 190v0l62 44c49 -56 91 -124 126 -203c35 -80 52 -165 52 -255v0c0 -90 -17 -175 -52 -254c-35 -80 -77 -148 -126 -204v0z" />
    <glyph glyph-name="asterisk" unicode="*" horiz-adv-x="427" 
d="M135 376l-58 42l76 103l-2 8l-112 38l23 67l110 -39l6 2v119h71v-119l5 -2l111 39l23 -67l-112 -38l-3 -8l77 -103l-58 -42l-75 103h-7z" />
    <glyph glyph-name="plus" unicode="+" horiz-adv-x="558" 
d="M496 306v-70h-182v-182h-70v182h-182v70h182v182h70v-182h182z" />
    <glyph glyph-name="comma" unicode="," horiz-adv-x="241" 
d="M92 -110l-41 27l53 83c-12 2 -23 8 -32 19s-14 24 -14 39v0c0 17 6 32 19 45c12 12 27 18 45 18v0c18 0 33 -6 46 -18c12 -13 18 -28 18 -45v0c0 -11 -2 -22 -7 -32c-5 -11 -12 -23 -21 -36v0z" />
    <glyph glyph-name="hyphen" unicode="-" horiz-adv-x="441" 
d="M62 275v70h317v-70h-317z" />
    <glyph glyph-name="period" unicode="." horiz-adv-x="238" 
d="M119 -6c-18 0 -33 6 -45 19c-13 12 -19 27 -19 45v0c0 17 6 32 19 45c12 12 27 18 45 18v0c17 0 32 -6 45 -18c12 -13 18 -28 18 -45v0c0 -18 -6 -33 -18 -45c-13 -13 -28 -19 -45 -19v0z" />
    <glyph glyph-name="slash" unicode="/" horiz-adv-x="438" 
d="M31 0l297 716h79l-297 -716h-79z" />
    <glyph glyph-name="zero" unicode="0" horiz-adv-x="645" 
d="M322 -16c-54 0 -102 16 -143 48c-42 31 -74 74 -96 129c-23 54 -34 114 -34 181v0c0 67 11 127 34 182c22 54 54 97 95 129c41 31 89 47 144 47v0c55 0 103 -16 144 -47c41 -32 73 -75 96 -129c22 -55 33 -115 33 -182v0c0 -67 -11 -127 -33 -181
c-23 -55 -55 -98 -96 -129c-42 -32 -90 -48 -144 -48v0zM322 65c38 0 71 12 99 37c28 24 50 57 65 99s23 89 23 141v0c0 52 -8 99 -23 141s-37 75 -65 100c-28 24 -61 36 -99 36v0c-38 0 -71 -12 -99 -36c-28 -25 -50 -58 -65 -100s-23 -89 -23 -141v0c0 -52 8 -99 23 -141
s37 -75 65 -99c28 -25 61 -37 99 -37v0z" />
    <glyph glyph-name="one" unicode="1" horiz-adv-x="380" 
d="M209 0v565l-120 -86l-44 65l195 140h54v-684h-85z" />
    <glyph glyph-name="two" unicode="2" horiz-adv-x="525" 
d="M45 0v85c21 21 62 62 123 125c61 62 104 106 128 132v0c34 37 57 65 69 86s18 46 18 75v0c0 20 -5 39 -15 57c-11 17 -26 32 -45 43c-20 11 -44 16 -71 16v0c-36 0 -65 -10 -86 -31c-22 -21 -36 -44 -43 -69v0l-78 31c7 21 19 44 36 67s41 42 70 59c29 16 64 24 104 24v0
c42 0 79 -9 112 -27c32 -18 57 -42 75 -72s27 -62 27 -97v0c0 -70 -37 -142 -110 -217v0l-205 -206h323v-81h-432z" />
    <glyph glyph-name="three" unicode="3" horiz-adv-x="535" 
d="M261 -16c-29 0 -58 6 -88 18s-57 31 -81 57c-25 25 -42 57 -53 96v0l77 32c11 -39 29 -69 55 -90c25 -21 55 -32 90 -32v0c25 0 49 6 71 17s40 26 53 46c13 19 19 41 19 65v0c0 23 -6 45 -19 64s-31 35 -53 46c-23 11 -47 16 -74 16v0h-59v79h53c37 0 67 11 92 32
s37 48 37 83v0c0 32 -12 58 -36 77s-54 29 -89 29v0c-35 0 -62 -9 -81 -27c-20 -18 -34 -40 -43 -66v0l-78 33c12 36 35 69 70 98c34 29 78 43 132 43v0c40 0 76 -8 108 -24s57 -38 76 -67c18 -29 27 -61 27 -96v0c0 -35 -9 -65 -27 -90s-40 -44 -67 -58v0v-4
c34 -14 62 -35 84 -64s33 -64 33 -103v0c0 -40 -10 -76 -30 -108c-21 -32 -48 -57 -83 -75s-74 -27 -116 -27v0z" />
    <glyph glyph-name="four" unicode="4" horiz-adv-x="592" 
d="M373 0v147h-328v64l320 473h92v-457h88v-80h-88v-147h-84zM142 227h231v333h-4z" />
    <glyph glyph-name="five" unicode="5" horiz-adv-x="563" 
d="M274 -16c-32 0 -64 7 -95 21c-31 13 -59 34 -83 62c-24 27 -41 61 -51 102v0l75 30c10 -41 29 -73 56 -97c27 -25 59 -37 96 -37v0c45 0 81 14 109 41s42 63 42 107v0c0 43 -14 79 -41 108c-28 28 -64 42 -108 42v0c-24 0 -47 -5 -68 -16s-39 -27 -52 -46v0l-87 38
l45 345h354v-81h-284l-27 -207l4 -1c35 30 79 45 130 45v0c39 0 76 -10 110 -29c33 -19 60 -46 80 -81s30 -73 30 -116v0c0 -43 -10 -81 -30 -116c-21 -35 -49 -63 -85 -83c-36 -21 -76 -31 -120 -31v0z" />
    <glyph glyph-name="six" unicode="6" horiz-adv-x="557" 
d="M279 -16c-45 0 -86 11 -121 33c-36 22 -64 51 -83 86c-20 35 -30 71 -30 110v0c0 37 8 72 23 106c15 33 36 71 64 112v0l179 269l68 -47l-172 -241l2 -2c23 16 52 24 88 24v0c35 0 69 -10 102 -29s61 -46 82 -79c21 -34 31 -72 31 -113v0c0 -40 -11 -77 -32 -112
s-50 -64 -85 -85c-36 -21 -75 -32 -116 -32v0zM279 65c27 0 51 7 74 20s41 30 54 53c13 22 20 47 20 74v0c0 27 -7 51 -20 74c-13 22 -31 40 -54 53s-47 19 -74 19v0c-27 0 -51 -6 -74 -19s-42 -31 -55 -53c-13 -23 -20 -47 -20 -74v0c0 -27 7 -52 20 -74
c13 -23 32 -40 55 -53s47 -20 74 -20v0z" />
    <glyph glyph-name="seven" unicode="7" horiz-adv-x="529" 
d="M152 -16l-75 39l319 580h-351v81h439v-87z" />
    <glyph glyph-name="eight" unicode="8" horiz-adv-x="551" 
d="M276 -16c-43 0 -83 9 -118 27s-63 43 -83 74s-30 65 -30 103v0c0 39 11 73 32 102s48 51 82 68v0v4c-27 16 -48 37 -65 64c-17 26 -26 53 -26 82v0c0 36 9 69 27 98c17 29 42 52 74 69c31 17 67 25 107 25v0c39 0 75 -8 107 -25c31 -17 56 -40 74 -69
c17 -29 26 -62 26 -98v0c0 -29 -8 -56 -25 -82c-17 -27 -39 -48 -65 -64v0v-4c34 -17 62 -39 83 -68s31 -63 31 -102v0c0 -38 -10 -72 -30 -103c-21 -31 -49 -56 -84 -74s-74 -27 -117 -27v0zM276 398c35 0 64 10 87 31s34 48 34 81v0c0 33 -11 60 -34 80
c-23 19 -52 29 -87 29v0c-35 0 -64 -10 -87 -29c-23 -20 -35 -47 -35 -80v0c0 -33 12 -60 35 -81s52 -31 87 -31v0zM276 65c41 0 75 12 103 36c27 23 41 54 41 92v0c0 37 -14 67 -41 91c-28 23 -62 35 -103 35v0c-41 0 -75 -12 -103 -35c-28 -24 -42 -54 -42 -91v0
c0 -38 14 -69 42 -92c28 -24 62 -36 103 -36v0z" />
    <glyph glyph-name="nine" unicode="9" horiz-adv-x="557" 
d="M246 -16l-68 47l172 241l-2 2c-23 -16 -53 -24 -89 -24v0c-35 0 -69 10 -102 29s-60 46 -81 80c-21 33 -31 71 -31 112v0c0 40 11 78 32 113s49 63 85 84c35 21 74 32 116 32v0c45 0 86 -11 122 -33c35 -22 63 -50 83 -85c19 -35 29 -72 29 -111v0c0 -37 -7 -72 -22 -105
c-15 -34 -37 -72 -65 -113v0zM278 326c27 0 52 7 75 20s41 30 54 53c13 22 20 46 20 73v0c0 27 -7 52 -20 75c-13 22 -31 40 -54 53s-48 19 -75 19v0c-27 0 -51 -6 -74 -19s-41 -31 -54 -53c-13 -23 -20 -48 -20 -75v0c0 -27 7 -51 20 -73c13 -23 31 -40 54 -53
s47 -20 74 -20v0z" />
    <glyph glyph-name="colon" unicode=":" horiz-adv-x="238" 
d="M119 388c-18 0 -33 6 -45 19c-13 12 -19 27 -19 45v0c0 18 6 33 19 46c12 12 27 18 45 18v0c17 0 32 -6 45 -18c12 -13 18 -28 18 -46v0c0 -18 -6 -33 -18 -45c-13 -13 -28 -19 -45 -19v0zM119 -6c-18 0 -33 6 -45 19c-13 12 -19 27 -19 45v0c0 17 6 32 19 45
c12 12 27 18 45 18v0c17 0 32 -6 45 -18c12 -13 18 -28 18 -45v0c0 -18 -6 -33 -18 -45c-13 -13 -28 -19 -45 -19v0z" />
    <glyph glyph-name="semicolon" unicode=";" horiz-adv-x="245" 
d="M125 388c-18 0 -33 6 -45 19c-13 12 -19 27 -19 45v0c0 18 6 33 19 46c12 12 27 18 45 18v0c17 0 32 -6 45 -18c12 -13 18 -28 18 -46v0c0 -18 -6 -33 -18 -45c-13 -13 -28 -19 -45 -19v0zM97 -94l-41 27l53 83c-12 2 -23 8 -32 19s-14 24 -14 39v0c0 17 6 32 19 45
c12 12 27 18 45 18v0c18 0 33 -6 46 -18c12 -13 18 -28 18 -45v0c0 -11 -2 -22 -7 -32c-5 -11 -12 -23 -21 -36v0z" />
    <glyph glyph-name="less" unicode="&#x3c;" horiz-adv-x="497" 
d="M438 56l-383 184v62l383 184v-78l-293 -135v-4l293 -135v-78z" />
    <glyph glyph-name="equal" unicode="=" horiz-adv-x="568" 
d="M61 379v70h446v-70h-446zM61 189v70h446v-70h-446z" />
    <glyph glyph-name="greater" unicode="&#x3e;" horiz-adv-x="497" 
d="M59 56v78l293 135v4l-293 135v78l383 -184v-62z" />
    <glyph glyph-name="question" unicode="?" horiz-adv-x="504" 
d="M201 211v48c0 33 6 61 19 83s35 48 68 79v0c27 24 46 45 58 62c11 17 17 37 17 61v0c0 32 -10 58 -31 78c-21 19 -49 29 -86 29v0c-33 0 -60 -9 -79 -28c-20 -19 -35 -43 -45 -71v0l-79 33c15 39 39 73 72 103c33 29 77 44 130 44v0c40 0 76 -8 107 -24
c31 -17 55 -39 72 -68s25 -61 25 -96v0c0 -37 -9 -68 -27 -93c-19 -26 -42 -52 -71 -78v0c-22 -20 -38 -39 -48 -57s-15 -39 -15 -63v0v-42h-87zM244 -6c-17 0 -32 6 -44 19c-13 12 -19 27 -19 45v0c0 17 6 32 19 45c12 12 27 18 44 18v0c18 0 33 -6 46 -18
c12 -13 18 -28 18 -45v0c0 -18 -6 -33 -18 -45c-13 -13 -28 -19 -46 -19v0z" />
    <glyph glyph-name="at" unicode="@" horiz-adv-x="884" 
d="M444 -82c-73 0 -139 17 -198 52c-60 35 -107 82 -141 141c-35 59 -52 123 -52 193v0c0 70 17 135 52 194c34 59 81 105 141 140s126 52 198 52v0c72 0 138 -17 197 -52s105 -81 139 -140s51 -124 51 -194v0c0 -61 -13 -110 -38 -149c-26 -39 -63 -59 -110 -59v0
c-25 0 -47 7 -66 21c-20 13 -35 32 -45 55v0c-16 -25 -36 -43 -60 -56c-25 -13 -52 -20 -83 -20v0c-35 0 -68 9 -97 26c-30 17 -53 42 -70 73s-26 66 -26 105v0c0 39 9 74 26 105s41 56 70 73s60 26 94 26v0c26 0 50 -5 73 -16c22 -11 41 -27 57 -46v0h4v48h67v-261
c0 -19 5 -36 16 -51c10 -15 25 -22 46 -22v0c28 0 48 15 59 45c11 29 16 64 16 103v0c0 59 -14 112 -43 161s-67 87 -116 116c-49 28 -102 42 -161 42v0c-59 0 -112 -14 -161 -42c-49 -29 -88 -67 -117 -116s-43 -102 -43 -161v0c0 -59 14 -112 43 -161s68 -87 117 -115
c49 -29 102 -43 161 -43v0c47 0 90 9 127 28v0l26 -63c-47 -21 -98 -32 -153 -32v0zM435 166c35 0 64 12 89 37c25 24 37 56 37 97v0c0 41 -12 73 -37 98c-25 24 -54 36 -89 36v0c-35 0 -64 -12 -88 -37c-25 -25 -37 -57 -37 -97v0c0 -40 12 -72 37 -97
c24 -25 53 -37 88 -37v0z" />
    <glyph glyph-name="A" unicode="A" horiz-adv-x="669" 
d="M15 0l271 716h96l272 -716h-93l-72 197h-309l-72 -197h-93zM209 277h251l-95 258l-29 77h-4l-28 -77z" />
    <glyph glyph-name="B" unicode="B" horiz-adv-x="606" 
d="M80 0v716h257c36 0 70 -8 102 -25c31 -17 56 -40 75 -69s28 -62 28 -99v0c0 -35 -9 -65 -26 -91c-18 -26 -42 -46 -72 -60v0v-4c36 -12 65 -33 88 -62s34 -64 34 -103v0c0 -39 -10 -73 -29 -104c-20 -31 -46 -56 -79 -73s-69 -26 -107 -26v0h-271zM164 406h173
c24 0 45 6 64 17c18 11 32 26 42 44c10 17 15 35 15 54v0c0 18 -5 36 -14 54c-10 17 -24 32 -41 43c-18 11 -39 17 -62 17v0h-177v-229zM164 81h192c24 0 46 6 65 18s33 28 44 47c10 19 15 38 15 58v0c0 20 -5 40 -16 59s-26 34 -45 46c-19 11 -42 17 -67 17v0h-188v-245z
" />
    <glyph glyph-name="C" unicode="C" horiz-adv-x="741" 
d="M416 -16c-69 0 -132 16 -189 49s-101 78 -133 135c-33 57 -49 120 -49 190v0c0 70 16 134 49 191c32 57 76 101 133 134s120 49 189 49v0c53 0 102 -10 147 -30c44 -21 82 -50 115 -87v0l-61 -59c-27 33 -57 57 -89 72c-33 15 -70 23 -112 23v0c-52 0 -100 -12 -143 -36
c-43 -25 -78 -59 -103 -103c-26 -45 -39 -96 -39 -154v0c0 -58 13 -109 39 -153c25 -45 60 -79 103 -103c43 -25 91 -37 143 -37v0c87 0 160 36 221 107v0l62 -60c-33 -39 -74 -70 -123 -93s-102 -35 -160 -35v0z" />
    <glyph glyph-name="D" unicode="D" horiz-adv-x="703" 
d="M80 0v716h216c73 0 137 -15 192 -45c55 -31 97 -73 126 -127s44 -116 44 -186v0c0 -70 -15 -132 -44 -186s-71 -96 -126 -126c-55 -31 -119 -46 -192 -46v0h-216zM164 81h132c85 0 152 24 202 73c49 49 74 117 74 204v0c0 87 -25 155 -74 204c-50 49 -117 73 -202 73v0
h-132v-554z" />
    <glyph glyph-name="E" unicode="E" horiz-adv-x="551" 
d="M80 0v716h414v-81h-330v-237h298v-80h-298v-237h330v-81h-414z" />
    <glyph glyph-name="F" unicode="F" horiz-adv-x="531" 
d="M80 0v716h414v-81h-330v-245h298v-80h-298v-310h-84z" />
    <glyph glyph-name="G" unicode="G" horiz-adv-x="813" 
d="M416 -16c-67 0 -129 16 -186 49s-102 78 -135 135s-50 121 -50 190v0c0 69 17 133 50 190s78 102 135 135s119 49 186 49v0c53 0 102 -9 149 -28c46 -19 84 -45 114 -79v0l-61 -61c-23 28 -52 50 -87 65s-73 22 -114 22v0c-51 0 -98 -12 -141 -36
c-44 -25 -79 -59 -105 -103c-27 -45 -40 -96 -40 -154v0c0 -58 13 -109 40 -153c26 -45 61 -79 105 -103c44 -25 91 -37 141 -37v0c48 0 88 8 121 23c32 15 60 34 83 59v0c17 19 31 41 42 68c11 26 17 55 20 87v0h-265v79h344c3 -19 5 -36 5 -52v0c0 -44 -7 -87 -21 -128
c-14 -42 -36 -79 -67 -110v0c-66 -71 -154 -107 -263 -107v0z" />
    <glyph glyph-name="H" unicode="H" horiz-adv-x="698" 
d="M80 0v716h84v-310h370v310h84v-716h-84v326h-370v-326h-84z" />
    <glyph glyph-name="I" unicode="I" horiz-adv-x="244" 
d="M80 0v716h84v-716h-84z" />
    <glyph glyph-name="J" unicode="J" horiz-adv-x="530" 
d="M247 -16c-53 0 -99 15 -138 44s-67 69 -83 122v0l80 33c24 -79 71 -118 141 -118v0c39 0 71 14 95 41c23 27 35 63 35 108v0v502h85v-495c0 -50 -9 -93 -27 -128c-19 -36 -44 -63 -76 -81c-33 -19 -70 -28 -112 -28v0z" />
    <glyph glyph-name="K" unicode="K" horiz-adv-x="625" 
d="M80 0v716h84v-377h4l323 377h109v-4l-265 -306l284 -402v-4h-103l-238 341l-114 -131v-210h-84z" />
    <glyph glyph-name="L" unicode="L" horiz-adv-x="509" 
d="M80 0v716h84v-635h314v-81h-398z" />
    <glyph glyph-name="M" unicode="M" horiz-adv-x="866" 
d="M80 0v716h123l228 -587h4l228 587h123v-716h-84v455l4 136h-4l-234 -591h-70l-234 591h-4l4 -136v-455h-84z" />
    <glyph glyph-name="N" unicode="N" horiz-adv-x="708" 
d="M80 0v716h104l359 -570h4l-4 138v432h85v-716h-88l-376 597h-4l4 -138v-459h-84z" />
    <glyph glyph-name="O" unicode="O" horiz-adv-x="825" 
d="M412 -16c-69 0 -131 17 -187 50s-100 79 -132 136s-48 119 -48 188v0c0 68 16 131 48 188s76 103 132 136s118 50 187 50v0c69 0 131 -17 187 -50s100 -79 133 -136c32 -57 48 -120 48 -188v0c0 -69 -16 -131 -48 -188s-76 -103 -132 -136c-57 -33 -119 -50 -188 -50v0z
M412 65c51 0 99 13 142 38s77 59 102 104c25 44 37 94 37 151v0c0 57 -12 107 -37 152c-25 44 -59 79 -102 104s-91 37 -142 37v0c-51 0 -98 -12 -141 -37s-77 -60 -102 -105s-38 -95 -38 -151v0c0 -56 13 -106 38 -151s59 -79 102 -104s90 -38 141 -38v0z" />
    <glyph glyph-name="P" unicode="P" horiz-adv-x="576" 
d="M80 0v716h241c40 0 77 -9 111 -27s61 -43 82 -75c20 -33 30 -69 30 -110v0c0 -41 -10 -77 -30 -109c-21 -33 -48 -58 -82 -76s-71 -27 -111 -27v0h-157v-292h-84zM164 373h159c27 0 50 6 71 19c20 13 36 29 47 49s17 41 17 63v0c0 22 -6 43 -17 63s-27 36 -47 49
c-21 13 -44 19 -71 19v0h-159v-262z" />
    <glyph glyph-name="Q" unicode="Q" horiz-adv-x="825" 
d="M636 -45l-49 72c-54 -29 -112 -43 -175 -43v0c-69 0 -131 17 -187 50s-100 79 -132 136s-48 119 -48 188v0c0 68 16 131 48 188s76 103 132 136s118 50 187 50v0c69 0 131 -17 187 -50s100 -79 133 -136c32 -57 48 -120 48 -188v0c0 -57 -11 -110 -33 -159
c-23 -50 -54 -92 -95 -127v0l50 -74zM412 65c45 0 88 10 129 31v0l-87 130l66 45l86 -129c27 26 49 58 64 95s23 77 23 121v0c0 57 -12 107 -37 152c-25 44 -59 79 -102 104s-91 37 -142 37v0c-51 0 -98 -12 -141 -37s-77 -60 -102 -105s-38 -95 -38 -151v0
c0 -56 13 -106 38 -151s59 -79 102 -104s90 -38 141 -38v0z" />
    <glyph glyph-name="R" unicode="R" horiz-adv-x="586" 
d="M80 0v716h242c39 0 76 -9 110 -27s61 -43 82 -75c20 -33 30 -69 30 -110v0c0 -33 -7 -64 -22 -93s-36 -53 -62 -72c-27 -19 -56 -32 -88 -39v0l-2 -3l202 -293v-4h-100l-195 292h-113v-292h-84zM164 371h153c25 0 48 6 70 17c21 11 39 27 52 48c13 20 19 43 19 68v0
c0 22 -6 43 -17 63s-27 36 -47 49c-21 13 -44 19 -71 19v0h-159v-264z" />
    <glyph glyph-name="S" unicode="S" 
d="M280 -16c-56 0 -107 17 -154 51s-79 82 -96 143v0l81 33c11 -43 32 -78 63 -105s67 -41 108 -41v0c41 0 76 11 105 34c29 22 43 52 43 91v0c0 33 -12 61 -36 83c-25 21 -65 41 -120 60v0l-45 16c-51 18 -92 42 -124 71s-48 70 -48 122v0c0 34 9 66 28 95s45 52 78 69
s71 26 112 26v0c41 0 77 -8 108 -23s55 -34 74 -56c18 -22 31 -44 38 -65v0l-80 -34c-7 25 -22 47 -45 67c-24 20 -55 30 -94 30v0c-37 0 -68 -10 -94 -31s-39 -47 -39 -78v0c0 -28 11 -51 33 -68c22 -18 55 -35 100 -50v0l47 -16c61 -22 108 -49 142 -82s51 -78 51 -135v0
c0 -46 -12 -85 -35 -116c-24 -31 -54 -54 -90 -69s-73 -22 -111 -22v0z" />
    <glyph glyph-name="T" unicode="T" horiz-adv-x="539" 
d="M227 0v635h-201v81h486v-81h-200v-635h-85z" />
    <glyph glyph-name="U" unicode="U" horiz-adv-x="652" 
d="M330 -16c-51 0 -97 12 -137 36c-40 23 -71 56 -93 99c-22 42 -33 91 -33 146v0v451h85v-455c0 -58 15 -105 46 -141c31 -37 75 -55 132 -55v0c57 0 102 18 133 55c31 36 46 83 46 141v0v455h84v-451c0 -55 -10 -104 -31 -147s-52 -76 -91 -99c-40 -23 -87 -35 -141 -35v0
z" />
    <glyph glyph-name="V" unicode="V" horiz-adv-x="630" 
d="M267 0l-253 716h94l177 -519l24 -71h4l25 71l185 519h94l-262 -716h-88z" />
    <glyph glyph-name="W" unicode="W" horiz-adv-x="944" 
d="M211 0l-194 716h94l130 -526l12 -49h4l15 49l160 526h88l153 -526l15 -49h4l141 575h94l-193 -716h-88l-152 518l-16 56h-4l-17 -56l-158 -518h-88z" />
    <glyph glyph-name="X" unicode="X" horiz-adv-x="631" 
d="M18 0l242 370l-228 346h102l179 -279h4l181 279h101l-228 -346l242 -370h-100l-196 299h-4l-195 -299h-100z" />
    <glyph glyph-name="Y" unicode="Y" horiz-adv-x="595" 
d="M257 0v331l-242 385h99l183 -300h4l180 300h99l-238 -385v-331h-85z" />
    <glyph glyph-name="Z" unicode="Z" horiz-adv-x="572" 
d="M38 0v89l386 546h-370v81h468v-89l-386 -546h390v-81h-488z" />
    <glyph glyph-name="bracketleft" unicode="[" horiz-adv-x="318" 
d="M80 -124v916h201v-70h-124v-776h124v-70h-201z" />
    <glyph glyph-name="backslash" unicode="\" horiz-adv-x="438" 
d="M328 0l-297 716h79l297 -716h-79z" />
    <glyph glyph-name="bracketright" unicode="]" horiz-adv-x="318" 
d="M37 -124v70h124v776h-124v70h201v-916h-201z" />
    <glyph glyph-name="asciicircum" unicode="^" horiz-adv-x="465" 
d="M12 410l187 306h67l187 -306h-89l-130 224h-4l-129 -224h-89z" />
    <glyph glyph-name="underscore" unicode="_" horiz-adv-x="476" 
d="M0 -216v70h476v-70h-476z" />
    <glyph glyph-name="grave" unicode="`" horiz-adv-x="397" 
d="M168 589l-70 127h93l52 -127h-75z" />
    <glyph glyph-name="a" unicode="a" horiz-adv-x="531" 
d="M226 -16c-37 0 -71 7 -100 22s-52 35 -68 61c-16 25 -24 54 -24 87v0c0 54 20 96 61 127c41 30 92 45 154 45v0c31 0 59 -3 86 -10c26 -7 46 -14 60 -23v0v31c0 38 -13 69 -40 92s-60 34 -101 34v0c-29 0 -55 -6 -79 -18c-24 -13 -43 -30 -57 -52v0l-64 48
c20 31 48 55 83 72s73 26 116 26v0c69 0 124 -18 164 -54c39 -37 59 -86 59 -149v0v-323h-81v73h-4c-15 -25 -37 -46 -66 -63s-62 -26 -99 -26v0zM234 59c29 0 55 7 80 22s44 34 59 59s22 52 22 81v0c-16 11 -36 19 -59 26s-48 10 -74 10v0c-47 0 -82 -10 -105 -29
c-24 -19 -36 -44 -36 -75v0c0 -28 11 -51 32 -68s48 -26 81 -26v0z" />
    <glyph glyph-name="b" unicode="b" horiz-adv-x="602" 
d="M322 -16c-39 0 -73 9 -104 27c-31 17 -55 39 -70 64v0h-4v-75h-81v716h85v-211l-4 -71h4c15 26 39 48 70 66c31 17 65 26 104 26v0c45 0 87 -12 124 -35s67 -56 88 -97s32 -88 32 -139v0c0 -52 -11 -98 -32 -139s-51 -74 -88 -97s-79 -35 -124 -35v0zM312 61
c29 0 57 8 83 24s47 39 63 69c15 29 23 63 23 101v0c0 38 -8 72 -23 102c-16 29 -37 52 -63 68s-54 24 -83 24v0c-29 0 -57 -8 -83 -24s-47 -39 -62 -68s-23 -63 -23 -102v0c0 -39 8 -73 23 -102s36 -52 62 -68s54 -24 83 -24v0z" />
    <glyph glyph-name="c" unicode="c" horiz-adv-x="546" 
d="M294 -16c-49 0 -94 12 -133 36c-39 23 -70 56 -92 97s-33 87 -33 138v0c0 51 11 98 33 139s53 74 92 97s84 35 133 35v0c55 0 102 -13 140 -38c37 -26 64 -60 80 -103v0l-77 -32c-13 31 -31 55 -56 72c-25 16 -56 24 -91 24v0c-30 0 -58 -8 -84 -24
c-26 -17 -47 -40 -62 -69c-16 -29 -24 -63 -24 -101v0c0 -38 8 -72 24 -101c15 -29 36 -52 62 -68c26 -17 54 -25 84 -25v0c36 0 67 8 93 25s45 40 58 71v0l76 -32c-17 -42 -45 -76 -83 -102c-39 -26 -85 -39 -140 -39v0z" />
    <glyph glyph-name="d" unicode="d" horiz-adv-x="602" 
d="M279 -16c-45 0 -86 12 -123 35s-67 56 -88 97s-32 87 -32 139v0c0 51 11 98 32 139s51 74 88 97s78 35 123 35v0c39 0 74 -9 105 -26c31 -18 54 -40 70 -66v0h4l-4 71v211h85v-716h-81v75h-4c-16 -25 -39 -47 -70 -64c-31 -18 -66 -27 -105 -27v0zM289 61
c30 0 58 8 84 24c25 16 46 39 62 68c15 29 23 63 23 102v0c0 39 -8 73 -23 102c-16 29 -37 52 -62 68c-26 16 -54 24 -84 24v0c-29 0 -57 -8 -83 -24s-47 -39 -62 -68c-16 -30 -24 -64 -24 -102v0c0 -38 8 -72 24 -101c15 -30 36 -53 62 -69s54 -24 83 -24v0z" />
    <glyph glyph-name="e" unicode="e" horiz-adv-x="563" 
d="M404 13c-44 -21 -89 -28 -134 -24c-44 5 -85 21 -122 49s-67 66 -88 112c0 0 20 -45 0 0c-21 45 -31 90 -30 136c0 46 13 88 36 127c23 38 57 67 102 88c0 0 -45 -21 0 0s89 30 132 25s81 -21 116 -48c34 -27 62 -64 84 -110c0 0 -5 9 0 0c4 -9 7 -17 8 -25v0l-365 -170
c18 -35 40 -60 67 -77c26 -17 54 -27 83 -28s56 4 81 16c0 0 -59 -28 0 0s92 77 98 147v0l80 -1c-2 -47 -16 -89 -40 -127c-24 -37 -60 -67 -108 -90c0 0 44 21 0 0zM118 238l282 132c-11 19 -25 35 -44 50s-41 24 -69 28c-27 3 -56 -2 -87 -17c0 0 36 17 0 0
s-62 -43 -76 -78s-16 -73 -6 -115v0z" />
    <glyph glyph-name="f" unicode="f" horiz-adv-x="379" 
d="M122 0v433h-94v77h94v55c0 32 7 60 22 84s34 43 59 56s52 19 82 19v0c29 0 54 -4 75 -12v0v-83c-12 5 -23 9 -34 12s-23 4 -38 4v0c-22 0 -41 -8 -57 -23c-16 -16 -24 -38 -24 -66v0v-46h131v-77h-131v-433h-85z" />
    <glyph glyph-name="g" unicode="g" horiz-adv-x="597" 
d="M287 -232c-60 0 -109 14 -148 42s-66 62 -79 101v0l77 33c11 -29 30 -53 57 -71c26 -19 57 -28 93 -28v0c53 0 94 15 123 46s43 74 43 130v0v57h-4c-17 -26 -40 -47 -70 -63c-31 -17 -65 -25 -104 -25v0c-44 0 -84 11 -120 34c-37 23 -66 54 -87 95s-32 87 -32 139v0
c0 51 11 98 32 139s50 72 87 95c36 23 76 34 120 34v0c39 0 73 -8 104 -24c30 -17 53 -38 70 -65v0h4v73h81v-490c0 -82 -23 -144 -68 -187s-105 -65 -179 -65v0zM287 67c31 0 59 8 84 23s45 37 60 66s22 63 22 102v0c0 40 -7 74 -22 103s-35 51 -60 66s-53 22 -84 22v0
c-31 0 -59 -8 -84 -23s-45 -37 -60 -66s-23 -63 -23 -102v0c0 -39 8 -73 23 -102s35 -51 60 -66s53 -23 84 -23v0z" />
    <glyph glyph-name="h" unicode="h" horiz-adv-x="564" 
d="M63 0v716h85v-211l-4 -70h4c14 26 36 48 67 65c30 17 63 26 99 26v0c62 0 109 -18 142 -54c33 -37 49 -85 49 -145v0v-327h-85v314c0 46 -12 80 -35 102s-54 33 -91 33v0c-27 0 -51 -8 -73 -24c-23 -16 -40 -37 -53 -62s-20 -52 -20 -79v0v-284h-85z" />
    <glyph glyph-name="i" unicode="i" horiz-adv-x="226" 
d="M113 604c-17 0 -31 6 -43 18s-18 26 -18 43v0c0 17 6 31 18 43c12 11 26 17 43 17v0c17 0 31 -6 43 -17c12 -12 18 -26 18 -43v0c0 -17 -6 -31 -17 -43c-12 -12 -27 -18 -44 -18v0zM71 0v510h84v-510h-84z" />
    <glyph glyph-name="j" unicode="j" horiz-adv-x="226" 
d="M113 604c-17 0 -31 6 -43 18s-18 26 -18 43v0c0 17 6 31 18 43c12 11 26 17 43 17v0c17 0 31 -6 43 -17c12 -12 18 -26 18 -43v0c0 -17 -6 -31 -17 -43c-12 -12 -27 -18 -44 -18v0zM15 -226c-16 0 -31 2 -45 7v0v81c5 -3 12 -6 20 -8s15 -3 22 -3v0c21 0 36 7 45 20
s14 32 14 57v0v582h84v-582c0 -51 -12 -90 -37 -115c-25 -26 -59 -39 -103 -39v0z" />
    <glyph glyph-name="k" unicode="k" horiz-adv-x="505" 
d="M63 0v716h85v-450l240 244h108v-4l-200 -202l205 -300v-4h-101l-164 245l-88 -88v-157h-85z" />
    <glyph glyph-name="l" unicode="l" horiz-adv-x="211" 
d="M63 0v716h85v-716h-85z" />
    <glyph glyph-name="m" unicode="m" horiz-adv-x="875" 
d="M63 0v510h81v-75h4c15 26 37 48 66 65s60 26 93 26v0c37 0 70 -9 98 -27c27 -18 47 -42 59 -72v0c18 30 42 54 72 72c29 18 64 27 103 27v0c59 0 103 -18 133 -53c29 -36 44 -85 44 -146v0v-327h-84v314c0 47 -10 82 -29 103s-48 32 -86 32v0c-25 0 -48 -7 -69 -22
s-37 -34 -48 -59c-12 -25 -18 -51 -18 -80v0v-288h-85v313c0 48 -10 83 -29 104s-48 32 -85 32v0c-25 0 -48 -7 -69 -22s-37 -35 -48 -60c-12 -25 -18 -52 -18 -81v0v-286h-85z" />
    <glyph glyph-name="n" unicode="n" 
d="M63 0v510h81v-75h4c14 25 36 47 67 65c31 17 63 26 98 26v0c61 0 108 -18 141 -53c32 -36 48 -85 48 -146v0v-327h-85v314c0 47 -11 82 -34 103s-54 32 -93 32v0c-27 0 -52 -8 -73 -23c-22 -15 -39 -35 -51 -60s-18 -52 -18 -79v0v-287h-85z" />
    <glyph glyph-name="o" unicode="o" horiz-adv-x="596" 
d="M298 -16c-50 0 -95 12 -135 36s-71 57 -93 98c-23 41 -34 87 -34 137v0c0 50 11 96 34 137c22 41 53 74 93 98s85 36 135 36v0c50 0 95 -12 135 -36s71 -57 94 -98c22 -41 33 -87 33 -137v0c0 -50 -11 -96 -33 -137c-23 -41 -54 -74 -94 -98s-85 -36 -135 -36v0zM298 61
c31 0 61 8 88 24c27 15 48 38 65 67c16 29 24 64 24 103v0c0 39 -8 74 -24 103c-17 29 -38 52 -65 68c-27 15 -57 23 -88 23v0c-31 0 -61 -8 -88 -23c-27 -16 -49 -39 -65 -68c-17 -29 -25 -64 -25 -103v0c0 -39 8 -74 25 -103c16 -29 38 -52 65 -67c27 -16 57 -24 88 -24v0
z" />
    <glyph glyph-name="p" unicode="p" horiz-adv-x="598" 
d="M59 -216v726h81v-76h4c15 26 39 48 70 66c31 17 65 26 104 26v0c45 0 87 -12 124 -35s67 -56 88 -97s32 -88 32 -139v0c0 -52 -11 -98 -32 -139s-51 -74 -88 -97s-79 -35 -124 -35v0c-39 0 -73 9 -104 27c-31 17 -55 39 -70 64v0h-4l4 -70v-221h-85zM308 61
c29 0 57 8 83 24s47 39 63 69c15 29 23 63 23 101v0c0 38 -8 72 -23 102c-16 29 -37 52 -63 68s-54 24 -83 24v0c-29 0 -57 -8 -83 -24s-47 -39 -62 -68s-23 -63 -23 -102v0c0 -39 8 -73 23 -102s36 -52 62 -68s54 -24 83 -24v0z" />
    <glyph glyph-name="q" unicode="q" horiz-adv-x="598" 
d="M454 -216v221l4 70h-4c-16 -25 -39 -47 -70 -64c-31 -18 -66 -27 -105 -27v0c-45 0 -86 12 -123 35s-67 56 -88 97s-32 87 -32 139v0c0 51 11 98 32 139s51 74 88 97s78 35 123 35v0c39 0 74 -9 105 -26c31 -18 54 -40 70 -66v0h4v76h81v-726h-85zM289 61
c30 0 58 8 84 24c25 16 46 39 62 68c15 29 23 63 23 102v0c0 39 -8 73 -23 102c-16 29 -37 52 -62 68c-26 16 -54 24 -84 24v0c-29 0 -57 -8 -83 -24s-47 -39 -62 -68c-16 -30 -24 -64 -24 -102v0c0 -38 8 -72 24 -101c15 -30 36 -53 62 -69s54 -24 83 -24v0z" />
    <glyph glyph-name="r" unicode="r" horiz-adv-x="375" 
d="M63 0v510h81v-82h4c10 28 29 51 58 70c29 18 59 27 90 27v0c23 0 43 -3 60 -10v0v-92c-21 11 -45 16 -72 16v0c-25 0 -47 -7 -68 -21s-37 -33 -49 -56c-13 -24 -19 -50 -19 -77v0v-285h-85z" />
    <glyph glyph-name="s" unicode="s" horiz-adv-x="473" 
d="M241 -16c-55 0 -100 13 -137 39c-37 25 -63 58 -78 98v0l76 34c13 -31 32 -54 57 -71s52 -25 82 -25v0c32 0 59 7 82 20s34 31 34 55v0c0 21 -9 39 -27 52s-46 24 -85 33v0l-62 16c-41 10 -74 27 -100 51s-39 55 -39 93v0c0 29 9 55 27 78c17 22 41 39 70 51s61 18 95 18
v0c45 0 85 -10 120 -29s59 -46 74 -81v0l-74 -34c-23 45 -63 68 -121 68v0c-28 0 -52 -6 -73 -19s-32 -30 -32 -50v0c0 -19 7 -34 22 -45c15 -12 37 -22 66 -29v0l74 -19c50 -13 88 -31 113 -56s38 -56 38 -92v0c0 -31 -9 -59 -27 -82c-18 -24 -42 -42 -73 -55
s-65 -19 -102 -19v0z" />
    <glyph glyph-name="t" unicode="t" horiz-adv-x="366" 
d="M259 -8c-21 0 -40 3 -57 10c-18 7 -33 16 -45 27v0c-13 13 -23 27 -30 44s-10 37 -10 61v0v299h-89v77h89v144h85v-144h124v-77h-124v-278c0 -28 5 -49 16 -62v0c13 -15 31 -22 55 -22v0c19 0 38 6 56 17v0v-83c-10 -5 -20 -8 -30 -10c-11 -2 -24 -3 -40 -3v0z" />
    <glyph glyph-name="u" unicode="u" 
d="M248 -16c-61 0 -108 18 -140 54c-33 36 -49 86 -49 151v0v321h85v-308c0 -49 11 -84 33 -107s52 -34 89 -34v0c29 0 54 8 77 23c22 15 39 35 52 60c12 25 18 51 18 78v0v288h85v-510h-81v74h-4c-14 -25 -36 -47 -67 -64s-63 -26 -98 -26v0z" />
    <glyph glyph-name="v" unicode="v" horiz-adv-x="514" 
d="M213 0l-206 510h91l158 -410h2l160 410h89l-208 -510h-86z" />
    <glyph glyph-name="w" unicode="w" horiz-adv-x="777" 
d="M171 0l-164 510h87l122 -403h1l128 403h88l129 -402h1l121 402h86l-165 -510h-86l-132 407l-131 -407h-85z" />
    <glyph glyph-name="x" unicode="x" horiz-adv-x="487" 
d="M13 0l180 259l-177 251h96l132 -189l127 189h99l-178 -251l182 -259h-99l-133 196l-130 -196h-99z" />
    <glyph glyph-name="y" unicode="y" horiz-adv-x="516" 
d="M105 -216l114 248l-211 478h92l160 -379h2l154 379h92l-315 -726h-88z" />
    <glyph glyph-name="z" unicode="z" horiz-adv-x="487" 
d="M37 0v73l301 360h-292v77h396v-73l-302 -360h310v-77h-413z" />
    <glyph glyph-name="braceleft" unicode="{" horiz-adv-x="313" 
d="M260 -124c-50 0 -90 15 -119 45c-29 29 -44 69 -44 118v0v175c0 27 -7 48 -20 63c-14 15 -32 22 -54 22v0v70c22 0 40 7 54 22c13 15 20 36 20 63v0v175c0 49 15 89 44 119c29 29 69 44 119 44v0h22v-70h-21c-25 0 -46 -9 -62 -26s-24 -41 -24 -70v0v-175
c0 -31 -6 -56 -17 -75s-28 -32 -51 -40v0v-4c23 -8 40 -21 51 -39c11 -19 17 -44 17 -76v0v-175c0 -29 8 -53 24 -70s37 -26 62 -26v0h21v-70h-22z" />
    <glyph glyph-name="bar" unicode="|" horiz-adv-x="237" 
d="M80 -120v912h77v-912h-77z" />
    <glyph glyph-name="braceright" unicode="}" horiz-adv-x="313" 
d="M31 -124v70h21c25 0 46 9 63 26c16 17 24 41 24 70v0v175c0 32 6 57 17 76c11 18 27 31 50 39v0v4c-23 8 -39 21 -50 40s-17 44 -17 75v0v175c0 29 -8 53 -24 70c-17 17 -38 26 -63 26v0h-21v70h22c50 0 90 -15 119 -44c29 -30 44 -70 44 -119v0v-175c0 -27 7 -48 21 -63
c13 -15 31 -22 53 -22v0v-70c-22 0 -40 -7 -53 -22c-14 -15 -21 -36 -21 -63v0v-175c0 -49 -15 -89 -44 -118c-29 -30 -69 -45 -119 -45v0h-22z" />
    <glyph glyph-name="asciitilde" unicode="~" horiz-adv-x="535" 
d="M379 236c-15 0 -32 3 -51 10c-19 6 -43 15 -71 27v0c-25 11 -44 19 -59 24s-29 7 -40 7v0c-15 0 -28 -5 -38 -16s-16 -24 -17 -39v0h-66c0 26 6 49 17 69s26 35 45 46c18 11 37 16 57 16v0c17 0 34 -3 53 -9c19 -7 43 -16 72 -28v0c24 -11 43 -18 58 -23s28 -8 39 -8v0
c15 0 28 6 38 17c9 11 15 23 16 38v0h67c0 -26 -6 -49 -17 -69c-12 -20 -27 -35 -45 -46c-19 -11 -38 -16 -58 -16v0z" />
    <glyph glyph-name="nbsp" unicode="&#xa0;" horiz-adv-x="232" 
 />
    <glyph glyph-name="exclamdown" unicode="&#xa1;" horiz-adv-x="238" 
d="M119 398c-18 0 -33 6 -45 19c-13 12 -19 27 -19 45v0c0 18 6 33 19 46c12 12 27 18 45 18v0c17 0 32 -6 45 -18c12 -13 18 -28 18 -46v0c0 -18 -6 -33 -18 -45c-13 -13 -28 -19 -45 -19v0zM77 -216v243l9 277h65l10 -277v-243h-84z" />
    <glyph glyph-name="cent" unicode="&#xa2;" horiz-adv-x="531" 
d="M502 222c-15 -36 -38 -66 -69 -91s-69 -41 -114 -46v0v-85h-70v85c-41 5 -78 20 -110 44c-33 23 -58 54 -76 91s-27 77 -27 122v0c0 45 9 86 27 123s43 67 76 91c32 23 69 38 110 43v0v85h70v-85c45 -5 82 -20 112 -45s53 -56 68 -92v0l-77 -32c-21 51 -55 81 -103 92v0
v-360c25 5 46 16 65 32c18 16 32 36 43 60v0zM120 342c0 -46 13 -85 38 -118s55 -53 91 -62v0v360c-36 -9 -66 -29 -91 -62s-38 -72 -38 -118v0z" />
    <glyph glyph-name="sterling" unicode="&#xa3;" horiz-adv-x="525" 
d="M435 140l70 -29c-28 -74 -81 -111 -158 -111v0h-309v73c33 15 58 36 75 63s25 57 25 89v0c0 5 -1 13 -2 24v0h-97v71h70c-1 3 -7 12 -17 29v0c-17 29 -30 55 -39 78c-9 22 -14 47 -14 76v0c0 35 9 67 26 98c17 30 41 54 72 72s66 27 106 27v0c53 0 96 -14 129 -42
c33 -29 55 -62 68 -99v0l-78 -32c-8 26 -22 48 -41 66c-20 17 -46 26 -78 26v0c-37 0 -66 -12 -87 -35c-22 -23 -33 -50 -33 -81v0c0 -23 4 -43 12 -62s20 -43 37 -70v0c3 -5 7 -12 14 -22c6 -11 11 -20 15 -29v0h138v-71h-118v-11c0 -28 -5 -55 -16 -82s-27 -51 -47 -72v0
l4 -3h185c25 0 44 5 57 15c13 9 24 24 31 44v0z" />
    <glyph glyph-name="currency" unicode="&#xa4;" horiz-adv-x="611" 
d="M118 93l-50 50l60 58c-25 38 -38 79 -38 124v0c0 46 13 87 38 124v0l-60 59l50 50l59 -57c37 29 80 43 128 43v0c49 0 92 -14 129 -43v0l59 57l50 -50l-59 -58c25 -39 37 -80 37 -125v0c0 -44 -12 -85 -37 -124v0l59 -58l-50 -50l-59 57c-38 -29 -81 -44 -129 -44v0
c-47 0 -90 15 -128 44v0zM305 180c25 0 49 7 70 20s37 30 50 53c12 22 18 46 18 72v0c0 26 -6 50 -18 73c-13 22 -29 40 -50 53s-45 19 -70 19v0c-25 0 -47 -6 -68 -19s-38 -31 -50 -53c-13 -23 -19 -47 -19 -73v0c0 -26 6 -50 19 -72c12 -23 29 -40 50 -53s43 -20 68 -20v0
z" />
    <glyph glyph-name="yen" unicode="&#xa5;" horiz-adv-x="572" 
d="M246 0v169h-171v70h171v85h-171v70h126l-186 290h97l140 -232l34 -57h4l33 57l137 232h97l-183 -290h123v-70h-167v-85h167v-70h-167v-169h-84z" />
    <glyph glyph-name="brokenbar" unicode="&#xa6;" horiz-adv-x="237" 
d="M80 376v380h77v-380h-77zM80 -120v412h77v-412h-77z" />
    <glyph glyph-name="section" unicode="&#xa7;" horiz-adv-x="545" 
d="M430 101c45 -37 68 -84 68 -143v0c0 -39 -11 -73 -32 -102s-49 -50 -83 -65s-69 -23 -106 -23v0c-52 0 -99 17 -142 50s-72 79 -88 140v0l80 32c11 -42 30 -76 56 -102c25 -26 57 -39 94 -39v0c37 0 69 10 95 31c26 20 39 45 39 76v0c0 34 -13 62 -38 83
c-26 21 -68 40 -127 58v0c-59 19 -103 43 -132 72s-44 65 -44 108v0c0 27 8 52 23 77s37 45 64 61v0c-59 35 -88 83 -88 144v0c0 28 8 55 24 82s40 49 71 66s67 25 109 25v0c35 0 67 -7 96 -22c28 -15 51 -34 70 -56c18 -23 30 -45 37 -67v0l-78 -32c-7 24 -22 46 -43 66
c-22 20 -49 30 -80 30v0c-23 0 -44 -4 -62 -13c-19 -9 -33 -20 -43 -34c-10 -15 -15 -30 -15 -45v0c0 -25 10 -45 30 -61s52 -31 95 -46v0c69 -22 123 -48 161 -79s57 -76 57 -133v0c0 -29 -6 -55 -18 -80c-13 -25 -29 -44 -50 -59v0zM157 280c0 -25 10 -46 29 -62
s51 -31 94 -45v0c29 -9 56 -19 83 -31v0c15 10 27 24 36 42s13 35 13 52v0c0 35 -13 62 -38 83c-26 20 -69 39 -128 58v0l-7 2c-25 -7 -44 -21 -59 -40s-23 -39 -23 -59v0z" />
    <glyph glyph-name="dieresis" unicode="&#xa8;" horiz-adv-x="392" 
d="M114 605c-15 0 -27 6 -38 17s-16 23 -16 37v0c0 15 5 28 16 39c11 10 23 15 38 15v0c15 0 28 -5 38 -15c10 -11 15 -24 15 -39v0c0 -15 -5 -27 -15 -38s-23 -16 -38 -16v0zM278 605c-14 0 -26 6 -37 17s-17 23 -17 37v0c0 15 5 28 16 39c11 10 23 15 38 15v0
c15 0 28 -5 39 -15c10 -11 15 -24 15 -39v0c0 -15 -5 -27 -15 -38c-11 -11 -24 -16 -39 -16v0z" />
    <glyph glyph-name="copyright" unicode="&#xa9;" horiz-adv-x="530" 
d="M265 272c-41 0 -80 10 -115 31s-63 49 -84 84s-31 74 -31 115v0c0 41 10 80 31 115s49 63 84 84s74 31 115 31v0c41 0 80 -10 115 -31s63 -49 84 -84s31 -74 31 -115v0c0 -41 -10 -80 -31 -115s-49 -63 -84 -84s-74 -31 -115 -31v0zM265 318c33 0 64 8 93 25
c28 17 50 39 67 68c17 28 25 58 25 91v0c0 33 -8 64 -25 93c-17 28 -39 50 -67 67c-29 16 -60 24 -93 24v0c-33 0 -63 -8 -91 -24c-29 -17 -51 -39 -68 -67c-17 -29 -25 -60 -25 -93v0c0 -33 8 -63 25 -91c17 -29 39 -51 68 -68c28 -17 58 -25 91 -25v0zM269 383
c-33 0 -61 12 -84 35s-34 51 -34 84v0c0 33 11 62 34 85s51 34 84 34v0c19 0 35 -3 48 -10s26 -16 39 -29v0l-31 -28c-7 9 -15 15 -23 19c-9 4 -20 6 -33 6v0c-20 0 -37 -7 -52 -22s-22 -34 -22 -55v0c0 -21 7 -39 22 -54s32 -23 52 -23v0c25 0 45 11 61 32v0l33 -26
c-24 -32 -55 -48 -94 -48v0z" />
    <glyph glyph-name="ordfeminine" unicode="&#xaa;" horiz-adv-x="474" 
d="M207 272c-30 0 -58 6 -83 19c-25 12 -45 29 -60 52c-15 22 -23 47 -23 76v0c0 46 18 82 55 108c36 26 81 39 134 39v0c26 0 50 -3 73 -9c22 -7 39 -14 52 -21v0v16c0 33 -11 60 -33 79s-49 29 -81 29v0c-26 0 -48 -4 -65 -13s-32 -24 -43 -44v0l-72 35c13 26 34 48 64 67
c29 18 67 27 113 27v0c36 0 69 -7 99 -21c29 -15 53 -36 70 -63c17 -28 26 -61 26 -100v0v-262h-78v66h-4c-13 -23 -32 -42 -57 -57s-54 -23 -87 -23v0zM219 342c23 0 45 6 66 17s38 27 51 47c13 19 19 41 19 66v0c-1 1 -5 4 -12 9c-8 5 -21 11 -39 16s-37 7 -57 7v0
c-41 0 -71 -8 -91 -24c-21 -17 -31 -38 -31 -65v0c0 -23 9 -41 28 -54s41 -19 66 -19v0z" />
    <glyph glyph-name="guillemotleft" unicode="&#xab;" horiz-adv-x="548" 
d="M237 54l-200 217l200 217l50 -46l-161 -171l161 -171zM437 54l-200 217l200 217l50 -46l-161 -171l161 -171z" />
    <glyph glyph-name="logicalnot" unicode="&#xac;" horiz-adv-x="573" 
d="M418 105v207h-363v70h431v-277h-68z" />
    <glyph glyph-name="uni00AD" unicode="&#xad;" horiz-adv-x="441" 
d="M62 275v70h317v-70h-317z" />
    <glyph glyph-name="registered" unicode="&#xae;" horiz-adv-x="530" 
d="M265 272c-41 0 -80 10 -115 31s-63 49 -84 84s-31 74 -31 115v0c0 41 10 80 31 115s49 63 84 84s74 31 115 31v0c41 0 80 -10 115 -31s63 -49 84 -84s31 -74 31 -115v0c0 -41 -10 -80 -31 -115s-49 -63 -84 -84s-74 -31 -115 -31v0zM265 318c33 0 64 8 93 25
c28 17 50 39 67 68c17 28 25 58 25 91v0c0 33 -8 64 -25 93c-17 28 -39 50 -67 67c-29 16 -60 24 -93 24v0c-33 0 -63 -8 -91 -24c-29 -17 -51 -39 -68 -67c-17 -29 -25 -60 -25 -93v0c0 -33 8 -63 25 -91c17 -29 39 -51 68 -68c28 -17 58 -25 91 -25v0zM189 389v226h95
c19 0 36 -7 51 -21s22 -31 22 -51v0c0 -15 -5 -29 -14 -41c-10 -12 -22 -20 -36 -24v0l-2 -2l60 -85v-2h-50l-56 85h-26v-85h-44zM233 514h47c9 0 16 3 23 8s10 12 10 21v0c0 8 -3 15 -9 21s-14 9 -23 9v0h-48v-59z" />
    <glyph glyph-name="macron" unicode="&#xaf;" horiz-adv-x="399" 
d="M61 626v66h277v-66h-277z" />
    <glyph glyph-name="degree" unicode="&#xb0;" horiz-adv-x="323" 
d="M162 442c-23 0 -45 6 -65 18c-21 11 -37 27 -48 47c-12 19 -18 41 -18 64v0c0 23 6 45 18 65c11 20 27 36 48 47c20 11 42 17 65 17v0c23 0 45 -6 65 -17c19 -11 35 -27 47 -47c11 -20 17 -42 17 -65v0c0 -23 -6 -45 -17 -64c-12 -20 -28 -36 -47 -47
c-20 -12 -42 -18 -65 -18v0zM162 501c19 0 34 7 47 21c13 13 19 30 19 49v0c0 19 -6 36 -19 50c-13 13 -28 20 -47 20v0c-19 0 -34 -7 -47 -20c-13 -14 -20 -31 -20 -50v0c0 -19 7 -36 20 -49c13 -14 28 -21 47 -21v0z" />
    <glyph glyph-name="plusminus" unicode="&#xb1;" horiz-adv-x="544" 
d="M237 142v157h-182v70h182v157h70v-157h182v-70h-182v-157h-70zM55 0v70h434v-70h-434z" />
    <glyph glyph-name="uni00B2" unicode="&#xb2;" horiz-adv-x="302" 
d="M23 350v56l135 135c14 15 25 28 33 39c7 11 11 24 11 37v0c0 13 -5 25 -16 34s-24 14 -40 14v0c-16 0 -30 -5 -41 -15c-12 -11 -20 -26 -24 -46v0l-60 25c7 29 22 53 45 70s50 25 79 25v0c33 0 62 -10 87 -29c24 -20 36 -46 36 -78v0c0 -21 -6 -40 -18 -58
s-27 -36 -44 -53v0l-97 -97h161v-59h-247z" />
    <glyph glyph-name="uni00B3" unicode="&#xb3;" horiz-adv-x="322" 
d="M156 342c-32 0 -60 8 -85 25s-41 41 -49 74v0l60 23c5 -21 15 -37 29 -47c13 -11 28 -16 45 -16v0c17 0 33 6 46 17s19 24 19 41v0c0 16 -6 29 -18 39c-13 9 -28 14 -46 14v0h-41v56h36c17 0 30 5 41 14c10 9 15 21 15 36v0c0 14 -5 25 -15 34c-11 9 -23 13 -38 13v0
c-29 0 -50 -15 -62 -45v0l-57 23c9 25 23 44 44 59c20 15 45 22 75 22v0c35 0 64 -10 87 -29c22 -20 33 -45 33 -76v0c0 -31 -15 -56 -46 -76v0c39 -21 58 -49 58 -84v0c0 -35 -13 -64 -38 -85c-26 -21 -57 -32 -93 -32v0z" />
    <glyph glyph-name="acute" unicode="&#xb4;" horiz-adv-x="397" 
d="M155 589l52 127h93l-71 -127h-74z" />
    <glyph glyph-name="mu" unicode="&#xb5;" 
d="M59 -216v726h85v-305c0 -49 11 -86 34 -109c22 -23 51 -35 88 -35v0c29 0 54 8 77 23c22 15 39 36 52 61c12 25 18 51 18 78v0v287h85v-510h-81v74h-4c-15 -26 -37 -47 -66 -64s-62 -26 -99 -26v0c-20 0 -39 4 -57 13c-19 8 -34 19 -47 32v0h-4l4 -60v-185h-85z" />
    <glyph glyph-name="paragraph" unicode="&#xb6;" horiz-adv-x="614" 
d="M292 -216v512h-44c-41 0 -78 9 -112 26c-35 17 -62 41 -82 73c-21 32 -31 69 -31 111v0c0 42 10 79 31 111c20 32 47 57 82 74c34 17 71 25 112 25v0h288v-932h-78v851h-89v-851h-77z" />
    <glyph glyph-name="periodcentered" unicode="&#xb7;" horiz-adv-x="183" 
d="M92 260c-18 0 -33 6 -45 19c-13 12 -19 27 -19 45v0c0 18 6 33 19 46c12 12 27 18 45 18v0c17 0 32 -6 45 -18c12 -13 18 -28 18 -46v0c0 -18 -6 -33 -18 -45c-13 -13 -28 -19 -45 -19v0z" />
    <glyph glyph-name="cedilla" unicode="&#xb8;" horiz-adv-x="403" 
d="M166 -237c-21 0 -40 6 -57 19s-30 29 -37 48v0l50 22c3 -10 9 -18 17 -25c7 -7 16 -11 27 -11v0c13 0 24 4 32 13c8 8 12 18 12 30v0c0 13 -4 23 -12 32s-19 13 -32 13v0c-14 0 -26 -6 -35 -17v0l-44 20l35 93h53l-22 -49c12 2 20 3 23 3v0c25 0 47 -9 65 -27
c17 -18 26 -41 26 -68v0c0 -27 -10 -49 -29 -68s-43 -28 -72 -28v0z" />
    <glyph glyph-name="uni00B9" unicode="&#xb9;" horiz-adv-x="239" 
d="M112 350v282l-52 -43l-37 48l98 79h56v-366h-65z" />
    <glyph glyph-name="ordmasculine" unicode="&#xba;" horiz-adv-x="515" 
d="M258 272c-42 0 -80 10 -113 30c-34 20 -60 48 -79 83s-29 74 -29 117v0c0 43 10 83 29 118s45 62 79 82c33 20 71 30 113 30v0c42 0 80 -10 114 -30c33 -20 60 -47 79 -82s28 -75 28 -118v0c0 -43 -9 -82 -28 -117s-46 -63 -79 -83c-34 -20 -72 -30 -114 -30v0zM258 346
c24 0 47 7 68 20s39 32 52 56c13 23 19 50 19 80v0c0 30 -6 57 -19 81c-13 23 -31 42 -52 55s-44 20 -68 20v0c-25 0 -48 -7 -69 -20s-38 -32 -51 -55c-13 -24 -20 -51 -20 -81v0c0 -30 7 -57 20 -80c13 -24 30 -43 51 -56s44 -20 69 -20v0z" />
    <glyph glyph-name="guillemotright" unicode="&#xbb;" horiz-adv-x="548" 
d="M107 54l-50 46l160 171l-160 171l50 46l200 -217zM307 54l-50 46l160 171l-160 171l50 46l200 -217z" />
    <glyph glyph-name="onequarter" unicode="&#xbc;" horiz-adv-x="732" 
d="M137 350v282l-52 -43l-37 48l98 79h56v-366h-65zM153 -7l-53 35l466 695l53 -36zM562 0v74h-172v44l176 248h61v-236h49v-56h-49v-74h-65zM460 130h102v137h-4z" />
    <glyph glyph-name="onehalf" unicode="&#xbd;" horiz-adv-x="774" 
d="M137 350v282l-52 -43l-37 48l98 79h56v-366h-65zM145 -7l-53 35l466 695l53 -36zM469 0v56l135 135c14 15 25 28 33 39c7 11 11 24 11 37v0c0 13 -5 25 -16 34s-24 14 -40 14v0c-16 0 -30 -5 -41 -15c-12 -11 -20 -26 -24 -46v0l-60 25c7 29 22 53 45 70s50 25 79 25v0
c33 0 62 -10 87 -29c24 -20 36 -46 36 -78v0c0 -21 -6 -40 -18 -58s-27 -36 -44 -53v0l-97 -97h161v-59h-247z" />
    <glyph glyph-name="threequarters" unicode="&#xbe;" horiz-adv-x="825" 
d="M182 342c-32 0 -60 8 -85 25s-41 41 -49 74v0l60 23c5 -21 15 -37 29 -47c13 -11 28 -16 45 -16v0c17 0 33 6 46 17s19 24 19 41v0c0 16 -6 29 -18 39c-13 9 -28 14 -46 14v0h-41v56h36c17 0 30 5 41 14c10 9 15 21 15 36v0c0 14 -5 25 -15 34c-11 9 -23 13 -38 13v0
c-29 0 -50 -15 -62 -45v0l-57 23c9 25 23 44 44 59c20 15 45 22 75 22v0c35 0 64 -10 87 -29c22 -20 33 -45 33 -76v0c0 -31 -15 -56 -46 -76v0c39 -21 58 -49 58 -84v0c0 -35 -13 -64 -38 -85c-26 -21 -57 -32 -93 -32v0zM233 -7l-53 35l466 695l53 -36zM655 0v74h-172v44
l176 248h61v-236h49v-56h-49v-74h-65zM553 130h102v137h-4z" />
    <glyph glyph-name="questiondown" unicode="&#xbf;" horiz-adv-x="493" 
d="M251 398c-18 0 -33 6 -45 19c-13 12 -19 27 -19 45v0c0 18 6 33 19 46c12 12 27 18 45 18v0c17 0 32 -6 45 -18c12 -13 18 -28 18 -46v0c0 -18 -6 -33 -18 -45c-13 -13 -28 -19 -45 -19v0zM250 -232c-40 0 -75 8 -106 25c-31 16 -55 38 -72 67s-26 61 -26 96v0
c0 25 5 49 16 71c11 21 22 39 35 53c12 13 28 29 47 47v0c22 20 38 39 49 57c10 18 15 39 15 63v0v57h86v-63c0 -33 -6 -61 -18 -83c-13 -23 -36 -49 -69 -79v0c-26 -25 -45 -45 -56 -62c-12 -17 -18 -37 -18 -61v0c0 -32 10 -58 31 -77c21 -20 49 -30 86 -30v0
c33 0 60 10 80 29c19 19 34 42 43 70v0l79 -33c-13 -39 -37 -73 -71 -102c-34 -30 -78 -45 -131 -45v0z" />
    <glyph glyph-name="Agrave" unicode="&#xc0;" horiz-adv-x="669" 
d="M15 0l271 716h96l272 -716h-93l-72 197h-309l-72 -197h-93zM209 277h251l-95 258l-29 77h-4l-28 -77zM297 773l-70 127h93l52 -127h-75z" />
    <glyph glyph-name="Aacute" unicode="&#xc1;" horiz-adv-x="669" 
d="M15 0l271 716h96l272 -716h-93l-72 197h-309l-72 -197h-93zM209 277h251l-95 258l-29 77h-4l-28 -77zM297 773l52 127h93l-71 -127h-74z" />
    <glyph glyph-name="Acircumflex" unicode="&#xc2;" horiz-adv-x="669" 
d="M15 0l271 716h96l272 -716h-93l-72 197h-309l-72 -197h-93zM209 277h251l-95 258l-29 77h-4l-28 -77zM195 779v5l102 116h75l102 -116v-5h-82l-54 63h-8l-53 -63h-82z" />
    <glyph glyph-name="Atilde" unicode="&#xc3;" horiz-adv-x="669" 
d="M15 0l271 716h96l272 -716h-93l-72 197h-309l-72 -197h-93zM209 277h251l-95 258l-29 77h-4l-28 -77zM392 780c-12 0 -24 3 -35 8c-12 5 -26 12 -43 21v0c-19 12 -33 18 -40 18v0c-22 0 -34 -12 -36 -37v0h-70c0 25 5 47 16 64s24 29 41 38c17 8 33 12 50 12v0
c21 0 47 -10 80 -30v0c20 -11 33 -17 39 -17v0c22 0 34 12 36 37v0h70c0 -37 -11 -65 -33 -84c-23 -20 -48 -30 -75 -30v0z" />
    <glyph glyph-name="Adieresis" unicode="&#xc4;" horiz-adv-x="669" 
d="M15 0l271 716h96l272 -716h-93l-72 197h-309l-72 -197h-93zM209 277h251l-95 258l-29 77h-4l-28 -77zM252 789c-15 0 -27 6 -38 17s-16 23 -16 37v0c0 15 5 28 16 39c11 10 23 15 38 15v0c15 0 28 -5 38 -15c10 -11 15 -24 15 -39v0c0 -15 -5 -27 -15 -38
s-23 -16 -38 -16v0zM416 789c-14 0 -26 6 -37 17s-17 23 -17 37v0c0 15 5 28 16 39c11 10 23 15 38 15v0c15 0 28 -5 39 -15c10 -11 15 -24 15 -39v0c0 -15 -5 -27 -15 -38c-11 -11 -24 -16 -39 -16v0z" />
    <glyph glyph-name="Aring" unicode="&#xc5;" horiz-adv-x="669" 
d="M398 675l256 -675h-93l-72 197h-309l-72 -197h-93l256 674c-12 10 -22 22 -29 37c-7 14 -11 29 -11 45v0c0 29 10 53 30 73s44 30 73 30v0c29 0 53 -10 74 -30c20 -20 30 -44 30 -73v0c0 -16 -3 -31 -10 -45s-17 -26 -30 -36v0zM334 800c-11 0 -21 -4 -30 -13
s-13 -19 -13 -31v0c0 -12 4 -22 13 -31s19 -13 30 -13v0c12 0 22 4 31 13s13 19 13 31v0c0 12 -4 22 -13 31s-19 13 -31 13v0zM209 277h251l-95 258l-29 77h-4l-28 -77z" />
    <glyph glyph-name="AE" unicode="&#xc6;" horiz-adv-x="960" 
d="M7 0l432 716h464v-81h-329v-237h297v-80h-297v-237h329v-81h-414v197h-264l-118 -197h-100zM272 277h217v358h-4l-29 -50z" />
    <glyph glyph-name="Ccedilla" unicode="&#xc7;" horiz-adv-x="741" 
d="M699 112c-33 -39 -73 -69 -120 -92s-99 -35 -156 -36v0l-15 -33c12 2 20 3 23 3v0c25 0 47 -9 65 -27c17 -18 26 -41 26 -68v0c0 -27 -10 -49 -29 -68s-43 -28 -72 -28v0c-21 0 -40 6 -57 19s-30 29 -37 48v0l50 22c3 -10 9 -18 17 -25c7 -7 16 -11 27 -11v0
c13 0 24 4 32 13c8 8 12 18 12 30v0c0 13 -4 23 -12 32s-19 13 -32 13v0c-14 0 -26 -6 -35 -17v0l-44 20l30 79c-63 7 -119 27 -168 62c-50 34 -89 78 -117 132s-42 113 -42 178v0c0 70 16 134 49 191c32 57 76 101 133 134s120 49 189 49v0c53 0 102 -10 147 -30
c44 -21 82 -50 115 -87v0l-61 -59c-27 33 -57 57 -89 72c-33 15 -70 23 -112 23v0c-52 0 -100 -12 -143 -36c-43 -25 -78 -59 -103 -103c-26 -45 -39 -96 -39 -154v0c0 -58 13 -109 39 -153c25 -45 60 -79 103 -103c43 -25 91 -37 143 -37v0c87 0 160 36 221 107v0z" />
    <glyph glyph-name="Egrave" unicode="&#xc8;" horiz-adv-x="551" 
d="M80 0v716h414v-81h-330v-237h298v-80h-298v-237h330v-81h-414zM250 773l-70 127h93l52 -127h-75z" />
    <glyph glyph-name="Eacute" unicode="&#xc9;" horiz-adv-x="551" 
d="M80 0v716h414v-81h-330v-237h298v-80h-298v-237h330v-81h-414zM250 773l52 127h93l-71 -127h-74z" />
    <glyph glyph-name="Ecircumflex" unicode="&#xca;" horiz-adv-x="551" 
d="M80 0v716h414v-81h-330v-237h298v-80h-298v-237h330v-81h-414zM148 779v5l102 116h75l102 -116v-5h-82l-54 63h-8l-53 -63h-82z" />
    <glyph glyph-name="Edieresis" unicode="&#xcb;" horiz-adv-x="551" 
d="M80 0v716h414v-81h-330v-237h298v-80h-298v-237h330v-81h-414zM205 789c-15 0 -27 6 -38 17s-16 23 -16 37v0c0 15 5 28 16 39c11 10 23 15 38 15v0c15 0 28 -5 38 -15c10 -11 15 -24 15 -39v0c0 -15 -5 -27 -15 -38s-23 -16 -38 -16v0zM369 789c-14 0 -26 6 -37 17
s-17 23 -17 37v0c0 15 5 28 16 39c11 10 23 15 38 15v0c15 0 28 -5 39 -15c10 -11 15 -24 15 -39v0c0 -15 -5 -27 -15 -38c-11 -11 -24 -16 -39 -16v0z" />
    <glyph glyph-name="Igrave" unicode="&#xcc;" horiz-adv-x="244" 
d="M80 0v716h84v-716h-84zM85 773l-70 127h93l52 -127h-75z" />
    <glyph glyph-name="Iacute" unicode="&#xcd;" horiz-adv-x="244" 
d="M80 0v716h84v-716h-84zM85 773l52 127h93l-71 -127h-74z" />
    <glyph glyph-name="Icircumflex" unicode="&#xce;" horiz-adv-x="244" 
d="M80 0v716h84v-716h-84zM-17 779v5l102 116h75l102 -116v-5h-82l-54 63h-8l-53 -63h-82z" />
    <glyph glyph-name="Idieresis" unicode="&#xcf;" horiz-adv-x="244" 
d="M56 790c-15 0 -27 5 -38 16s-16 23 -16 38v0c0 15 5 28 16 39c11 10 23 15 38 15v0c15 0 28 -5 38 -15c10 -11 15 -24 15 -39v0c0 -15 -5 -27 -15 -38s-23 -16 -38 -16v0zM189 790c-15 0 -27 5 -38 16s-16 23 -16 38v0c0 15 5 28 16 39c11 10 23 15 38 15v0
c15 0 28 -5 38 -15c10 -11 15 -24 15 -39v0c0 -15 -5 -27 -15 -38s-23 -16 -38 -16v0zM80 0v716h84v-716h-84z" />
    <glyph glyph-name="Eth" unicode="&#xd0;" horiz-adv-x="758" 
d="M135 0v322h-76v70h76v324h216c73 0 137 -15 192 -45c55 -31 97 -73 126 -127s44 -116 44 -186v0c0 -70 -15 -132 -44 -186s-71 -96 -126 -126c-55 -31 -119 -46 -192 -46v0h-216zM219 81h132c85 0 152 24 202 73c49 49 74 117 74 204v0c0 87 -25 155 -74 204
c-50 49 -117 73 -202 73v0h-132v-243h204v-70h-204v-241z" />
    <glyph glyph-name="Ntilde" unicode="&#xd1;" horiz-adv-x="708" 
d="M80 0v716h104l359 -570h4l-4 138v432h85v-716h-88l-376 597h-4l4 -138v-459h-84zM422 780c-12 0 -24 3 -35 8c-12 5 -26 12 -43 21v0c-19 12 -33 18 -40 18v0c-22 0 -34 -12 -36 -37v0h-70c0 25 5 47 16 64s24 29 41 38c17 8 33 12 50 12v0c21 0 47 -10 80 -30v0
c20 -11 33 -17 39 -17v0c22 0 34 12 36 37v0h70c0 -37 -11 -65 -33 -84c-23 -20 -48 -30 -75 -30v0z" />
    <glyph glyph-name="Ograve" unicode="&#xd2;" horiz-adv-x="825" 
d="M412 -16c-69 0 -131 17 -187 50s-100 79 -132 136s-48 119 -48 188v0c0 68 16 131 48 188s76 103 132 136s118 50 187 50v0c69 0 131 -17 187 -50s100 -79 133 -136c32 -57 48 -120 48 -188v0c0 -69 -16 -131 -48 -188s-76 -103 -132 -136c-57 -33 -119 -50 -188 -50v0z
M412 65c51 0 99 13 142 38s77 59 102 104c25 44 37 94 37 151v0c0 57 -12 107 -37 152c-25 44 -59 79 -102 104s-91 37 -142 37v0c-51 0 -98 -12 -141 -37s-77 -60 -102 -105s-38 -95 -38 -151v0c0 -56 13 -106 38 -151s59 -79 102 -104s90 -38 141 -38v0zM375 773l-70 127
h93l52 -127h-75z" />
    <glyph glyph-name="Oacute" unicode="&#xd3;" horiz-adv-x="825" 
d="M412 -16c-69 0 -131 17 -187 50s-100 79 -132 136s-48 119 -48 188v0c0 68 16 131 48 188s76 103 132 136s118 50 187 50v0c69 0 131 -17 187 -50s100 -79 133 -136c32 -57 48 -120 48 -188v0c0 -69 -16 -131 -48 -188s-76 -103 -132 -136c-57 -33 -119 -50 -188 -50v0z
M412 65c51 0 99 13 142 38s77 59 102 104c25 44 37 94 37 151v0c0 57 -12 107 -37 152c-25 44 -59 79 -102 104s-91 37 -142 37v0c-51 0 -98 -12 -141 -37s-77 -60 -102 -105s-38 -95 -38 -151v0c0 -56 13 -106 38 -151s59 -79 102 -104s90 -38 141 -38v0zM375 773l52 127
h93l-71 -127h-74z" />
    <glyph glyph-name="Ocircumflex" unicode="&#xd4;" horiz-adv-x="825" 
d="M412 -16c-69 0 -131 17 -187 50s-100 79 -132 136s-48 119 -48 188v0c0 68 16 131 48 188s76 103 132 136s118 50 187 50v0c69 0 131 -17 187 -50s100 -79 133 -136c32 -57 48 -120 48 -188v0c0 -69 -16 -131 -48 -188s-76 -103 -132 -136c-57 -33 -119 -50 -188 -50v0z
M412 65c51 0 99 13 142 38s77 59 102 104c25 44 37 94 37 151v0c0 57 -12 107 -37 152c-25 44 -59 79 -102 104s-91 37 -142 37v0c-51 0 -98 -12 -141 -37s-77 -60 -102 -105s-38 -95 -38 -151v0c0 -56 13 -106 38 -151s59 -79 102 -104s90 -38 141 -38v0zM273 779v5
l102 116h75l102 -116v-5h-82l-54 63h-8l-53 -63h-82z" />
    <glyph glyph-name="Otilde" unicode="&#xd5;" horiz-adv-x="825" 
d="M412 -16c-69 0 -131 17 -187 50s-100 79 -132 136s-48 119 -48 188v0c0 68 16 131 48 188s76 103 132 136s118 50 187 50v0c69 0 131 -17 187 -50s100 -79 133 -136c32 -57 48 -120 48 -188v0c0 -69 -16 -131 -48 -188s-76 -103 -132 -136c-57 -33 -119 -50 -188 -50v0z
M412 65c51 0 99 13 142 38s77 59 102 104c25 44 37 94 37 151v0c0 57 -12 107 -37 152c-25 44 -59 79 -102 104s-91 37 -142 37v0c-51 0 -98 -12 -141 -37s-77 -60 -102 -105s-38 -95 -38 -151v0c0 -56 13 -106 38 -151s59 -79 102 -104s90 -38 141 -38v0zM470 780
c-12 0 -24 3 -35 8c-12 5 -26 12 -43 21v0c-19 12 -33 18 -40 18v0c-22 0 -34 -12 -36 -37v0h-70c0 25 5 47 16 64s24 29 41 38c17 8 33 12 50 12v0c21 0 47 -10 80 -30v0c20 -11 33 -17 39 -17v0c22 0 34 12 36 37v0h70c0 -37 -11 -65 -33 -84c-23 -20 -48 -30 -75 -30v0z
" />
    <glyph glyph-name="Odieresis" unicode="&#xd6;" horiz-adv-x="825" 
d="M412 -16c-69 0 -131 17 -187 50s-100 79 -132 136s-48 119 -48 188v0c0 68 16 131 48 188s76 103 132 136s118 50 187 50v0c69 0 131 -17 187 -50s100 -79 133 -136c32 -57 48 -120 48 -188v0c0 -69 -16 -131 -48 -188s-76 -103 -132 -136c-57 -33 -119 -50 -188 -50v0z
M412 65c51 0 99 13 142 38s77 59 102 104c25 44 37 94 37 151v0c0 57 -12 107 -37 152c-25 44 -59 79 -102 104s-91 37 -142 37v0c-51 0 -98 -12 -141 -37s-77 -60 -102 -105s-38 -95 -38 -151v0c0 -56 13 -106 38 -151s59 -79 102 -104s90 -38 141 -38v0zM330 789
c-15 0 -27 6 -38 17s-16 23 -16 37v0c0 15 5 28 16 39c11 10 23 15 38 15v0c15 0 28 -5 38 -15c10 -11 15 -24 15 -39v0c0 -15 -5 -27 -15 -38s-23 -16 -38 -16v0zM494 789c-14 0 -26 6 -37 17s-17 23 -17 37v0c0 15 5 28 16 39c11 10 23 15 38 15v0c15 0 28 -5 39 -15
c10 -11 15 -24 15 -39v0c0 -15 -5 -27 -15 -38c-11 -11 -24 -16 -39 -16v0z" />
    <glyph glyph-name="multiply" unicode="&#xd7;" horiz-adv-x="546" 
d="M113 69l-47 47l159 155l-159 155l47 47l160 -156l160 156l47 -47l-160 -155l160 -155l-47 -47l-160 156z" />
    <glyph glyph-name="Oslash" unicode="&#xd8;" horiz-adv-x="825" 
d="M639 655c44 -35 79 -78 104 -129c25 -52 37 -108 37 -168v0c0 -69 -16 -131 -48 -188s-76 -103 -132 -136c-57 -33 -119 -50 -188 -50v0c-61 0 -116 13 -167 39v0l-37 -59l-59 37l37 59c-44 35 -78 78 -103 130s-38 108 -38 168v0c0 68 16 131 48 188s76 103 132 136
s118 50 187 50v0c61 0 117 -13 168 -40v0l38 61l58 -38zM131 358c0 -47 9 -89 27 -128c17 -39 41 -72 72 -99v0l307 492c-39 19 -81 28 -125 28v0c-51 0 -98 -12 -141 -37s-77 -60 -102 -105s-38 -95 -38 -151v0zM412 65c51 0 99 13 142 38s77 59 102 104
c25 44 37 94 37 151v0c0 47 -9 89 -26 128s-41 71 -72 98v0l-307 -491c39 -19 81 -28 124 -28v0z" />
    <glyph glyph-name="Ugrave" unicode="&#xd9;" horiz-adv-x="652" 
d="M330 -16c-51 0 -97 12 -137 36c-40 23 -71 56 -93 99c-22 42 -33 91 -33 146v0v451h85v-455c0 -58 15 -105 46 -141c31 -37 75 -55 132 -55v0c57 0 102 18 133 55c31 36 46 83 46 141v0v455h84v-451c0 -55 -10 -104 -31 -147s-52 -76 -91 -99c-40 -23 -87 -35 -141 -35v0
zM293 773l-70 127h93l52 -127h-75z" />
    <glyph glyph-name="Uacute" unicode="&#xda;" horiz-adv-x="652" 
d="M330 -16c-51 0 -97 12 -137 36c-40 23 -71 56 -93 99c-22 42 -33 91 -33 146v0v451h85v-455c0 -58 15 -105 46 -141c31 -37 75 -55 132 -55v0c57 0 102 18 133 55c31 36 46 83 46 141v0v455h84v-451c0 -55 -10 -104 -31 -147s-52 -76 -91 -99c-40 -23 -87 -35 -141 -35v0
zM293 773l52 127h93l-71 -127h-74z" />
    <glyph glyph-name="Ucircumflex" unicode="&#xdb;" horiz-adv-x="652" 
d="M330 -16c-51 0 -97 12 -137 36c-40 23 -71 56 -93 99c-22 42 -33 91 -33 146v0v451h85v-455c0 -58 15 -105 46 -141c31 -37 75 -55 132 -55v0c57 0 102 18 133 55c31 36 46 83 46 141v0v455h84v-451c0 -55 -10 -104 -31 -147s-52 -76 -91 -99c-40 -23 -87 -35 -141 -35v0
zM191 779v5l102 116h75l102 -116v-5h-82l-54 63h-8l-53 -63h-82z" />
    <glyph glyph-name="Udieresis" unicode="&#xdc;" horiz-adv-x="652" 
d="M330 -16c-51 0 -97 12 -137 36c-40 23 -71 56 -93 99c-22 42 -33 91 -33 146v0v451h85v-455c0 -58 15 -105 46 -141c31 -37 75 -55 132 -55v0c57 0 102 18 133 55c31 36 46 83 46 141v0v455h84v-451c0 -55 -10 -104 -31 -147s-52 -76 -91 -99c-40 -23 -87 -35 -141 -35v0
zM248 789c-15 0 -27 6 -38 17s-16 23 -16 37v0c0 15 5 28 16 39c11 10 23 15 38 15v0c15 0 28 -5 38 -15c10 -11 15 -24 15 -39v0c0 -15 -5 -27 -15 -38s-23 -16 -38 -16v0zM412 789c-14 0 -26 6 -37 17s-17 23 -17 37v0c0 15 5 28 16 39c11 10 23 15 38 15v0
c15 0 28 -5 39 -15c10 -11 15 -24 15 -39v0c0 -15 -5 -27 -15 -38c-11 -11 -24 -16 -39 -16v0z" />
    <glyph glyph-name="Yacute" unicode="&#xdd;" horiz-adv-x="595" 
d="M257 0v331l-242 385h99l183 -300h4l180 300h99l-238 -385v-331h-85zM260 773l52 127h93l-71 -127h-74z" />
    <glyph glyph-name="Thorn" unicode="&#xde;" horiz-adv-x="576" 
d="M80 0v716h84v-123h157c40 0 77 -9 111 -27s61 -43 82 -75c20 -33 30 -69 30 -110v0c0 -41 -10 -77 -30 -109c-21 -33 -48 -58 -82 -76s-71 -27 -111 -27v0h-157v-169h-84zM164 250h159c27 0 50 6 71 19c20 13 36 29 47 49s17 41 17 63v0c0 22 -6 43 -17 63s-27 36 -47 49
c-21 13 -44 19 -71 19v0h-159v-262z" />
    <glyph glyph-name="germandbls" unicode="&#xdf;" horiz-adv-x="571" 
d="M304 -8c-20 0 -38 2 -55 5v0v80c19 -3 37 -4 55 -4v0c40 0 74 13 101 39s40 58 40 97v0c0 25 -7 47 -20 68c-14 21 -32 37 -55 49s-48 18 -74 18v0h-39v78h27c40 0 72 11 95 33c23 21 34 50 34 85v0c0 33 -12 59 -35 80c-24 21 -53 31 -87 31v0c-39 0 -70 -12 -92 -36
c-23 -25 -34 -58 -34 -99v0v-516h-86v516c0 41 8 78 25 111s41 58 73 77s70 28 114 28v0c40 0 76 -8 108 -25c31 -17 56 -39 74 -68c17 -29 26 -62 26 -99v0c0 -71 -30 -121 -89 -151v0v-4c35 -14 64 -36 87 -66s34 -67 34 -110v0c0 -41 -10 -78 -29 -111s-46 -59 -81 -78
s-74 -28 -117 -28v0z" />
    <glyph glyph-name="agrave" unicode="&#xe0;" horiz-adv-x="531" 
d="M226 -16c-37 0 -71 7 -100 22s-52 35 -68 61c-16 25 -24 54 -24 87v0c0 54 20 96 61 127c41 30 92 45 154 45v0c31 0 59 -3 86 -10c26 -7 46 -14 60 -23v0v31c0 38 -13 69 -40 92s-60 34 -101 34v0c-29 0 -55 -6 -79 -18c-24 -13 -43 -30 -57 -52v0l-64 48
c20 31 48 55 83 72s73 26 116 26v0c69 0 124 -18 164 -54c39 -37 59 -86 59 -149v0v-323h-81v73h-4c-15 -25 -37 -46 -66 -63s-62 -26 -99 -26v0zM234 59c29 0 55 7 80 22s44 34 59 59s22 52 22 81v0c-16 11 -36 19 -59 26s-48 10 -74 10v0c-47 0 -82 -10 -105 -29
c-24 -19 -36 -44 -36 -75v0c0 -28 11 -51 32 -68s48 -26 81 -26v0zM222 609l-70 127h93l52 -127h-75z" />
    <glyph glyph-name="aacute" unicode="&#xe1;" horiz-adv-x="531" 
d="M226 -16c-37 0 -71 7 -100 22s-52 35 -68 61c-16 25 -24 54 -24 87v0c0 54 20 96 61 127c41 30 92 45 154 45v0c31 0 59 -3 86 -10c26 -7 46 -14 60 -23v0v31c0 38 -13 69 -40 92s-60 34 -101 34v0c-29 0 -55 -6 -79 -18c-24 -13 -43 -30 -57 -52v0l-64 48
c20 31 48 55 83 72s73 26 116 26v0c69 0 124 -18 164 -54c39 -37 59 -86 59 -149v0v-323h-81v73h-4c-15 -25 -37 -46 -66 -63s-62 -26 -99 -26v0zM234 59c29 0 55 7 80 22s44 34 59 59s22 52 22 81v0c-16 11 -36 19 -59 26s-48 10 -74 10v0c-47 0 -82 -10 -105 -29
c-24 -19 -36 -44 -36 -75v0c0 -28 11 -51 32 -68s48 -26 81 -26v0zM222 609l52 127h93l-71 -127h-74z" />
    <glyph glyph-name="acircumflex" unicode="&#xe2;" horiz-adv-x="531" 
d="M226 -16c-37 0 -71 7 -100 22s-52 35 -68 61c-16 25 -24 54 -24 87v0c0 54 20 96 61 127c41 30 92 45 154 45v0c31 0 59 -3 86 -10c26 -7 46 -14 60 -23v0v31c0 38 -13 69 -40 92s-60 34 -101 34v0c-29 0 -55 -6 -79 -18c-24 -13 -43 -30 -57 -52v0l-64 48
c20 31 48 55 83 72s73 26 116 26v0c69 0 124 -18 164 -54c39 -37 59 -86 59 -149v0v-323h-81v73h-4c-15 -25 -37 -46 -66 -63s-62 -26 -99 -26v0zM234 59c29 0 55 7 80 22s44 34 59 59s22 52 22 81v0c-16 11 -36 19 -59 26s-48 10 -74 10v0c-47 0 -82 -10 -105 -29
c-24 -19 -36 -44 -36 -75v0c0 -28 11 -51 32 -68s48 -26 81 -26v0zM120 614v5l102 117h75l102 -117v-5h-82l-54 64h-8l-53 -64h-82z" />
    <glyph glyph-name="atilde" unicode="&#xe3;" horiz-adv-x="531" 
d="M226 -16c-37 0 -71 7 -100 22s-52 35 -68 61c-16 25 -24 54 -24 87v0c0 54 20 96 61 127c41 30 92 45 154 45v0c31 0 59 -3 86 -10c26 -7 46 -14 60 -23v0v31c0 38 -13 69 -40 92s-60 34 -101 34v0c-29 0 -55 -6 -79 -18c-24 -13 -43 -30 -57 -52v0l-64 48
c20 31 48 55 83 72s73 26 116 26v0c69 0 124 -18 164 -54c39 -37 59 -86 59 -149v0v-323h-81v73h-4c-15 -25 -37 -46 -66 -63s-62 -26 -99 -26v0zM234 59c29 0 55 7 80 22s44 34 59 59s22 52 22 81v0c-16 11 -36 19 -59 26s-48 10 -74 10v0c-47 0 -82 -10 -105 -29
c-24 -19 -36 -44 -36 -75v0c0 -28 11 -51 32 -68s48 -26 81 -26v0zM317 616c-12 0 -24 3 -35 8c-12 5 -26 12 -43 21v0c-19 12 -33 18 -40 18v0c-22 0 -34 -12 -36 -37v0h-70c0 37 11 65 33 84s47 29 74 29v0c21 0 47 -10 80 -30v0c20 -11 33 -17 39 -17v0c22 0 34 12 36 37
v0h70c0 -37 -11 -65 -33 -84s-47 -29 -75 -29v0z" />
    <glyph glyph-name="adieresis" unicode="&#xe4;" horiz-adv-x="531" 
d="M226 -16c-37 0 -71 7 -100 22s-52 35 -68 61c-16 25 -24 54 -24 87v0c0 54 20 96 61 127c41 30 92 45 154 45v0c31 0 59 -3 86 -10c26 -7 46 -14 60 -23v0v31c0 38 -13 69 -40 92s-60 34 -101 34v0c-29 0 -55 -6 -79 -18c-24 -13 -43 -30 -57 -52v0l-64 48
c20 31 48 55 83 72s73 26 116 26v0c69 0 124 -18 164 -54c39 -37 59 -86 59 -149v0v-323h-81v73h-4c-15 -25 -37 -46 -66 -63s-62 -26 -99 -26v0zM234 59c29 0 55 7 80 22s44 34 59 59s22 52 22 81v0c-16 11 -36 19 -59 26s-48 10 -74 10v0c-47 0 -82 -10 -105 -29
c-24 -19 -36 -44 -36 -75v0c0 -28 11 -51 32 -68s48 -26 81 -26v0zM177 625c-15 0 -27 5 -38 16s-16 23 -16 38v0c0 15 5 28 16 38s23 15 38 15v0c15 0 28 -5 38 -15s15 -23 15 -38v0c0 -15 -5 -27 -15 -38s-23 -16 -38 -16v0zM341 625c-14 0 -26 5 -37 16s-17 23 -17 38v0
c0 15 5 28 16 38s23 15 38 15v0c15 0 28 -5 39 -15c10 -10 15 -23 15 -38v0c0 -15 -5 -27 -15 -38c-11 -11 -24 -16 -39 -16v0z" />
    <glyph glyph-name="aring" unicode="&#xe5;" horiz-adv-x="531" 
d="M226 -16c-37 0 -71 7 -100 22s-52 35 -68 61c-16 25 -24 54 -24 87v0c0 54 20 96 61 127c41 30 92 45 154 45v0c31 0 59 -3 86 -10c26 -7 46 -14 60 -23v0v31c0 38 -13 69 -40 92s-60 34 -101 34v0c-29 0 -55 -6 -79 -18c-24 -13 -43 -30 -57 -52v0l-64 48
c20 31 48 55 83 72s73 26 116 26v0c69 0 124 -18 164 -54c39 -37 59 -86 59 -149v0v-323h-81v73h-4c-15 -25 -37 -46 -66 -63s-62 -26 -99 -26v0zM234 59c29 0 55 7 80 22s44 34 59 59s22 52 22 81v0c-16 11 -36 19 -59 26s-48 10 -74 10v0c-47 0 -82 -10 -105 -29
c-24 -19 -36 -44 -36 -75v0c0 -28 11 -51 32 -68s48 -26 81 -26v0zM259 588c-29 0 -53 10 -73 31c-20 20 -30 44 -30 73v0c0 29 10 53 30 73s44 30 73 30v0c29 0 53 -10 74 -30c20 -20 30 -44 30 -73v0c0 -29 -10 -53 -30 -73c-21 -21 -45 -31 -74 -31v0zM259 644
c13 0 25 5 34 14s13 21 13 34v0c0 13 -5 25 -14 34s-20 13 -33 13v0c-13 0 -24 -5 -33 -14s-14 -20 -14 -33v0c0 -13 5 -25 14 -34s20 -14 33 -14v0z" />
    <glyph glyph-name="ae" unicode="&#xe6;" horiz-adv-x="919" 
d="M226 -16c-37 0 -71 7 -100 22s-52 35 -68 61c-16 25 -24 54 -24 87v0c0 54 20 96 61 127c41 30 92 45 154 45v0c31 0 59 -3 86 -10c26 -7 46 -14 60 -23v0v31c0 38 -13 69 -38 92s-58 34 -98 34v0c-27 0 -51 -6 -72 -19s-37 -31 -49 -54v0l-72 36c15 34 40 61 75 82
c34 21 73 31 116 31v0c46 0 85 -9 118 -26c33 -18 58 -43 75 -75v0c21 31 47 56 80 74c32 17 68 26 109 26v0c50 0 93 -11 130 -33s65 -53 85 -92c19 -39 29 -84 29 -135v0c0 -8 -1 -17 -2 -26v0h-404c2 -39 11 -71 28 -98s38 -47 64 -60c25 -13 52 -20 80 -20v0
c67 0 117 31 151 92v0l72 -35c-21 -41 -51 -73 -89 -97c-38 -25 -84 -37 -137 -37v0c-49 0 -92 12 -129 35s-66 54 -85 93v0c-48 -85 -117 -128 -206 -128v0zM482 309h311c-1 21 -7 43 -18 64s-27 39 -50 54c-23 14 -51 21 -86 21v0c-41 0 -75 -13 -102 -38
c-28 -25 -46 -59 -55 -101v0zM234 59c29 0 55 7 80 22s44 34 59 59s22 52 22 81v0c-15 10 -34 19 -57 26c-24 7 -49 10 -76 10v0c-47 0 -82 -10 -105 -29c-24 -19 -36 -44 -36 -75v0c0 -28 11 -51 32 -68s48 -26 81 -26v0z" />
    <glyph glyph-name="ccedilla" unicode="&#xe7;" horiz-adv-x="546" 
d="M517 125c-17 -41 -45 -75 -82 -101s-83 -39 -137 -40v0l-15 -33c12 2 20 3 23 3v0c25 0 47 -9 65 -27c17 -18 26 -41 26 -68v0c0 -27 -10 -49 -29 -68s-43 -28 -72 -28v0c-21 0 -40 6 -57 19s-30 29 -37 48v0l50 22c3 -10 9 -18 17 -25c7 -7 16 -11 27 -11v0
c13 0 24 4 32 13c8 8 12 18 12 30v0c0 13 -4 23 -12 32s-19 13 -32 13v0c-14 0 -26 -6 -35 -17v0l-44 20l30 81c-41 7 -78 22 -110 47s-57 56 -74 94c-18 38 -27 80 -27 126v0c0 51 11 98 33 139s53 74 92 97s84 35 133 35v0c55 0 102 -13 140 -38c37 -26 64 -60 80 -103v0
l-77 -32c-13 31 -31 55 -56 72c-25 16 -56 24 -91 24v0c-30 0 -58 -8 -84 -24c-26 -17 -47 -40 -62 -69c-16 -29 -24 -63 -24 -101v0c0 -38 8 -72 24 -101c15 -29 36 -52 62 -68c26 -17 54 -25 84 -25v0c36 0 67 8 93 25s45 40 58 71v0z" />
    <glyph glyph-name="egrave" unicode="&#xe8;" horiz-adv-x="563" 
d="M448 23c-44 -21 -88 -29 -133 -24s-86 21 -123 49s-66 66 -88 112c0 0 21 -45 0 0s-31 90 -30 136s13 88 36 127c24 38 58 67 103 88c0 0 -46 -21 0 0c45 21 89 29 132 25c42 -5 81 -21 115 -48c35 -28 63 -64 84 -110c0 0 -4 9 0 0s7 -18 8 -25v0l-365 -171
c18 -34 41 -59 67 -76c26 -18 54 -27 83 -28s56 4 81 16c0 0 -59 -28 0 0c60 28 92 77 98 147v0l80 -1c-2 -47 -15 -89 -39 -127c-24 -37 -60 -68 -109 -90c0 0 44 20 0 0zM162 248l282 132c-10 18 -25 35 -43 50c-19 15 -42 24 -69 28c-27 3 -56 -2 -88 -17c0 0 37 17 0 0
c-36 -17 -61 -43 -75 -78c-15 -35 -17 -73 -7 -115v0zM145 571l-117 86l84 39l101 -93z" />
    <glyph glyph-name="eacute" unicode="&#xe9;" horiz-adv-x="563" 
d="M448 23c-44 -21 -89 -29 -134 -24s-86 21 -122 49c-37 28 -67 66 -88 112c0 0 20 -44 0 0c-21 45 -31 90 -30 136c1 47 13 89 37 127c23 38 57 67 102 88c0 0 -46 -21 0 0c45 21 89 29 132 25c42 -5 81 -21 115 -49c35 -27 63 -64 84 -110c0 0 -4 10 0 0
c4 -9 7 -17 8 -24v0l-365 -170c18 -35 40 -60 67 -77c26 -18 54 -27 83 -28s56 4 81 16c0 0 -59 -28 0 0c59 27 92 76 98 147v0l80 -1c-2 -47 -16 -89 -40 -127s-60 -68 -108 -90c0 0 44 20 0 0zM162 248l282 131c-10 19 -25 36 -43 51c-19 15 -42 24 -69 27
c-27 4 -56 -1 -88 -16c0 0 37 17 0 0c-36 -17 -61 -43 -75 -78c-15 -35 -17 -73 -7 -115v0zM145 571l-6 137l84 40l-11 -146z" />
    <glyph glyph-name="ecircumflex" unicode="&#xea;" horiz-adv-x="563" 
d="M448 23c-44 -21 -88 -29 -133 -24s-86 21 -123 49s-66 66 -88 112c0 0 21 -45 0 0s-31 90 -30 136s13 88 36 127c24 38 58 67 103 88c0 0 -46 -21 0 0c45 21 89 29 132 25c42 -5 81 -21 115 -48c35 -28 63 -64 84 -110c0 0 -4 9 0 0s7 -18 8 -25v0l-365 -171
c18 -34 41 -59 67 -76c26 -18 54 -27 83 -28s56 4 81 16c0 0 -59 -28 0 0c60 28 92 77 98 147v0l80 -1c-2 -47 -15 -89 -39 -127c-24 -37 -60 -68 -109 -90c0 0 44 21 0 0zM162 248l282 132c-10 18 -25 35 -43 50c-19 15 -42 24 -69 28c-27 3 -56 -2 -88 -17c0 0 37 17 0 0
c-36 -17 -61 -43 -75 -78c-15 -35 -17 -73 -7 -115v0zM50 532l-2 5l43 149l68 32l142 -63l2 -5l-74 -34l-76 35l-7 -4l-21 -80z" />
    <glyph glyph-name="edieresis" unicode="&#xeb;" horiz-adv-x="563" 
d="M447 23c-44 -21 -88 -29 -133 -24s-86 21 -123 49s-66 65 -88 112c0 0 21 -45 0 0s-31 90 -30 136s13 88 37 126c23 38 57 68 102 89c0 0 -46 -21 0 0c45 21 89 29 132 24c42 -4 81 -20 115 -48c35 -27 63 -64 84 -109c0 0 -4 9 0 0c5 -9 7 -18 9 -25v0l-366 -171
c19 -34 41 -60 67 -77c27 -17 54 -26 83 -27s56 4 82 16c0 0 -60 -28 0 0c59 27 91 76 97 147v0l81 -1c-3 -47 -16 -89 -40 -127s-60 -68 -109 -90c0 0 44 20 0 0zM161 248l282 131c-10 19 -25 36 -43 51c-19 15 -42 24 -69 27c-27 4 -56 -2 -88 -16c0 0 37 17 0 0
c-36 -17 -61 -43 -75 -78s-17 -73 -7 -115v0zM97 566c-14 -6 -27 -6 -42 -1c-14 5 -24 14 -30 27c0 0 6 -13 0 0c-7 14 -7 28 -2 42c6 13 15 23 28 29c0 0 -14 -6 0 0c14 7 28 8 41 3s23 -14 30 -28c0 0 -6 13 0 0c6 -14 7 -27 2 -41c-4 -14 -14 -24 -27 -31c0 0 13 7 0 0z
M245 636c-13 -6 -26 -7 -41 -2c-14 5 -24 14 -31 28c0 0 7 -14 0 0c-6 14 -7 27 -1 41c5 14 15 23 28 30c0 0 -14 -7 0 0c14 6 28 7 41 2c14 -4 24 -14 30 -28c0 0 -6 14 0 0c6 -13 7 -26 2 -41c-5 -14 -14 -24 -28 -30c0 0 13 6 0 0z" />
    <glyph glyph-name="igrave" unicode="&#xec;" horiz-adv-x="226" 
d="M71 0v510h84v-510h-84zM76 609l-70 127h93l52 -127h-75z" />
    <glyph glyph-name="iacute" unicode="&#xed;" horiz-adv-x="226" 
d="M71 0v510h84v-510h-84zM76 609l52 127h93l-71 -127h-74z" />
    <glyph glyph-name="icircumflex" unicode="&#xee;" horiz-adv-x="226" 
d="M71 0v510h84v-510h-84zM-26 614v5l102 117h75l102 -117v-5h-82l-54 64h-8l-53 -64h-82z" />
    <glyph glyph-name="idieresis" unicode="&#xef;" horiz-adv-x="226" 
d="M47 625c-15 0 -27 5 -38 16s-16 23 -16 38v0c0 15 5 28 16 38s23 15 38 15v0c15 0 28 -5 38 -15s15 -23 15 -38v0c0 -15 -5 -27 -15 -38s-23 -16 -38 -16v0zM180 625c-15 0 -27 5 -38 16s-16 23 -16 38v0c0 15 5 28 16 38s23 15 38 15v0c15 0 28 -5 38 -15s15 -23 15 -38
v0c0 -15 -5 -27 -15 -38s-23 -16 -38 -16v0zM71 0v510h84v-510h-84z" />
    <glyph glyph-name="eth" unicode="&#xf0;" horiz-adv-x="588" 
d="M293 -16c-45 0 -86 12 -124 35s-68 55 -90 94s-33 81 -33 127v0c0 47 11 90 34 129c22 38 51 68 88 90c37 21 76 32 118 32v0c31 0 59 -6 83 -17s42 -24 55 -39v0l4 3c-11 28 -24 52 -40 73s-36 40 -59 58v0l-128 -56l-26 62l89 39c-38 21 -77 35 -116 44v0l28 72
c67 -19 124 -46 171 -79v0l101 45l26 -62l-68 -30c45 -43 79 -93 102 -152s34 -123 34 -192v0c0 -54 -10 -102 -31 -143c-21 -42 -51 -75 -88 -98c-38 -23 -81 -35 -130 -35v0zM293 65c30 0 57 7 82 22s44 35 59 62c14 27 21 57 21 90v0c0 33 -7 63 -21 90
c-15 26 -34 47 -58 62c-25 15 -52 22 -81 22v0c-30 0 -57 -7 -82 -22s-45 -35 -59 -62c-15 -27 -22 -57 -22 -90v0c0 -33 7 -63 22 -90c14 -27 33 -47 58 -62s52 -22 81 -22v0z" />
    <glyph glyph-name="ntilde" unicode="&#xf1;" 
d="M63 0v510h81v-75h4c14 25 36 47 67 65c31 17 63 26 98 26v0c61 0 108 -18 141 -53c32 -36 48 -85 48 -146v0v-327h-85v314c0 47 -11 82 -34 103s-54 32 -93 32v0c-27 0 -52 -8 -73 -23c-22 -15 -39 -35 -51 -60s-18 -52 -18 -79v0v-287h-85zM351 616c-12 0 -24 3 -35 8
c-12 5 -26 12 -43 21v0c-19 12 -33 18 -40 18v0c-22 0 -34 -12 -36 -37v0h-70c0 37 11 65 33 84s47 29 74 29v0c21 0 47 -10 80 -30v0c20 -11 33 -17 39 -17v0c22 0 34 12 36 37v0h70c0 -37 -11 -65 -33 -84s-47 -29 -75 -29v0z" />
    <glyph glyph-name="ograve" unicode="&#xf2;" horiz-adv-x="596" 
d="M298 -16c-50 0 -95 12 -135 36s-71 57 -93 98c-23 41 -34 87 -34 137v0c0 50 11 96 34 137c22 41 53 74 93 98s85 36 135 36v0c50 0 95 -12 135 -36s71 -57 94 -98c22 -41 33 -87 33 -137v0c0 -50 -11 -96 -33 -137c-23 -41 -54 -74 -94 -98s-85 -36 -135 -36v0zM298 61
c31 0 61 8 88 24c27 15 48 38 65 67c16 29 24 64 24 103v0c0 39 -8 74 -24 103c-17 29 -38 52 -65 68c-27 15 -57 23 -88 23v0c-31 0 -61 -8 -88 -23c-27 -16 -49 -39 -65 -68c-17 -29 -25 -64 -25 -103v0c0 -39 8 -74 25 -103c16 -29 38 -52 65 -67c27 -16 57 -24 88 -24v0
zM261 609l-70 127h93l52 -127h-75z" />
    <glyph glyph-name="oacute" unicode="&#xf3;" horiz-adv-x="596" 
d="M298 -16c-50 0 -95 12 -135 36s-71 57 -93 98c-23 41 -34 87 -34 137v0c0 50 11 96 34 137c22 41 53 74 93 98s85 36 135 36v0c50 0 95 -12 135 -36s71 -57 94 -98c22 -41 33 -87 33 -137v0c0 -50 -11 -96 -33 -137c-23 -41 -54 -74 -94 -98s-85 -36 -135 -36v0zM298 61
c31 0 61 8 88 24c27 15 48 38 65 67c16 29 24 64 24 103v0c0 39 -8 74 -24 103c-17 29 -38 52 -65 68c-27 15 -57 23 -88 23v0c-31 0 -61 -8 -88 -23c-27 -16 -49 -39 -65 -68c-17 -29 -25 -64 -25 -103v0c0 -39 8 -74 25 -103c16 -29 38 -52 65 -67c27 -16 57 -24 88 -24v0
zM261 609l52 127h93l-71 -127h-74z" />
    <glyph glyph-name="ocircumflex" unicode="&#xf4;" horiz-adv-x="596" 
d="M298 -16c-50 0 -95 12 -135 36s-71 57 -93 98c-23 41 -34 87 -34 137v0c0 50 11 96 34 137c22 41 53 74 93 98s85 36 135 36v0c50 0 95 -12 135 -36s71 -57 94 -98c22 -41 33 -87 33 -137v0c0 -50 -11 -96 -33 -137c-23 -41 -54 -74 -94 -98s-85 -36 -135 -36v0zM298 61
c31 0 61 8 88 24c27 15 48 38 65 67c16 29 24 64 24 103v0c0 39 -8 74 -24 103c-17 29 -38 52 -65 68c-27 15 -57 23 -88 23v0c-31 0 -61 -8 -88 -23c-27 -16 -49 -39 -65 -68c-17 -29 -25 -64 -25 -103v0c0 -39 8 -74 25 -103c16 -29 38 -52 65 -67c27 -16 57 -24 88 -24v0
zM159 614v5l102 117h75l102 -117v-5h-82l-54 64h-8l-53 -64h-82z" />
    <glyph glyph-name="otilde" unicode="&#xf5;" horiz-adv-x="596" 
d="M298 -16c-50 0 -95 12 -135 36s-71 57 -93 98c-23 41 -34 87 -34 137v0c0 50 11 96 34 137c22 41 53 74 93 98s85 36 135 36v0c50 0 95 -12 135 -36s71 -57 94 -98c22 -41 33 -87 33 -137v0c0 -50 -11 -96 -33 -137c-23 -41 -54 -74 -94 -98s-85 -36 -135 -36v0zM298 61
c31 0 61 8 88 24c27 15 48 38 65 67c16 29 24 64 24 103v0c0 39 -8 74 -24 103c-17 29 -38 52 -65 68c-27 15 -57 23 -88 23v0c-31 0 -61 -8 -88 -23c-27 -16 -49 -39 -65 -68c-17 -29 -25 -64 -25 -103v0c0 -39 8 -74 25 -103c16 -29 38 -52 65 -67c27 -16 57 -24 88 -24v0
zM356 616c-12 0 -24 3 -35 8c-12 5 -26 12 -43 21v0c-19 12 -33 18 -40 18v0c-22 0 -34 -12 -36 -37v0h-70c0 37 11 65 33 84s47 29 74 29v0c21 0 47 -10 80 -30v0c20 -11 33 -17 39 -17v0c22 0 34 12 36 37v0h70c0 -37 -11 -65 -33 -84s-47 -29 -75 -29v0z" />
    <glyph glyph-name="odieresis" unicode="&#xf6;" horiz-adv-x="596" 
d="M298 -16c-50 0 -95 12 -135 36s-71 57 -93 98c-23 41 -34 87 -34 137v0c0 50 11 96 34 137c22 41 53 74 93 98s85 36 135 36v0c50 0 95 -12 135 -36s71 -57 94 -98c22 -41 33 -87 33 -137v0c0 -50 -11 -96 -33 -137c-23 -41 -54 -74 -94 -98s-85 -36 -135 -36v0zM298 61
c31 0 61 8 88 24c27 15 48 38 65 67c16 29 24 64 24 103v0c0 39 -8 74 -24 103c-17 29 -38 52 -65 68c-27 15 -57 23 -88 23v0c-31 0 -61 -8 -88 -23c-27 -16 -49 -39 -65 -68c-17 -29 -25 -64 -25 -103v0c0 -39 8 -74 25 -103c16 -29 38 -52 65 -67c27 -16 57 -24 88 -24v0
zM216 625c-15 0 -27 5 -38 16s-16 23 -16 38v0c0 15 5 28 16 38s23 15 38 15v0c15 0 28 -5 38 -15s15 -23 15 -38v0c0 -15 -5 -27 -15 -38s-23 -16 -38 -16v0zM380 625c-14 0 -26 5 -37 16s-17 23 -17 38v0c0 15 5 28 16 38s23 15 38 15v0c15 0 28 -5 39 -15
c10 -10 15 -23 15 -38v0c0 -15 -5 -27 -15 -38c-11 -11 -24 -16 -39 -16v0z" />
    <glyph glyph-name="divide" unicode="&#xf7;" horiz-adv-x="544" 
d="M272 395c-18 0 -33 6 -45 19c-13 12 -19 27 -19 44v0c0 18 6 33 19 46c12 12 27 18 45 18v0c18 0 33 -6 46 -18c12 -13 18 -28 18 -46v0c0 -17 -6 -32 -18 -44c-13 -13 -28 -19 -46 -19v0zM55 236v70h434v-70h-434zM272 20c-18 0 -33 6 -45 19c-13 12 -19 27 -19 45v0
c0 17 6 32 19 45c12 12 27 18 45 18v0c18 0 33 -6 46 -18c12 -13 18 -28 18 -45v0c0 -18 -6 -33 -18 -45c-13 -13 -28 -19 -46 -19v0z" />
    <glyph glyph-name="oslash" unicode="&#xf8;" horiz-adv-x="596" 
d="M467 466c29 -25 52 -56 69 -93c16 -37 24 -76 24 -118v0c0 -50 -11 -96 -33 -137c-23 -41 -54 -74 -94 -98s-85 -36 -135 -36v0c-41 0 -80 8 -115 25v0l-26 -41l-55 31l28 44c-30 25 -53 56 -69 93c-17 36 -25 76 -25 119v0c0 50 11 96 34 137c22 41 53 74 93 98
s85 36 135 36v0c43 0 81 -9 116 -26v0l27 43l54 -32zM120 255c0 -29 5 -56 14 -80s22 -45 39 -62v0l199 319c-24 11 -49 17 -74 17v0c-31 0 -61 -8 -88 -23c-27 -16 -49 -39 -65 -68c-17 -29 -25 -64 -25 -103v0zM298 61c31 0 61 8 88 24c27 15 48 38 65 67
c16 29 24 64 24 103v0c0 57 -17 104 -52 141v0l-198 -319c22 -11 46 -16 73 -16v0z" />
    <glyph glyph-name="ugrave" unicode="&#xf9;" 
d="M248 -16c-61 0 -108 18 -140 54c-33 36 -49 86 -49 151v0v321h85v-308c0 -49 11 -84 33 -107s52 -34 89 -34v0c29 0 54 8 77 23c22 15 39 35 52 60c12 25 18 51 18 78v0v288h85v-510h-81v74h-4c-14 -25 -36 -47 -67 -64s-63 -26 -98 -26v0zM241 609l-70 127h93l52 -127
h-75z" />
    <glyph glyph-name="uacute" unicode="&#xfa;" 
d="M248 -16c-61 0 -108 18 -140 54c-33 36 -49 86 -49 151v0v321h85v-308c0 -49 11 -84 33 -107s52 -34 89 -34v0c29 0 54 8 77 23c22 15 39 35 52 60c12 25 18 51 18 78v0v288h85v-510h-81v74h-4c-14 -25 -36 -47 -67 -64s-63 -26 -98 -26v0zM241 609l52 127h93l-71 -127
h-74z" />
    <glyph glyph-name="ucircumflex" unicode="&#xfb;" 
d="M248 -16c-61 0 -108 18 -140 54c-33 36 -49 86 -49 151v0v321h85v-308c0 -49 11 -84 33 -107s52 -34 89 -34v0c29 0 54 8 77 23c22 15 39 35 52 60c12 25 18 51 18 78v0v288h85v-510h-81v74h-4c-14 -25 -36 -47 -67 -64s-63 -26 -98 -26v0zM139 614v5l102 117h75
l102 -117v-5h-82l-54 64h-8l-53 -64h-82z" />
    <glyph glyph-name="udieresis" unicode="&#xfc;" 
d="M248 -16c-61 0 -108 18 -140 54c-33 36 -49 86 -49 151v0v321h85v-308c0 -49 11 -84 33 -107s52 -34 89 -34v0c29 0 54 8 77 23c22 15 39 35 52 60c12 25 18 51 18 78v0v288h85v-510h-81v74h-4c-14 -25 -36 -47 -67 -64s-63 -26 -98 -26v0zM196 625c-15 0 -27 5 -38 16
s-16 23 -16 38v0c0 15 5 28 16 38s23 15 38 15v0c15 0 28 -5 38 -15s15 -23 15 -38v0c0 -15 -5 -27 -15 -38s-23 -16 -38 -16v0zM360 625c-14 0 -26 5 -37 16s-17 23 -17 38v0c0 15 5 28 16 38s23 15 38 15v0c15 0 28 -5 39 -15c10 -10 15 -23 15 -38v0
c0 -15 -5 -27 -15 -38c-11 -11 -24 -16 -39 -16v0z" />
    <glyph glyph-name="yacute" unicode="&#xfd;" horiz-adv-x="516" 
d="M105 -216l114 248l-211 478h92l160 -379h2l154 379h92l-315 -726h-88zM221 609l52 127h93l-71 -127h-74z" />
    <glyph glyph-name="thorn" unicode="&#xfe;" horiz-adv-x="599" 
d="M60 -216v932h85v-214l-4 -68h4c16 26 39 48 70 66c31 17 65 26 104 26v0c46 0 88 -12 125 -35s66 -56 87 -97s32 -88 32 -139v0c0 -52 -11 -98 -32 -139s-50 -74 -87 -97s-79 -35 -125 -35v0c-39 0 -73 9 -104 27c-31 17 -54 39 -70 64v0h-4l4 -68v-223h-85zM310 61
c29 0 57 8 83 24s47 39 63 69c15 29 23 63 23 101v0c0 38 -8 72 -23 102c-16 29 -37 52 -63 68s-54 24 -83 24v0c-30 0 -58 -8 -83 -24c-26 -16 -47 -39 -62 -68c-16 -29 -24 -63 -24 -102v0c0 -39 8 -73 24 -102c15 -29 36 -52 62 -68c25 -16 53 -24 83 -24v0z" />
    <glyph glyph-name="ydieresis" unicode="&#xff;" horiz-adv-x="516" 
d="M105 -216l114 248l-211 478h92l160 -379h2l154 379h92l-315 -726h-88zM176 625c-15 0 -27 5 -38 16s-16 23 -16 38v0c0 15 5 28 16 38s23 15 38 15v0c15 0 28 -5 38 -15s15 -23 15 -38v0c0 -15 -5 -27 -15 -38s-23 -16 -38 -16v0zM340 625c-14 0 -26 5 -37 16
s-17 23 -17 38v0c0 15 5 28 16 38s23 15 38 15v0c15 0 28 -5 39 -15c10 -10 15 -23 15 -38v0c0 -15 -5 -27 -15 -38c-11 -11 -24 -16 -39 -16v0z" />
    <glyph glyph-name="Amacron" unicode="&#x100;" horiz-adv-x="669" 
d="M15 0l271 716h96l272 -716h-93l-72 197h-309l-72 -197h-93zM209 277h251l-95 258l-29 77h-4l-28 -77zM196 810v66h277v-66h-277z" />
    <glyph glyph-name="amacron" unicode="&#x101;" horiz-adv-x="531" 
d="M226 -16c-37 0 -71 7 -100 22s-52 35 -68 61c-16 25 -24 54 -24 87v0c0 54 20 96 61 127c41 30 92 45 154 45v0c31 0 59 -3 86 -10c26 -7 46 -14 60 -23v0v31c0 38 -13 69 -40 92s-60 34 -101 34v0c-29 0 -55 -6 -79 -18c-24 -13 -43 -30 -57 -52v0l-64 48
c20 31 48 55 83 72s73 26 116 26v0c69 0 124 -18 164 -54c39 -37 59 -86 59 -149v0v-323h-81v73h-4c-15 -25 -37 -46 -66 -63s-62 -26 -99 -26v0zM234 59c29 0 55 7 80 22s44 34 59 59s22 52 22 81v0c-16 11 -36 19 -59 26s-48 10 -74 10v0c-47 0 -82 -10 -105 -29
c-24 -19 -36 -44 -36 -75v0c0 -28 11 -51 32 -68s48 -26 81 -26v0zM121 645v67h277v-67h-277z" />
    <glyph glyph-name="Abreve" unicode="&#x102;" horiz-adv-x="669" 
d="M15 0l271 716h96l272 -716h-93l-72 197h-309l-72 -197h-93zM209 277h251l-95 258l-29 77h-4l-28 -77zM335 772c-22 0 -43 6 -62 17c-20 11 -36 26 -48 45s-18 39 -18 62v0h69c0 -17 5 -31 16 -42c11 -12 25 -18 43 -18v0c17 0 30 6 41 18c11 11 16 25 16 42v0h68
c0 -23 -6 -43 -17 -62c-12 -19 -28 -34 -47 -45s-40 -17 -61 -17v0z" />
    <glyph glyph-name="abreve" unicode="&#x103;" horiz-adv-x="531" 
d="M226 -16c-37 0 -71 7 -100 22s-52 35 -68 61c-16 25 -24 54 -24 87v0c0 54 20 96 61 127c41 30 92 45 154 45v0c31 0 59 -3 86 -10c26 -7 46 -14 60 -23v0v31c0 38 -13 69 -40 92s-60 34 -101 34v0c-29 0 -55 -6 -79 -18c-24 -13 -43 -30 -57 -52v0l-64 48
c20 31 48 55 83 72s73 26 116 26v0c69 0 124 -18 164 -54c39 -37 59 -86 59 -149v0v-323h-81v73h-4c-15 -25 -37 -46 -66 -63s-62 -26 -99 -26v0zM234 59c29 0 55 7 80 22s44 34 59 59s22 52 22 81v0c-16 11 -36 19 -59 26s-48 10 -74 10v0c-47 0 -82 -10 -105 -29
c-24 -19 -36 -44 -36 -75v0c0 -28 11 -51 32 -68s48 -26 81 -26v0zM260 607c-22 0 -43 6 -62 17c-20 11 -36 26 -48 45s-18 40 -18 63v0h69c0 -17 5 -31 16 -43s25 -18 43 -18v0c17 0 30 6 41 18s16 26 16 43v0h68c0 -23 -6 -44 -17 -63c-12 -19 -28 -34 -47 -45
s-40 -17 -61 -17v0z" />
    <glyph glyph-name="Aogonek" unicode="&#x104;" horiz-adv-x="669" 
d="M625 -224c-36 0 -65 11 -86 34c-22 22 -33 49 -33 82v0c0 40 18 76 55 108v0l-72 197h-309l-72 -197h-93l271 716h96l272 -716c-24 -19 -42 -35 -54 -50s-18 -31 -18 -50v0c0 -15 5 -28 14 -38c9 -11 21 -16 36 -16v0c14 0 27 3 40 10v0v-72c-12 -5 -28 -8 -47 -8v0z
M209 277h251l-95 258l-29 77h-4l-28 -77z" />
    <glyph glyph-name="aogonek" unicode="&#x105;" horiz-adv-x="531" 
d="M447 -224c-37 0 -66 11 -87 33c-22 21 -33 48 -33 79v0c0 25 7 47 20 66s29 34 48 46v0v73h-4c-15 -25 -37 -46 -66 -63s-62 -26 -99 -26v0c-37 0 -71 7 -100 22s-52 35 -68 61c-16 25 -24 54 -24 87v0c0 54 20 96 61 127c41 30 92 45 154 45v0c31 0 59 -3 86 -10
c26 -7 46 -14 60 -23v0v31c0 38 -13 69 -40 92s-60 34 -101 34v0c-29 0 -55 -6 -79 -18c-24 -13 -43 -30 -57 -52v0l-64 48c20 31 48 55 83 72s73 26 116 26v0c69 0 124 -18 164 -54c39 -37 59 -86 59 -149v0v-323c-24 -19 -42 -35 -54 -50c-13 -15 -19 -31 -19 -50v0
c0 -15 5 -28 14 -38c9 -11 22 -16 37 -16v0c13 0 27 3 40 10v0v-72c-12 -5 -28 -8 -47 -8v0zM234 59c29 0 55 7 80 22s44 34 59 59s22 52 22 81v0c-16 11 -36 19 -59 26s-48 10 -74 10v0c-47 0 -82 -10 -105 -29c-24 -19 -36 -44 -36 -75v0c0 -28 11 -51 32 -68
s48 -26 81 -26v0z" />
    <glyph glyph-name="Cacute" unicode="&#x106;" horiz-adv-x="741" 
d="M416 -16c-69 0 -132 16 -189 49s-101 78 -133 135c-33 57 -49 120 -49 190v0c0 70 16 134 49 191c32 57 76 101 133 134s120 49 189 49v0c53 0 102 -10 147 -30c44 -21 82 -50 115 -87v0l-61 -59c-27 33 -57 57 -89 72c-33 15 -70 23 -112 23v0c-52 0 -100 -12 -143 -36
c-43 -25 -78 -59 -103 -103c-26 -45 -39 -96 -39 -154v0c0 -58 13 -109 39 -153c25 -45 60 -79 103 -103c43 -25 91 -37 143 -37v0c87 0 160 36 221 107v0l62 -60c-33 -39 -74 -70 -123 -93s-102 -35 -160 -35v0zM371 773l52 127h93l-71 -127h-74z" />
    <glyph glyph-name="cacute" unicode="&#x107;" horiz-adv-x="546" 
d="M294 -16c-49 0 -94 12 -133 36c-39 23 -70 56 -92 97s-33 87 -33 138v0c0 51 11 98 33 139s53 74 92 97s84 35 133 35v0c55 0 102 -13 140 -38c37 -26 64 -60 80 -103v0l-77 -32c-13 31 -31 55 -56 72c-25 16 -56 24 -91 24v0c-30 0 -58 -8 -84 -24
c-26 -17 -47 -40 -62 -69c-16 -29 -24 -63 -24 -101v0c0 -38 8 -72 24 -101c15 -29 36 -52 62 -68c26 -17 54 -25 84 -25v0c36 0 67 8 93 25s45 40 58 71v0l76 -32c-17 -42 -45 -76 -83 -102c-39 -26 -85 -39 -140 -39v0zM255 609l52 127h93l-71 -127h-74z" />
    <glyph glyph-name="Ccircumflex" unicode="&#x108;" horiz-adv-x="741" 
d="M416 -16c-69 0 -132 16 -189 49s-101 78 -133 135c-33 57 -49 120 -49 190v0c0 70 16 134 49 191c32 57 76 101 133 134s120 49 189 49v0c53 0 102 -10 147 -30c44 -21 82 -50 115 -87v0l-61 -59c-27 33 -57 57 -89 72c-33 15 -70 23 -112 23v0c-52 0 -100 -12 -143 -36
c-43 -25 -78 -59 -103 -103c-26 -45 -39 -96 -39 -154v0c0 -58 13 -109 39 -153c25 -45 60 -79 103 -103c43 -25 91 -37 143 -37v0c87 0 160 36 221 107v0l62 -60c-33 -39 -74 -70 -123 -93s-102 -35 -160 -35v0zM269 779v5l102 116h75l102 -116v-5h-82l-54 63h-8l-53 -63
h-82z" />
    <glyph glyph-name="ccircumflex" unicode="&#x109;" horiz-adv-x="546" 
d="M294 -16c-49 0 -94 12 -133 36c-39 23 -70 56 -92 97s-33 87 -33 138v0c0 51 11 98 33 139s53 74 92 97s84 35 133 35v0c55 0 102 -13 140 -38c37 -26 64 -60 80 -103v0l-77 -32c-13 31 -31 55 -56 72c-25 16 -56 24 -91 24v0c-30 0 -58 -8 -84 -24
c-26 -17 -47 -40 -62 -69c-16 -29 -24 -63 -24 -101v0c0 -38 8 -72 24 -101c15 -29 36 -52 62 -68c26 -17 54 -25 84 -25v0c36 0 67 8 93 25s45 40 58 71v0l76 -32c-17 -42 -45 -76 -83 -102c-39 -26 -85 -39 -140 -39v0zM153 614v5l102 117h75l102 -117v-5h-82l-54 64h-8
l-53 -64h-82z" />
    <glyph glyph-name="Cdotaccent" unicode="&#x10a;" horiz-adv-x="741" 
d="M416 -16c-69 0 -132 16 -189 49s-101 78 -133 135c-33 57 -49 120 -49 190v0c0 70 16 134 49 191c32 57 76 101 133 134s120 49 189 49v0c53 0 102 -10 147 -30c44 -21 82 -50 115 -87v0l-61 -59c-27 33 -57 57 -89 72c-33 15 -70 23 -112 23v0c-52 0 -100 -12 -143 -36
c-43 -25 -78 -59 -103 -103c-26 -45 -39 -96 -39 -154v0c0 -58 13 -109 39 -153c25 -45 60 -79 103 -103c43 -25 91 -37 143 -37v0c87 0 160 36 221 107v0l62 -60c-33 -39 -74 -70 -123 -93s-102 -35 -160 -35v0zM408 807c-13 0 -24 5 -34 15s-15 21 -15 34v0
c0 13 5 25 15 35c10 9 21 14 34 14v0c15 0 27 -5 36 -14s14 -21 14 -35v0c0 -13 -5 -25 -14 -34c-10 -10 -22 -15 -36 -15v0z" />
    <glyph glyph-name="cdotaccent" unicode="&#x10b;" horiz-adv-x="546" 
d="M294 -16c-49 0 -94 12 -133 36c-39 23 -70 56 -92 97s-33 87 -33 138v0c0 51 11 98 33 139s53 74 92 97s84 35 133 35v0c55 0 102 -13 140 -38c37 -26 64 -60 80 -103v0l-77 -32c-13 31 -31 55 -56 72c-25 16 -56 24 -91 24v0c-30 0 -58 -8 -84 -24
c-26 -17 -47 -40 -62 -69c-16 -29 -24 -63 -24 -101v0c0 -38 8 -72 24 -101c15 -29 36 -52 62 -68c26 -17 54 -25 84 -25v0c36 0 67 8 93 25s45 40 58 71v0l76 -32c-17 -42 -45 -76 -83 -102c-39 -26 -85 -39 -140 -39v0zM292 625c-15 0 -27 5 -38 16s-16 23 -16 38v0
c0 15 5 28 16 38s23 15 38 15v0c15 0 28 -5 38 -15s15 -23 15 -38v0c0 -15 -5 -27 -15 -38s-23 -16 -38 -16v0z" />
    <glyph glyph-name="Ccaron" unicode="&#x10c;" horiz-adv-x="741" 
d="M416 -16c-69 0 -132 16 -189 49s-101 78 -133 135c-33 57 -49 120 -49 190v0c0 70 16 134 49 191c32 57 76 101 133 134s120 49 189 49v0c53 0 102 -10 147 -30c44 -21 82 -50 115 -87v0l-61 -59c-27 33 -57 57 -89 72c-33 15 -70 23 -112 23v0c-52 0 -100 -12 -143 -36
c-43 -25 -78 -59 -103 -103c-26 -45 -39 -96 -39 -154v0c0 -58 13 -109 39 -153c25 -45 60 -79 103 -103c43 -25 91 -37 143 -37v0c87 0 160 36 221 107v0l62 -60c-33 -39 -74 -70 -123 -93s-102 -35 -160 -35v0zM371 779l-102 116v5h82l53 -63h8l54 63h82v-5l-102 -116h-75
z" />
    <glyph glyph-name="ccaron" unicode="&#x10d;" horiz-adv-x="546" 
d="M294 -16c-49 0 -94 12 -133 36c-39 23 -70 56 -92 97s-33 87 -33 138v0c0 51 11 98 33 139s53 74 92 97s84 35 133 35v0c55 0 102 -13 140 -38c37 -26 64 -60 80 -103v0l-77 -32c-13 31 -31 55 -56 72c-25 16 -56 24 -91 24v0c-30 0 -58 -8 -84 -24
c-26 -17 -47 -40 -62 -69c-16 -29 -24 -63 -24 -101v0c0 -38 8 -72 24 -101c15 -29 36 -52 62 -68c26 -17 54 -25 84 -25v0c36 0 67 8 93 25s45 40 58 71v0l76 -32c-17 -42 -45 -76 -83 -102c-39 -26 -85 -39 -140 -39v0zM255 614l-102 117v5h82l53 -64h8l54 64h82v-5
l-102 -117h-75z" />
    <glyph glyph-name="Dcaron" unicode="&#x10e;" horiz-adv-x="703" 
d="M80 0v716h216c73 0 137 -15 192 -45c55 -31 97 -73 126 -127s44 -116 44 -186v0c0 -70 -15 -132 -44 -186s-71 -96 -126 -126c-55 -31 -119 -46 -192 -46v0h-216zM164 81h132c85 0 152 24 202 73c49 49 74 117 74 204v0c0 87 -25 155 -74 204c-50 49 -117 73 -202 73v0
h-132v-554zM281 779l-102 116v5h82l53 -63h8l54 63h82v-5l-102 -116h-75z" />
    <glyph glyph-name="dcaron" unicode="&#x10f;" horiz-adv-x="681" 
d="M279 -16c-45 0 -86 12 -123 35s-67 56 -88 97s-32 87 -32 139v0c0 51 11 98 32 139s51 74 88 97s78 35 123 35v0c39 0 74 -9 105 -26c31 -18 54 -40 70 -66v0h4l-4 71v211h85v-716h-81v75h-4c-16 -25 -39 -47 -70 -64c-31 -18 -66 -27 -105 -27v0zM289 61
c30 0 58 8 84 24c25 16 46 39 62 68c15 29 23 63 23 102v0c0 39 -8 73 -23 102c-16 29 -37 52 -62 68c-26 16 -54 24 -84 24v0c-29 0 -57 -8 -83 -24s-47 -39 -62 -68c-16 -30 -24 -64 -24 -102v0c0 -38 8 -72 24 -101c15 -30 36 -53 62 -69s54 -24 83 -24v0zM606 527v189
h91l-29 -189h-62z" />
    <glyph glyph-name="Dcroat" unicode="&#x110;" horiz-adv-x="705" 
d="M82 0v339h-81v66h81v311h216c73 0 137 -15 192 -45c55 -31 97 -73 126 -127s44 -116 44 -186v0c0 -70 -15 -132 -44 -186s-71 -96 -126 -126c-55 -31 -119 -46 -192 -46v0h-216zM167 81h131c85 0 152 24 202 73c49 49 74 117 74 204v0c0 87 -25 155 -74 204
c-50 49 -117 73 -202 73v0h-131v-230h184v-66h-184v-258z" />
    <glyph glyph-name="dcroat" unicode="&#x111;" horiz-adv-x="602" 
d="M602 650v-67h-63v-583h-81v75h-4c-16 -25 -39 -47 -70 -64c-31 -18 -66 -27 -105 -27v0c-45 0 -86 12 -123 35s-67 56 -88 97s-32 87 -32 139v0c0 51 11 98 32 139s51 74 88 97s78 35 123 35v0c39 0 74 -9 105 -26c31 -18 54 -40 70 -66v0h4l-4 68v81h-154v67h154v66h85
v-66h63zM289 61c30 0 58 8 84 24c25 16 46 39 62 68c15 29 23 63 23 102v0c0 39 -8 73 -23 102c-16 29 -37 52 -62 68c-26 16 -54 24 -84 24v0c-29 0 -57 -8 -83 -24s-47 -39 -62 -68c-16 -30 -24 -64 -24 -102v0c0 -38 8 -72 24 -101c15 -30 36 -53 62 -69s54 -24 83 -24v0
z" />
    <glyph glyph-name="Emacron" unicode="&#x112;" horiz-adv-x="551" 
d="M80 0v716h414v-81h-330v-237h298v-80h-298v-237h330v-81h-414zM149 810v66h277v-66h-277z" />
    <glyph glyph-name="emacron" unicode="&#x113;" horiz-adv-x="563" 
d="M443 29c-44 -21 -88 -29 -133 -24s-86 21 -123 49s-67 65 -88 112c0 0 21 -45 0 0s-31 90 -30 136s13 88 36 126c24 38 58 68 103 89c0 0 -46 -21 0 0c45 21 89 29 132 24c42 -4 81 -20 115 -48c35 -27 63 -64 84 -110c0 0 -4 10 0 0c4 -9 7 -17 8 -24v0l-365 -171
c18 -34 41 -60 67 -77s54 -26 83 -27s56 4 81 16c0 0 -59 -28 0 0c59 27 92 76 98 147v0l80 -1c-2 -47 -15 -89 -39 -127s-61 -68 -109 -90c0 0 44 20 0 0zM157 254l282 131c-10 19 -25 36 -43 51c-19 15 -42 24 -69 27c-27 4 -56 -2 -88 -16c0 0 36 17 0 0s-61 -43 -75 -78
c-15 -35 -17 -73 -7 -115v0zM33 567l-28 60l251 118l28 -61z" />
    <glyph glyph-name="Ebreve" unicode="&#x114;" horiz-adv-x="551" 
d="M80 0v716h414v-81h-330v-237h298v-80h-298v-237h330v-81h-414zM288 772c-22 0 -43 6 -62 17c-20 11 -36 26 -48 45s-18 39 -18 62v0h69c0 -17 5 -31 16 -42c11 -12 25 -18 43 -18v0c17 0 30 6 41 18c11 11 16 25 16 42v0h68c0 -23 -6 -43 -17 -62
c-12 -19 -28 -34 -47 -45s-40 -17 -61 -17v0z" />
    <glyph glyph-name="ebreve" unicode="&#x115;" horiz-adv-x="563" 
d="M448 23c-45 -21 -89 -29 -134 -24s-86 21 -123 49s-66 65 -88 112c0 0 21 -45 0 0s-31 90 -30 136s13 88 37 126c23 38 57 68 102 89c0 0 -46 -21 0 0c45 21 89 29 132 25c42 -5 81 -21 115 -48c35 -28 63 -64 84 -110c0 0 -4 9 0 0c5 -9 7 -18 9 -25v0l-366 -171
c19 -34 41 -60 67 -77c27 -17 54 -26 83 -27s56 4 82 16c0 0 -60 -28 0 0c59 27 91 77 98 147v0l80 -1c-3 -47 -16 -89 -40 -127s-60 -68 -108 -90c0 0 44 20 0 0zM161 248l282 131c-10 19 -25 36 -43 51c-19 15 -42 24 -69 27c-27 4 -56 -2 -88 -16c0 0 37 17 0 0
c-36 -17 -61 -43 -75 -78s-17 -74 -7 -115v0zM179 585c-20 -9 -41 -13 -63 -11c-23 1 -44 8 -62 20c-19 12 -34 29 -44 50v0s56 44 63 29s18 -26 33 -32c14 -6 30 -6 46 2c0 0 -15 -7 0 0s25 18 30 34c4 15 3 30 -4 45v0s52 50 62 29c9 -21 13 -43 11 -65
c-3 -22 -11 -42 -23 -60c-13 -18 -29 -32 -49 -41c0 0 20 9 0 0z" />
    <glyph glyph-name="Edotaccent" unicode="&#x116;" horiz-adv-x="551" 
d="M80 0v716h414v-81h-330v-237h298v-80h-298v-237h330v-81h-414zM287 807c-13 0 -24 5 -34 15s-15 21 -15 34v0c0 13 5 25 15 35c10 9 21 14 34 14v0c15 0 27 -5 36 -14s14 -21 14 -35v0c0 -13 -5 -25 -14 -34c-10 -10 -22 -15 -36 -15v0z" />
    <glyph glyph-name="edotaccent" unicode="&#x117;" horiz-adv-x="563" 
d="M447 23c-44 -21 -88 -29 -133 -24s-86 21 -123 49s-66 65 -88 112c0 0 21 -45 0 0s-31 90 -30 136s13 88 37 126c23 38 57 68 102 89c0 0 -46 -21 0 0c45 21 89 29 132 24c42 -4 81 -20 115 -48c35 -27 63 -64 84 -109c0 0 -4 9 0 0c5 -9 7 -18 9 -25v0l-366 -171
c19 -34 41 -60 67 -77c27 -17 54 -26 83 -27s56 4 82 16c0 0 -60 -28 0 0c59 27 91 76 97 147v0l81 -1c-3 -47 -16 -89 -40 -127s-60 -68 -109 -90c0 0 44 20 0 0zM161 248l282 131c-10 19 -25 36 -43 51c-19 15 -42 24 -69 27c-27 4 -56 -2 -88 -16c0 0 37 17 0 0
c-36 -17 -61 -43 -75 -78s-17 -73 -7 -115v0zM171 601c-13 -6 -27 -7 -41 -2c-15 6 -25 15 -31 28c0 0 7 -14 0 0c-6 14 -7 28 -2 41c6 14 15 24 29 30c0 0 -14 -7 0 0c13 6 27 7 40 2c14 -4 24 -14 30 -28c0 0 -6 14 0 0c6 -13 7 -27 2 -40c-4 -14 -13 -25 -27 -31
c0 0 13 6 0 0z" />
    <glyph glyph-name="Eogonek" unicode="&#x118;" horiz-adv-x="551" 
d="M465 -224c-36 0 -65 11 -86 32c-22 21 -33 48 -33 80v0c0 25 6 46 19 65s28 34 45 47v0h-330v716h414v-81h-330v-237h298v-80h-298v-237h330v-81c-24 -18 -42 -34 -54 -49s-18 -32 -18 -51v0c0 -15 5 -28 14 -38c9 -11 21 -16 36 -16v0c14 0 27 3 40 10v0v-72
c-12 -5 -28 -8 -47 -8v0z" />
    <glyph glyph-name="eogonek" unicode="&#x119;" horiz-adv-x="563" 
d="M520 -152c-33 -15 -64 -18 -93 -7c-29 10 -50 30 -63 58c0 0 14 -31 0 0s-14 67 2 107v0s38 18 -6 -3c-44 -20 -89 -28 -134 -23c-45 4 -86 21 -123 49s-66 65 -88 112c0 0 21 -45 0 0c-20 44 -30 90 -29 136s13 88 36 126c24 38 58 68 103 89c0 0 -46 -22 0 0
c45 21 89 29 132 24c42 -5 81 -21 115 -48c35 -27 63 -64 84 -110c0 0 -4 9 0 0s7 -17 8 -25v0l-365 -170c18 -34 40 -60 67 -77c26 -17 54 -26 83 -28c28 -1 56 4 81 16c0 0 -59 -27 0 0c59 28 92 77 98 147v0l80 -1c-2 -41 -17 -86 -45 -133v0c-21 -37 -34 -65 -40 -86
c-5 -21 -4 -41 5 -59c0 0 -7 14 0 0c6 -14 16 -23 29 -29c13 -5 26 -5 40 2c0 0 -12 -6 0 0c12 5 23 14 32 26v0l30 -65c-8 -10 -21 -19 -39 -28c0 0 33 16 0 0zM74 229l282 131c-10 19 -25 35 -44 50c-18 15 -41 24 -68 28s-56 -2 -88 -17c0 0 36 17 0 0s-61 -42 -76 -77
c-14 -35 -16 -74 -6 -115v0z" />
    <glyph glyph-name="Ecaron" unicode="&#x11a;" horiz-adv-x="551" 
d="M80 0v716h414v-81h-330v-237h298v-80h-298v-237h330v-81h-414zM250 779l-102 116v5h82l53 -63h8l54 63h82v-5l-102 -116h-75z" />
    <glyph glyph-name="ecaron" unicode="&#x11b;" horiz-adv-x="563" 
d="M448 23c-44 -21 -89 -29 -134 -24s-85 21 -122 49s-67 66 -88 112c0 0 21 -44 0 0c-21 45 -31 90 -30 136s13 89 37 127c23 38 57 67 102 88c0 0 -46 -21 0 0c45 21 89 29 132 25c42 -5 81 -21 115 -49c35 -27 63 -64 84 -109c0 0 -4 9 0 0c4 -10 7 -18 8 -25v0
l-365 -170c18 -35 40 -60 67 -77c26 -18 54 -27 83 -28s56 4 81 16c0 0 -59 -28 0 0c59 27 92 76 98 147v0l80 -1c-2 -47 -16 -89 -40 -127s-60 -68 -108 -90c0 0 44 20 0 0zM162 248l282 131c-10 19 -25 36 -43 51c-19 15 -42 24 -69 27c-27 4 -56 -1 -88 -16
c0 0 37 17 0 0c-36 -17 -61 -43 -75 -78c-15 -35 -17 -73 -7 -115v0zM143 576l-142 63l-2 4l74 35l75 -36l8 4l22 80l74 35l2 -5l-43 -149z" />
    <glyph glyph-name="Gcircumflex" unicode="&#x11c;" horiz-adv-x="813" 
d="M416 -16c-67 0 -129 16 -186 49s-102 78 -135 135s-50 121 -50 190v0c0 69 17 133 50 190s78 102 135 135s119 49 186 49v0c53 0 102 -9 149 -28c46 -19 84 -45 114 -79v0l-61 -61c-23 28 -52 50 -87 65s-73 22 -114 22v0c-51 0 -98 -12 -141 -36
c-44 -25 -79 -59 -105 -103c-27 -45 -40 -96 -40 -154v0c0 -58 13 -109 40 -153c26 -45 61 -79 105 -103c44 -25 91 -37 141 -37v0c48 0 88 8 121 23c32 15 60 34 83 59v0c17 19 31 41 42 68c11 26 17 55 20 87v0h-265v79h344c3 -19 5 -36 5 -52v0c0 -44 -7 -87 -21 -128
c-14 -42 -36 -79 -67 -110v0c-66 -71 -154 -107 -263 -107v0zM277 779v5l102 116h75l102 -116v-5h-82l-54 63h-8l-53 -63h-82z" />
    <glyph glyph-name="gcircumflex" unicode="&#x11d;" horiz-adv-x="597" 
d="M287 -232c-60 0 -109 14 -148 42s-66 62 -79 101v0l77 33c11 -29 30 -53 57 -71c26 -19 57 -28 93 -28v0c53 0 94 15 123 46s43 74 43 130v0v57h-4c-17 -26 -40 -47 -70 -63c-31 -17 -65 -25 -104 -25v0c-44 0 -84 11 -120 34c-37 23 -66 54 -87 95s-32 87 -32 139v0
c0 51 11 98 32 139s50 72 87 95c36 23 76 34 120 34v0c39 0 73 -8 104 -24c30 -17 53 -38 70 -65v0h4v73h81v-490c0 -82 -23 -144 -68 -187s-105 -65 -179 -65v0zM287 67c31 0 59 8 84 23s45 37 60 66s22 63 22 102v0c0 40 -7 74 -22 103s-35 51 -60 66s-53 22 -84 22v0
c-31 0 -59 -8 -84 -23s-45 -37 -60 -66s-23 -63 -23 -102v0c0 -39 8 -73 23 -102s35 -51 60 -66s53 -23 84 -23v0zM158 614v5l102 117h75l102 -117v-5h-82l-54 64h-8l-53 -64h-82z" />
    <glyph glyph-name="Gbreve" unicode="&#x11e;" horiz-adv-x="813" 
d="M416 -16c-67 0 -129 16 -186 49s-102 78 -135 135s-50 121 -50 190v0c0 69 17 133 50 190s78 102 135 135s119 49 186 49v0c53 0 102 -9 149 -28c46 -19 84 -45 114 -79v0l-61 -61c-23 28 -52 50 -87 65s-73 22 -114 22v0c-51 0 -98 -12 -141 -36
c-44 -25 -79 -59 -105 -103c-27 -45 -40 -96 -40 -154v0c0 -58 13 -109 40 -153c26 -45 61 -79 105 -103c44 -25 91 -37 141 -37v0c48 0 88 8 121 23c32 15 60 34 83 59v0c17 19 31 41 42 68c11 26 17 55 20 87v0h-265v79h344c3 -19 5 -36 5 -52v0c0 -44 -7 -87 -21 -128
c-14 -42 -36 -79 -67 -110v0c-66 -71 -154 -107 -263 -107v0zM417 772c-22 0 -43 6 -62 17c-20 11 -36 26 -48 45s-18 39 -18 62v0h69c0 -17 5 -31 16 -42c11 -12 25 -18 43 -18v0c17 0 30 6 41 18c11 11 16 25 16 42v0h68c0 -23 -6 -43 -17 -62c-12 -19 -28 -34 -47 -45
s-40 -17 -61 -17v0z" />
    <glyph glyph-name="gbreve" unicode="&#x11f;" horiz-adv-x="597" 
d="M287 -232c-60 0 -109 14 -148 42s-66 62 -79 101v0l77 33c11 -29 30 -53 57 -71c26 -19 57 -28 93 -28v0c53 0 94 15 123 46s43 74 43 130v0v57h-4c-17 -26 -40 -47 -70 -63c-31 -17 -65 -25 -104 -25v0c-44 0 -84 11 -120 34c-37 23 -66 54 -87 95s-32 87 -32 139v0
c0 51 11 98 32 139s50 72 87 95c36 23 76 34 120 34v0c39 0 73 -8 104 -24c30 -17 53 -38 70 -65v0h4v73h81v-490c0 -82 -23 -144 -68 -187s-105 -65 -179 -65v0zM287 67c31 0 59 8 84 23s45 37 60 66s22 63 22 102v0c0 40 -7 74 -22 103s-35 51 -60 66s-53 22 -84 22v0
c-31 0 -59 -8 -84 -23s-45 -37 -60 -66s-23 -63 -23 -102v0c0 -39 8 -73 23 -102s35 -51 60 -66s53 -23 84 -23v0zM298 607c-22 0 -43 6 -62 17c-20 11 -36 26 -48 45s-18 40 -18 63v0h69c0 -17 5 -31 16 -43s25 -18 43 -18v0c17 0 30 6 41 18s16 26 16 43v0h68
c0 -23 -6 -44 -17 -63c-12 -19 -28 -34 -47 -45s-40 -17 -61 -17v0z" />
    <glyph glyph-name="Gdotaccent" unicode="&#x120;" horiz-adv-x="813" 
d="M416 -16c-67 0 -129 16 -186 49s-102 78 -135 135s-50 121 -50 190v0c0 69 17 133 50 190s78 102 135 135s119 49 186 49v0c53 0 102 -9 149 -28c46 -19 84 -45 114 -79v0l-61 -61c-23 28 -52 50 -87 65s-73 22 -114 22v0c-51 0 -98 -12 -141 -36
c-44 -25 -79 -59 -105 -103c-27 -45 -40 -96 -40 -154v0c0 -58 13 -109 40 -153c26 -45 61 -79 105 -103c44 -25 91 -37 141 -37v0c48 0 88 8 121 23c32 15 60 34 83 59v0c17 19 31 41 42 68c11 26 17 55 20 87v0h-265v79h344c3 -19 5 -36 5 -52v0c0 -44 -7 -87 -21 -128
c-14 -42 -36 -79 -67 -110v0c-66 -71 -154 -107 -263 -107v0zM416 807c-13 0 -24 5 -34 15s-15 21 -15 34v0c0 13 5 25 15 35c10 9 21 14 34 14v0c15 0 27 -5 36 -14s14 -21 14 -35v0c0 -13 -5 -25 -14 -34c-10 -10 -22 -15 -36 -15v0z" />
    <glyph glyph-name="gdotaccent" unicode="&#x121;" horiz-adv-x="597" 
d="M287 -232c-60 0 -109 14 -148 42s-66 62 -79 101v0l77 33c11 -29 30 -53 57 -71c26 -19 57 -28 93 -28v0c53 0 94 15 123 46s43 74 43 130v0v57h-4c-17 -26 -40 -47 -70 -63c-31 -17 -65 -25 -104 -25v0c-44 0 -84 11 -120 34c-37 23 -66 54 -87 95s-32 87 -32 139v0
c0 51 11 98 32 139s50 72 87 95c36 23 76 34 120 34v0c39 0 73 -8 104 -24c30 -17 53 -38 70 -65v0h4v73h81v-490c0 -82 -23 -144 -68 -187s-105 -65 -179 -65v0zM287 67c31 0 59 8 84 23s45 37 60 66s22 63 22 102v0c0 40 -7 74 -22 103s-35 51 -60 66s-53 22 -84 22v0
c-31 0 -59 -8 -84 -23s-45 -37 -60 -66s-23 -63 -23 -102v0c0 -39 8 -73 23 -102s35 -51 60 -66s53 -23 84 -23v0zM297 625c-15 0 -27 5 -38 16s-16 23 -16 38v0c0 15 5 28 16 38s23 15 38 15v0c15 0 28 -5 38 -15s15 -23 15 -38v0c0 -15 -5 -27 -15 -38s-23 -16 -38 -16v0z
" />
    <glyph glyph-name="uni0122" unicode="&#x122;" horiz-adv-x="813" 
d="M416 -16c-67 0 -129 16 -186 49s-102 78 -135 135s-50 121 -50 190v0c0 69 17 133 50 190s78 102 135 135s119 49 186 49v0c53 0 102 -9 149 -28c46 -19 84 -45 114 -79v0l-61 -61c-23 28 -52 50 -87 65s-73 22 -114 22v0c-51 0 -98 -12 -141 -36
c-44 -25 -79 -59 -105 -103c-27 -45 -40 -96 -40 -154v0c0 -58 13 -109 40 -153c26 -45 61 -79 105 -103c44 -25 91 -37 141 -37v0c48 0 88 8 121 23c32 15 60 34 83 59v0c17 19 31 41 42 68c11 26 17 55 20 87v0h-265v79h344c3 -19 5 -36 5 -52v0c0 -44 -7 -87 -21 -128
c-14 -42 -36 -79 -67 -110v0c-66 -71 -154 -107 -263 -107v0zM390 -238l-38 26l40 57c-12 3 -22 9 -29 19c-8 9 -12 20 -12 33v0c0 14 5 27 16 38s24 17 40 17v0c17 0 30 -5 41 -16c10 -11 15 -25 15 -42v0c0 -13 -4 -27 -12 -43v0z" />
    <glyph glyph-name="uni0123" unicode="&#x123;" horiz-adv-x="597" 
d="M287 -232c-60 0 -109 14 -148 42s-66 62 -79 101v0l77 33c11 -29 30 -53 57 -71c26 -19 57 -28 93 -28v0c53 0 94 15 123 46s43 74 43 130v0v57h-4c-17 -26 -40 -47 -70 -63c-31 -17 -65 -25 -104 -25v0c-44 0 -84 11 -120 34c-37 23 -66 54 -87 95s-32 87 -32 139v0
c0 51 11 98 32 139s50 72 87 95c36 23 76 34 120 34v0c39 0 73 -8 104 -24c30 -17 53 -38 70 -65v0h4v73h81v-490c0 -82 -23 -144 -68 -187s-105 -65 -179 -65v0zM287 67c31 0 59 8 84 23s45 37 60 66s22 63 22 102v0c0 40 -7 74 -22 103s-35 51 -60 66s-53 22 -84 22v0
c-31 0 -59 -8 -84 -23s-45 -37 -60 -66s-23 -63 -23 -102v0c0 -39 8 -73 23 -102s35 -51 60 -66s53 -23 84 -23v0zM312 782l38 -26l-40 -57c12 -3 22 -9 30 -18c7 -10 11 -21 11 -34v0c0 -14 -5 -27 -16 -38s-24 -17 -40 -17v0c-17 0 -30 6 -40 17c-11 11 -16 24 -16 41v0
c0 13 4 27 12 43v0z" />
    <glyph glyph-name="Hcircumflex" unicode="&#x124;" horiz-adv-x="698" 
d="M80 0v716h84v-310h370v310h84v-716h-84v326h-370v-326h-84zM210 779v5l102 116h75l102 -116v-5h-82l-54 63h-8l-53 -63h-82z" />
    <glyph glyph-name="hcircumflex" unicode="&#x125;" horiz-adv-x="564" 
d="M63 0v716h85v-211l-4 -70h4c14 26 36 48 67 65c30 17 63 26 99 26v0c62 0 109 -18 142 -54c33 -37 49 -85 49 -145v0v-327h-85v314c0 46 -12 80 -35 102s-54 33 -91 33v0c-27 0 -51 -8 -73 -24c-23 -16 -40 -37 -53 -62s-20 -52 -20 -79v0v-284h-85zM148 778v5l102 117
h75l102 -117v-5h-82l-54 64h-8l-53 -64h-82z" />
    <glyph glyph-name="Hbar" unicode="&#x126;" horiz-adv-x="698" 
d="M682 575v-66h-64v-509h-84v326h-370v-326h-84v509h-64v66h64v141h84v-141h370v141h84v-141h64zM534 406v103h-370v-103h370z" />
    <glyph glyph-name="hbar" unicode="&#x127;" horiz-adv-x="564" 
d="M314 526c62 0 109 -18 142 -54c33 -37 49 -85 49 -145v0v-327h-85v314c0 46 -12 80 -35 102s-54 33 -91 33v0c-27 0 -51 -8 -73 -24c-23 -16 -40 -37 -53 -62s-20 -52 -20 -79v0v-284h-85v583h-64v67h64v66h85v-66h153v-67h-153v-78l-4 -70h4c14 26 36 48 67 65
c30 17 63 26 99 26v0z" />
    <glyph glyph-name="Itilde" unicode="&#x128;" horiz-adv-x="244" 
d="M80 0v716h84v-716h-84zM180 780c-12 0 -24 3 -35 8c-12 5 -26 12 -43 21v0c-19 12 -33 18 -40 18v0c-22 0 -34 -12 -36 -37v0h-70c0 25 5 47 16 64s24 29 41 38c17 8 33 12 50 12v0c21 0 47 -10 80 -30v0c20 -11 33 -17 39 -17v0c22 0 34 12 36 37v0h70
c0 -37 -11 -65 -33 -84c-23 -20 -48 -30 -75 -30v0z" />
    <glyph glyph-name="itilde" unicode="&#x129;" horiz-adv-x="226" 
d="M71 0v510h84v-510h-84zM171 616c-12 0 -24 3 -35 8c-12 5 -26 12 -43 21v0c-19 12 -33 18 -40 18v0c-22 0 -34 -12 -36 -37v0h-70c0 37 11 65 33 84s47 29 74 29v0c21 0 47 -10 80 -30v0c20 -11 33 -17 39 -17v0c22 0 34 12 36 37v0h70c0 -37 -11 -65 -33 -84
s-47 -29 -75 -29v0z" />
    <glyph glyph-name="Imacron" unicode="&#x12a;" horiz-adv-x="244" 
d="M-1 810v66h246v-66h-246zM81 0v716h84v-716h-84z" />
    <glyph glyph-name="imacron" unicode="&#x12b;" horiz-adv-x="226" 
d="M71 0v510h84v-510h-84zM-25 645v67h277v-67h-277z" />
    <glyph glyph-name="Ibreve" unicode="&#x12c;" horiz-adv-x="244" 
d="M80 0v716h84v-716h-84zM123 772c-22 0 -43 6 -62 17c-20 11 -36 26 -48 45s-18 39 -18 62v0h69c0 -17 5 -31 16 -42c11 -12 25 -18 43 -18v0c17 0 30 6 41 18c11 11 16 25 16 42v0h68c0 -23 -6 -43 -17 -62c-12 -19 -28 -34 -47 -45s-40 -17 -61 -17v0z" />
    <glyph glyph-name="ibreve" unicode="&#x12d;" horiz-adv-x="226" 
d="M71 0v510h84v-510h-84zM114 607c-22 0 -43 6 -62 17c-20 11 -36 26 -48 45s-18 40 -18 63v0h69c0 -17 5 -31 16 -43s25 -18 43 -18v0c17 0 30 6 41 18s16 26 16 43v0h68c0 -23 -6 -44 -17 -63c-12 -19 -28 -34 -47 -45s-40 -17 -61 -17v0z" />
    <glyph glyph-name="Iogonek" unicode="&#x12e;" horiz-adv-x="242" 
d="M134 -224c-36 0 -65 11 -86 32c-22 21 -33 48 -33 80v0c0 25 6 46 19 65s28 34 45 47v0v716h84v-716c-24 -19 -42 -35 -54 -50s-18 -31 -18 -50v0c0 -15 5 -28 14 -38c9 -11 21 -16 36 -16v0c14 0 27 3 40 10v0v-72c-12 -5 -28 -8 -47 -8v0z" />
    <glyph glyph-name="iogonek" unicode="&#x12f;" horiz-adv-x="226" 
d="M113 604c-17 0 -31 6 -43 18s-18 26 -18 43v0c0 17 6 31 18 43c12 11 26 17 43 17v0c17 0 31 -6 43 -17c12 -12 18 -26 18 -43v0c0 -17 -6 -31 -17 -43c-12 -12 -27 -18 -44 -18v0zM126 -224c-36 0 -65 11 -86 33c-22 21 -33 48 -33 79v0c0 42 21 79 64 112v0v510h84
v-510c-24 -19 -42 -35 -54 -50s-18 -31 -18 -50v0c0 -15 5 -28 14 -38c9 -11 21 -16 36 -16v0c14 0 27 3 40 10v0v-72c-12 -5 -28 -8 -47 -8v0z" />
    <glyph glyph-name="Idotaccent" unicode="&#x130;" horiz-adv-x="244" 
d="M80 0v716h84v-716h-84zM122 807c-13 0 -24 5 -34 15s-15 21 -15 34v0c0 13 5 25 15 35c10 9 21 14 34 14v0c15 0 27 -5 36 -14s14 -21 14 -35v0c0 -13 -5 -25 -14 -34c-10 -10 -22 -15 -36 -15v0z" />
    <glyph glyph-name="dotlessi" unicode="&#x131;" horiz-adv-x="226" 
d="M71 0v510h84v-510h-84z" />
    <glyph glyph-name="Jcircumflex" unicode="&#x134;" horiz-adv-x="530" 
d="M247 -16c-53 0 -99 15 -138 44s-67 69 -83 122v0l80 33c24 -79 71 -118 141 -118v0c39 0 71 14 95 41c23 27 35 63 35 108v0v502h85v-495c0 -50 -9 -93 -27 -128c-19 -36 -44 -63 -76 -81c-33 -19 -70 -28 -112 -28v0zM281 779v5l102 116h75l102 -116v-5h-82l-54 63h-8
l-53 -63h-82z" />
    <glyph glyph-name="jcircumflex" unicode="&#x135;" horiz-adv-x="226" 
d="M15 -226c-16 0 -31 2 -45 7v0v81c5 -3 12 -6 20 -8s15 -3 22 -3v0c21 0 36 7 45 20s14 32 14 57v0v582h84v-582c0 -51 -12 -90 -37 -115c-25 -26 -59 -39 -103 -39v0zM-26 614v5l102 117h75l102 -117v-5h-82l-54 64h-8l-53 -64h-82z" />
    <glyph glyph-name="uni0136" unicode="&#x136;" horiz-adv-x="625" 
d="M80 0v716h84v-377h4l323 377h109v-4l-265 -306l284 -402v-4h-103l-238 341l-114 -131v-210h-84zM295 -238l-38 26l40 57c-12 3 -22 9 -29 19c-8 9 -12 20 -12 33v0c0 14 5 27 16 38s24 17 40 17v0c17 0 30 -5 41 -16c10 -11 15 -25 15 -42v0c0 -13 -4 -27 -12 -43v0z" />
    <glyph glyph-name="uni0137" unicode="&#x137;" horiz-adv-x="505" 
d="M63 0v716h85v-450l240 244h108v-4l-200 -202l205 -300v-4h-101l-164 245l-88 -88v-157h-85zM245 -238l-38 26l40 57c-12 3 -22 9 -29 19c-8 9 -12 20 -12 33v0c0 14 5 27 16 38s24 17 40 17v0c17 0 30 -5 41 -16c10 -11 15 -25 15 -42v0c0 -13 -4 -27 -12 -43v0z" />
    <glyph glyph-name="kgreenlandic" unicode="&#x138;" horiz-adv-x="488" 
d="M63 0v510h85v-231h4l215 231h107v-4l-230 -238l240 -264v-4h-104l-228 257h-4v-257h-85z" />
    <glyph glyph-name="Lacute" unicode="&#x139;" horiz-adv-x="509" 
d="M80 0v716h84v-635h314v-81h-398zM85 773l52 127h93l-71 -127h-74z" />
    <glyph glyph-name="lacute" unicode="&#x13a;" horiz-adv-x="211" 
d="M63 0v716h85v-716h-85zM68 773l52 127h93l-71 -127h-74z" />
    <glyph glyph-name="uni013B" unicode="&#x13b;" horiz-adv-x="509" 
d="M80 0v716h84v-635h314v-81h-398zM262 -238l-38 26l40 57c-12 3 -22 9 -29 19c-8 9 -12 20 -12 33v0c0 14 5 27 16 38s24 17 40 17v0c17 0 30 -5 41 -16c10 -11 15 -25 15 -42v0c0 -13 -4 -27 -12 -43v0z" />
    <glyph glyph-name="uni013C" unicode="&#x13c;" horiz-adv-x="211" 
d="M63 0v716h85v-716h-85zM88 -238l-38 26l40 57c-12 3 -22 9 -29 19c-8 9 -12 20 -12 33v0c0 14 5 27 16 38s24 17 40 17v0c17 0 30 -5 41 -16c10 -11 15 -25 15 -42v0c0 -13 -4 -27 -12 -43v0z" />
    <glyph glyph-name="Lcaron" unicode="&#x13d;" horiz-adv-x="509" 
d="M80 0v716h84v-635h314v-81h-398zM317 527v189h91l-29 -189h-62z" />
    <glyph glyph-name="lcaron" unicode="&#x13e;" horiz-adv-x="298" 
d="M63 0v716h85v-716h-85zM232 527v189h91l-29 -189h-62z" />
    <glyph glyph-name="Ldot" unicode="&#x13f;" horiz-adv-x="509" 
d="M80 0v716h84v-635h314v-81h-398zM331 280c-18 0 -33 6 -45 19c-13 12 -19 27 -19 45v0c0 18 6 33 19 46c12 12 27 18 45 18v0c17 0 32 -6 45 -18c12 -13 18 -28 18 -46v0c0 -18 -6 -33 -18 -45c-13 -13 -28 -19 -45 -19v0z" />
    <glyph glyph-name="Lslash" unicode="&#x141;" horiz-adv-x="582" 
d="M153 0v281l-65 -40l-39 62l104 65v348h85v-289l131 81l38 -63l-169 -105v-259h314v-81h-399z" />
    <glyph glyph-name="lslash" unicode="&#x142;" horiz-adv-x="369" 
d="M139 0v315l-59 -43l-44 58l103 76v310h84v-253l74 54l44 -59l-118 -86v-372h-84z" />
    <glyph glyph-name="Nacute" unicode="&#x143;" horiz-adv-x="708" 
d="M80 0v716h104l359 -570h4l-4 138v432h85v-716h-88l-376 597h-4l4 -138v-459h-84zM327 773l52 127h93l-71 -127h-74z" />
    <glyph glyph-name="nacute" unicode="&#x144;" 
d="M63 0v510h81v-75h4c14 25 36 47 67 65c31 17 63 26 98 26v0c61 0 108 -18 141 -53c32 -36 48 -85 48 -146v0v-327h-85v314c0 47 -11 82 -34 103s-54 32 -93 32v0c-27 0 -52 -8 -73 -23c-22 -15 -39 -35 -51 -60s-18 -52 -18 -79v0v-287h-85zM256 609l52 127h93l-71 -127
h-74z" />
    <glyph glyph-name="uni0145" unicode="&#x145;" horiz-adv-x="708" 
d="M80 0v716h104l359 -570h4l-4 138v432h85v-716h-88l-376 597h-4l4 -138v-459h-84zM337 -238l-38 26l40 57c-12 3 -22 9 -29 19c-8 9 -12 20 -12 33v0c0 14 5 27 16 38s24 17 40 17v0c17 0 30 -5 41 -16c10 -11 15 -25 15 -42v0c0 -13 -4 -27 -12 -43v0z" />
    <glyph glyph-name="uni0146" unicode="&#x146;" 
d="M63 0v510h81v-75h4c14 25 36 47 67 65c31 17 63 26 98 26v0c61 0 108 -18 141 -53c32 -36 48 -85 48 -146v0v-327h-85v314c0 47 -11 82 -34 103s-54 32 -93 32v0c-27 0 -52 -8 -73 -23c-22 -15 -39 -35 -51 -60s-18 -52 -18 -79v0v-287h-85zM266 -238l-38 26l40 57
c-12 3 -22 9 -29 19c-8 9 -12 20 -12 33v0c0 14 5 27 16 38s24 17 40 17v0c17 0 30 -5 41 -16c10 -11 15 -25 15 -42v0c0 -13 -4 -27 -12 -43v0z" />
    <glyph glyph-name="Ncaron" unicode="&#x147;" horiz-adv-x="708" 
d="M80 0v716h104l359 -570h4l-4 138v432h85v-716h-88l-376 597h-4l4 -138v-459h-84zM327 779l-102 116v5h82l53 -63h8l54 63h82v-5l-102 -116h-75z" />
    <glyph glyph-name="ncaron" unicode="&#x148;" 
d="M63 0v510h81v-75h4c14 25 36 47 67 65c31 17 63 26 98 26v0c61 0 108 -18 141 -53c32 -36 48 -85 48 -146v0v-327h-85v314c0 47 -11 82 -34 103s-54 32 -93 32v0c-27 0 -52 -8 -73 -23c-22 -15 -39 -35 -51 -60s-18 -52 -18 -79v0v-287h-85zM256 614l-102 117v5h82
l53 -64h8l54 64h82v-5l-102 -117h-75z" />
    <glyph glyph-name="Eng" unicode="&#x14a;" horiz-adv-x="708" 
d="M487 -226c-16 0 -30 2 -43 6v0v81c12 -7 25 -10 40 -10v0c21 0 36 7 45 20s14 32 14 57v0v75l-379 594h-4l4 -138v-459h-84v716h104l359 -570h4l-4 138v432h85v-788c0 -51 -12 -90 -37 -115c-25 -26 -59 -39 -104 -39v0z" />
    <glyph glyph-name="eng" unicode="&#x14b;" 
d="M361 -226c-15 0 -30 2 -45 7v0v81c5 -3 12 -6 21 -8c8 -2 15 -3 22 -3v0c21 0 36 7 45 20s13 32 13 57v0v386c0 47 -11 82 -34 103s-54 32 -93 32v0c-27 0 -52 -8 -73 -23c-22 -15 -39 -35 -51 -60s-18 -52 -18 -79v0v-287h-85v510h81v-75h4c14 25 36 47 67 65
c31 17 63 26 98 26v0c61 0 108 -18 141 -53c32 -36 48 -85 48 -146v0v-399c0 -51 -12 -90 -37 -115c-25 -26 -59 -39 -104 -39v0z" />
    <glyph glyph-name="Omacron" unicode="&#x14c;" horiz-adv-x="825" 
d="M412 -16c-69 0 -131 17 -187 50s-100 79 -132 136s-48 119 -48 188v0c0 68 16 131 48 188s76 103 132 136s118 50 187 50v0c69 0 131 -17 187 -50s100 -79 133 -136c32 -57 48 -120 48 -188v0c0 -69 -16 -131 -48 -188s-76 -103 -132 -136c-57 -33 -119 -50 -188 -50v0z
M412 65c51 0 99 13 142 38s77 59 102 104c25 44 37 94 37 151v0c0 57 -12 107 -37 152c-25 44 -59 79 -102 104s-91 37 -142 37v0c-51 0 -98 -12 -141 -37s-77 -60 -102 -105s-38 -95 -38 -151v0c0 -56 13 -106 38 -151s59 -79 102 -104s90 -38 141 -38v0zM274 810v66h277
v-66h-277z" />
    <glyph glyph-name="omacron" unicode="&#x14d;" horiz-adv-x="596" 
d="M298 -16c-50 0 -95 12 -135 36s-71 57 -93 98c-23 41 -34 87 -34 137v0c0 50 11 96 34 137c22 41 53 74 93 98s85 36 135 36v0c50 0 95 -12 135 -36s71 -57 94 -98c22 -41 33 -87 33 -137v0c0 -50 -11 -96 -33 -137c-23 -41 -54 -74 -94 -98s-85 -36 -135 -36v0zM298 61
c31 0 61 8 88 24c27 15 48 38 65 67c16 29 24 64 24 103v0c0 39 -8 74 -24 103c-17 29 -38 52 -65 68c-27 15 -57 23 -88 23v0c-31 0 -61 -8 -88 -23c-27 -16 -49 -39 -65 -68c-17 -29 -25 -64 -25 -103v0c0 -39 8 -74 25 -103c16 -29 38 -52 65 -67c27 -16 57 -24 88 -24v0
zM160 645v67h277v-67h-277z" />
    <glyph glyph-name="Obreve" unicode="&#x14e;" horiz-adv-x="825" 
d="M412 -16c-69 0 -131 17 -187 50s-100 79 -132 136s-48 119 -48 188v0c0 68 16 131 48 188s76 103 132 136s118 50 187 50v0c69 0 131 -17 187 -50s100 -79 133 -136c32 -57 48 -120 48 -188v0c0 -69 -16 -131 -48 -188s-76 -103 -132 -136c-57 -33 -119 -50 -188 -50v0z
M412 65c51 0 99 13 142 38s77 59 102 104c25 44 37 94 37 151v0c0 57 -12 107 -37 152c-25 44 -59 79 -102 104s-91 37 -142 37v0c-51 0 -98 -12 -141 -37s-77 -60 -102 -105s-38 -95 -38 -151v0c0 -56 13 -106 38 -151s59 -79 102 -104s90 -38 141 -38v0zM413 772
c-22 0 -43 6 -62 17c-20 11 -36 26 -48 45s-18 39 -18 62v0h69c0 -17 5 -31 16 -42c11 -12 25 -18 43 -18v0c17 0 30 6 41 18c11 11 16 25 16 42v0h68c0 -23 -6 -43 -17 -62c-12 -19 -28 -34 -47 -45s-40 -17 -61 -17v0z" />
    <glyph glyph-name="obreve" unicode="&#x14f;" horiz-adv-x="596" 
d="M298 -16c-50 0 -95 12 -135 36s-71 57 -93 98c-23 41 -34 87 -34 137v0c0 50 11 96 34 137c22 41 53 74 93 98s85 36 135 36v0c50 0 95 -12 135 -36s71 -57 94 -98c22 -41 33 -87 33 -137v0c0 -50 -11 -96 -33 -137c-23 -41 -54 -74 -94 -98s-85 -36 -135 -36v0zM298 61
c31 0 61 8 88 24c27 15 48 38 65 67c16 29 24 64 24 103v0c0 39 -8 74 -24 103c-17 29 -38 52 -65 68c-27 15 -57 23 -88 23v0c-31 0 -61 -8 -88 -23c-27 -16 -49 -39 -65 -68c-17 -29 -25 -64 -25 -103v0c0 -39 8 -74 25 -103c16 -29 38 -52 65 -67c27 -16 57 -24 88 -24v0
zM299 607c-22 0 -43 6 -62 17c-20 11 -36 26 -48 45s-18 40 -18 63v0h69c0 -17 5 -31 16 -43s25 -18 43 -18v0c17 0 30 6 41 18s16 26 16 43v0h68c0 -23 -6 -44 -17 -63c-12 -19 -28 -34 -47 -45s-40 -17 -61 -17v0z" />
    <glyph glyph-name="Ohungarumlaut" unicode="&#x150;" horiz-adv-x="825" 
d="M412 -16c-69 0 -131 17 -187 50s-100 79 -132 136s-48 119 -48 188v0c0 68 16 131 48 188s76 103 132 136s118 50 187 50v0c69 0 131 -17 187 -50s100 -79 133 -136c32 -57 48 -120 48 -188v0c0 -69 -16 -131 -48 -188s-76 -103 -132 -136c-57 -33 -119 -50 -188 -50v0z
M412 65c51 0 99 13 142 38s77 59 102 104c25 44 37 94 37 151v0c0 57 -12 107 -37 152c-25 44 -59 79 -102 104s-91 37 -142 37v0c-51 0 -98 -12 -141 -37s-77 -60 -102 -105s-38 -95 -38 -151v0c0 -56 13 -106 38 -151s59 -79 102 -104s90 -38 141 -38v0zM312 773l52 127
h93l-71 -127h-74zM439 773l52 127h93l-71 -127h-74z" />
    <glyph glyph-name="ohungarumlaut" unicode="&#x151;" horiz-adv-x="596" 
d="M298 -16c-50 0 -95 12 -135 36s-71 57 -93 98c-23 41 -34 87 -34 137v0c0 50 11 96 34 137c22 41 53 74 93 98s85 36 135 36v0c50 0 95 -12 135 -36s71 -57 94 -98c22 -41 33 -87 33 -137v0c0 -50 -11 -96 -33 -137c-23 -41 -54 -74 -94 -98s-85 -36 -135 -36v0zM298 61
c31 0 61 8 88 24c27 15 48 38 65 67c16 29 24 64 24 103v0c0 39 -8 74 -24 103c-17 29 -38 52 -65 68c-27 15 -57 23 -88 23v0c-31 0 -61 -8 -88 -23c-27 -16 -49 -39 -65 -68c-17 -29 -25 -64 -25 -103v0c0 -39 8 -74 25 -103c16 -29 38 -52 65 -67c27 -16 57 -24 88 -24v0
zM182 609l52 127h93l-71 -127h-74zM341 609l52 127h93l-71 -127h-74z" />
    <glyph glyph-name="OE" unicode="&#x152;" horiz-adv-x="1164" 
d="M412 -16c-69 0 -131 17 -187 50s-100 79 -132 136s-48 119 -48 188v0c0 68 16 131 48 188s76 103 132 136s118 50 187 50v0c59 0 113 -12 162 -36c48 -25 88 -59 119 -102v0v122h415v-81h-330v-237h298v-80h-298v-237h330v-81h-415v121c-31 -43 -71 -76 -119 -100
c-49 -25 -103 -37 -162 -37v0zM412 65c51 0 99 13 142 38s77 59 102 104c25 44 37 94 37 151v0c0 57 -12 107 -37 152c-25 44 -59 79 -102 104s-91 37 -142 37v0c-51 0 -98 -12 -141 -37s-77 -60 -102 -105s-38 -95 -38 -151v0c0 -56 13 -106 38 -151s59 -79 102 -104
s90 -38 141 -38v0z" />
    <glyph glyph-name="oe" unicode="&#x153;" horiz-adv-x="1003" 
d="M298 -16c-50 0 -95 12 -135 36s-71 57 -93 98c-23 41 -34 87 -34 137v0c0 50 11 96 34 137c22 41 53 74 93 98s85 36 135 36v0c47 0 90 -11 128 -33c38 -23 68 -54 90 -93v0c21 39 49 70 85 93c36 22 77 33 122 33v0c50 0 93 -11 130 -33c37 -23 65 -54 85 -93
c19 -39 29 -84 29 -135v0c0 -8 -1 -17 -2 -26v0h-404c2 -39 11 -71 28 -98s38 -47 64 -60c25 -13 52 -20 80 -20v0c67 0 117 31 151 92v0l72 -35c-21 -41 -51 -73 -89 -97c-38 -25 -84 -37 -137 -37v0c-47 0 -89 11 -126 33s-66 53 -88 93v0c-22 -40 -52 -71 -90 -93
s-81 -33 -128 -33v0zM298 61c31 0 61 8 88 24c27 15 48 38 65 67c16 29 24 64 24 103v0c0 39 -8 74 -24 103c-17 29 -38 52 -65 68c-27 15 -57 23 -88 23v0c-31 0 -61 -8 -88 -23c-27 -16 -49 -39 -65 -68c-17 -29 -25 -64 -25 -103v0c0 -39 8 -74 25 -103
c16 -29 38 -52 65 -67c27 -16 57 -24 88 -24v0zM566 309h311c-1 21 -7 43 -18 64s-27 39 -50 54s-51 22 -86 22v0c-40 0 -74 -13 -102 -38c-28 -26 -46 -60 -55 -102v0z" />
    <glyph glyph-name="Racute" unicode="&#x154;" horiz-adv-x="586" 
d="M80 0v716h242c39 0 76 -9 110 -27s61 -43 82 -75c20 -33 30 -69 30 -110v0c0 -33 -7 -64 -22 -93s-36 -53 -62 -72c-27 -19 -56 -32 -88 -39v0l-2 -3l202 -293v-4h-100l-195 292h-113v-292h-84zM164 371h153c25 0 48 6 70 17c21 11 39 27 52 48c13 20 19 43 19 68v0
c0 22 -6 43 -17 63s-27 36 -47 49c-21 13 -44 19 -71 19v0h-159v-264zM243 773l52 127h93l-71 -127h-74z" />
    <glyph glyph-name="racute" unicode="&#x155;" horiz-adv-x="375" 
d="M63 0v510h81v-82h4c10 28 29 51 58 70c29 18 59 27 90 27v0c23 0 43 -3 60 -10v0v-92c-21 11 -45 16 -72 16v0c-25 0 -47 -7 -68 -21s-37 -33 -49 -56c-13 -24 -19 -50 -19 -77v0v-285h-85zM167 609l52 127h93l-71 -127h-74z" />
    <glyph glyph-name="uni0156" unicode="&#x156;" horiz-adv-x="586" 
d="M80 0v716h242c39 0 76 -9 110 -27s61 -43 82 -75c20 -33 30 -69 30 -110v0c0 -33 -7 -64 -22 -93s-36 -53 -62 -72c-27 -19 -56 -32 -88 -39v0l-2 -3l202 -293v-4h-100l-195 292h-113v-292h-84zM164 371h153c25 0 48 6 70 17c21 11 39 27 52 48c13 20 19 43 19 68v0
c0 22 -6 43 -17 63s-27 36 -47 49c-21 13 -44 19 -71 19v0h-159v-264zM276 -238l-38 26l40 57c-12 3 -22 9 -29 19c-8 9 -12 20 -12 33v0c0 14 5 27 16 38s24 17 40 17v0c17 0 30 -5 41 -16c10 -11 15 -25 15 -42v0c0 -13 -4 -27 -12 -43v0z" />
    <glyph glyph-name="uni0157" unicode="&#x157;" horiz-adv-x="375" 
d="M63 0v510h81v-82h4c10 28 29 51 58 70c29 18 59 27 90 27v0c23 0 43 -3 60 -10v0v-92c-21 11 -45 16 -72 16v0c-25 0 -47 -7 -68 -21s-37 -33 -49 -56c-13 -24 -19 -50 -19 -77v0v-285h-85zM88 -238l-38 26l40 57c-12 3 -22 9 -29 19c-8 9 -12 20 -12 33v0
c0 14 5 27 16 38s24 17 40 17v0c17 0 30 -5 41 -16c10 -11 15 -25 15 -42v0c0 -13 -4 -27 -12 -43v0z" />
    <glyph glyph-name="Rcaron" unicode="&#x158;" horiz-adv-x="586" 
d="M80 0v716h242c39 0 76 -9 110 -27s61 -43 82 -75c20 -33 30 -69 30 -110v0c0 -33 -7 -64 -22 -93s-36 -53 -62 -72c-27 -19 -56 -32 -88 -39v0l-2 -3l202 -293v-4h-100l-195 292h-113v-292h-84zM164 371h153c25 0 48 6 70 17c21 11 39 27 52 48c13 20 19 43 19 68v0
c0 22 -6 43 -17 63s-27 36 -47 49c-21 13 -44 19 -71 19v0h-159v-264zM243 779l-102 116v5h82l53 -63h8l54 63h82v-5l-102 -116h-75z" />
    <glyph glyph-name="rcaron" unicode="&#x159;" horiz-adv-x="375" 
d="M63 0v510h81v-82h4c10 28 29 51 58 70c29 18 59 27 90 27v0c23 0 43 -3 60 -10v0v-92c-21 11 -45 16 -72 16v0c-25 0 -47 -7 -68 -21s-37 -33 -49 -56c-13 -24 -19 -50 -19 -77v0v-285h-85zM167 614l-102 117v5h82l53 -64h8l54 64h82v-5l-102 -117h-75z" />
    <glyph glyph-name="Sacute" unicode="&#x15a;" 
d="M280 -16c-56 0 -107 17 -154 51s-79 82 -96 143v0l81 33c11 -43 32 -78 63 -105s67 -41 108 -41v0c41 0 76 11 105 34c29 22 43 52 43 91v0c0 33 -12 61 -36 83c-25 21 -65 41 -120 60v0l-45 16c-51 18 -92 42 -124 71s-48 70 -48 122v0c0 34 9 66 28 95s45 52 78 69
s71 26 112 26v0c41 0 77 -8 108 -23s55 -34 74 -56c18 -22 31 -44 38 -65v0l-80 -34c-7 25 -22 47 -45 67c-24 20 -55 30 -94 30v0c-37 0 -68 -10 -94 -31s-39 -47 -39 -78v0c0 -28 11 -51 33 -68c22 -18 55 -35 100 -50v0l47 -16c61 -22 108 -49 142 -82s51 -78 51 -135v0
c0 -46 -12 -85 -35 -116c-24 -31 -54 -54 -90 -69s-73 -22 -111 -22v0zM238 773l52 127h93l-71 -127h-74z" />
    <glyph glyph-name="sacute" unicode="&#x15b;" horiz-adv-x="473" 
d="M241 -16c-55 0 -100 13 -137 39c-37 25 -63 58 -78 98v0l76 34c13 -31 32 -54 57 -71s52 -25 82 -25v0c32 0 59 7 82 20s34 31 34 55v0c0 21 -9 39 -27 52s-46 24 -85 33v0l-62 16c-41 10 -74 27 -100 51s-39 55 -39 93v0c0 29 9 55 27 78c17 22 41 39 70 51s61 18 95 18
v0c45 0 85 -10 120 -29s59 -46 74 -81v0l-74 -34c-23 45 -63 68 -121 68v0c-28 0 -52 -6 -73 -19s-32 -30 -32 -50v0c0 -19 7 -34 22 -45c15 -12 37 -22 66 -29v0l74 -19c50 -13 88 -31 113 -56s38 -56 38 -92v0c0 -31 -9 -59 -27 -82c-18 -24 -42 -42 -73 -55
s-65 -19 -102 -19v0zM199 609l52 127h93l-71 -127h-74z" />
    <glyph glyph-name="Scircumflex" unicode="&#x15c;" 
d="M280 -16c-56 0 -107 17 -154 51s-79 82 -96 143v0l81 33c11 -43 32 -78 63 -105s67 -41 108 -41v0c41 0 76 11 105 34c29 22 43 52 43 91v0c0 33 -12 61 -36 83c-25 21 -65 41 -120 60v0l-45 16c-51 18 -92 42 -124 71s-48 70 -48 122v0c0 34 9 66 28 95s45 52 78 69
s71 26 112 26v0c41 0 77 -8 108 -23s55 -34 74 -56c18 -22 31 -44 38 -65v0l-80 -34c-7 25 -22 47 -45 67c-24 20 -55 30 -94 30v0c-37 0 -68 -10 -94 -31s-39 -47 -39 -78v0c0 -28 11 -51 33 -68c22 -18 55 -35 100 -50v0l47 -16c61 -22 108 -49 142 -82s51 -78 51 -135v0
c0 -46 -12 -85 -35 -116c-24 -31 -54 -54 -90 -69s-73 -22 -111 -22v0zM136 779v5l102 116h75l102 -116v-5h-82l-54 63h-8l-53 -63h-82z" />
    <glyph glyph-name="scircumflex" unicode="&#x15d;" horiz-adv-x="473" 
d="M241 -16c-55 0 -100 13 -137 39c-37 25 -63 58 -78 98v0l76 34c13 -31 32 -54 57 -71s52 -25 82 -25v0c32 0 59 7 82 20s34 31 34 55v0c0 21 -9 39 -27 52s-46 24 -85 33v0l-62 16c-41 10 -74 27 -100 51s-39 55 -39 93v0c0 29 9 55 27 78c17 22 41 39 70 51s61 18 95 18
v0c45 0 85 -10 120 -29s59 -46 74 -81v0l-74 -34c-23 45 -63 68 -121 68v0c-28 0 -52 -6 -73 -19s-32 -30 -32 -50v0c0 -19 7 -34 22 -45c15 -12 37 -22 66 -29v0l74 -19c50 -13 88 -31 113 -56s38 -56 38 -92v0c0 -31 -9 -59 -27 -82c-18 -24 -42 -42 -73 -55
s-65 -19 -102 -19v0zM97 614v5l102 117h75l102 -117v-5h-82l-54 64h-8l-53 -64h-82z" />
    <glyph glyph-name="Scedilla" unicode="&#x15e;" 
d="M516 191c0 -45 -11 -82 -33 -112c-22 -31 -50 -54 -84 -69s-69 -24 -106 -26v0l-15 -33c12 2 20 3 23 3v0c25 0 47 -9 65 -27c17 -18 26 -41 26 -68v0c0 -27 -10 -49 -29 -68s-43 -28 -72 -28v0c-21 0 -40 6 -57 19s-30 29 -37 48v0l50 22c3 -10 9 -18 17 -25
c7 -7 16 -11 27 -11v0c13 0 24 4 32 13c8 8 12 18 12 30v0c0 13 -4 23 -12 32s-19 13 -32 13v0c-14 0 -26 -6 -35 -17v0l-44 20l30 80c-49 7 -92 28 -131 61s-66 76 -81 130v0l81 33c11 -43 32 -78 63 -105s67 -41 108 -41v0c41 0 76 11 105 34c29 22 43 52 43 91v0
c0 33 -12 61 -36 83c-25 21 -65 41 -120 60v0l-45 16c-51 18 -92 42 -124 71s-48 70 -48 122v0c0 34 9 66 28 95s45 52 78 69s71 26 112 26v0c41 0 77 -8 108 -23s55 -34 74 -56c18 -22 31 -44 38 -65v0l-80 -34c-7 25 -22 47 -45 67c-24 20 -55 30 -94 30v0
c-37 0 -68 -10 -94 -31s-39 -47 -39 -78v0c0 -28 11 -51 33 -68c22 -18 55 -35 100 -50v0l47 -16c61 -22 108 -49 142 -82s51 -78 51 -135v0z" />
    <glyph glyph-name="scedilla" unicode="&#x15f;" horiz-adv-x="473" 
d="M443 140c0 -44 -17 -80 -51 -108s-77 -44 -130 -47v0l-15 -34c12 2 20 3 23 3v0c25 0 47 -9 65 -27c17 -18 26 -41 26 -68v0c0 -27 -10 -49 -29 -68s-43 -28 -72 -28v0c-21 0 -40 6 -57 19s-30 29 -37 48v0l50 22c3 -10 9 -18 17 -25c7 -7 16 -11 27 -11v0
c13 0 24 4 32 13c8 8 12 18 12 30v0c0 13 -4 23 -12 32s-19 13 -32 13v0c-14 0 -26 -6 -35 -17v0l-44 20l30 79c-47 4 -86 19 -117 44c-32 25 -55 55 -68 91v0l76 34c13 -31 32 -54 57 -71s52 -25 82 -25v0c32 0 59 7 82 20s34 31 34 55v0c0 21 -9 39 -27 52s-46 24 -85 33
v0l-62 16c-41 10 -74 27 -100 51s-39 55 -39 93v0c0 29 9 55 27 78c17 22 41 39 70 51s61 18 95 18v0c45 0 85 -10 120 -29s59 -46 74 -81v0l-74 -34c-23 45 -63 68 -121 68v0c-28 0 -52 -6 -73 -19s-32 -30 -32 -50v0c0 -19 7 -34 22 -45c15 -12 37 -22 66 -29v0l74 -19
c50 -13 88 -31 113 -56s38 -56 38 -92v0z" />
    <glyph glyph-name="Scaron" unicode="&#x160;" 
d="M280 -16c-56 0 -107 17 -154 51s-79 82 -96 143v0l81 33c11 -43 32 -78 63 -105s67 -41 108 -41v0c41 0 76 11 105 34c29 22 43 52 43 91v0c0 33 -12 61 -36 83c-25 21 -65 41 -120 60v0l-45 16c-51 18 -92 42 -124 71s-48 70 -48 122v0c0 34 9 66 28 95s45 52 78 69
s71 26 112 26v0c41 0 77 -8 108 -23s55 -34 74 -56c18 -22 31 -44 38 -65v0l-80 -34c-7 25 -22 47 -45 67c-24 20 -55 30 -94 30v0c-37 0 -68 -10 -94 -31s-39 -47 -39 -78v0c0 -28 11 -51 33 -68c22 -18 55 -35 100 -50v0l47 -16c61 -22 108 -49 142 -82s51 -78 51 -135v0
c0 -46 -12 -85 -35 -116c-24 -31 -54 -54 -90 -69s-73 -22 -111 -22v0zM238 779l-102 116v5h82l53 -63h8l54 63h82v-5l-102 -116h-75z" />
    <glyph glyph-name="scaron" unicode="&#x161;" horiz-adv-x="473" 
d="M241 -16c-55 0 -100 13 -137 39c-37 25 -63 58 -78 98v0l76 34c13 -31 32 -54 57 -71s52 -25 82 -25v0c32 0 59 7 82 20s34 31 34 55v0c0 21 -9 39 -27 52s-46 24 -85 33v0l-62 16c-41 10 -74 27 -100 51s-39 55 -39 93v0c0 29 9 55 27 78c17 22 41 39 70 51s61 18 95 18
v0c45 0 85 -10 120 -29s59 -46 74 -81v0l-74 -34c-23 45 -63 68 -121 68v0c-28 0 -52 -6 -73 -19s-32 -30 -32 -50v0c0 -19 7 -34 22 -45c15 -12 37 -22 66 -29v0l74 -19c50 -13 88 -31 113 -56s38 -56 38 -92v0c0 -31 -9 -59 -27 -82c-18 -24 -42 -42 -73 -55
s-65 -19 -102 -19v0zM199 614l-102 117v5h82l53 -64h8l54 64h82v-5l-102 -117h-75z" />
    <glyph glyph-name="uni0162" unicode="&#x162;" horiz-adv-x="539" 
d="M285 -237c-21 0 -40 6 -57 19s-30 29 -37 48v0l49 22c4 -10 10 -18 18 -25c7 -7 16 -11 27 -11v0c13 0 23 4 32 13c8 8 12 18 12 30v0c0 12 -4 23 -12 32c-9 9 -19 13 -32 13v0c-14 0 -26 -6 -35 -17v0l-44 20l34 93h-13v635h-201v81h486v-81h-200v-635h-18l-22 -49
c10 2 18 3 23 3v0c25 0 46 -9 64 -27c17 -18 26 -41 26 -68v0c0 -27 -9 -49 -28 -68s-43 -28 -72 -28v0z" />
    <glyph glyph-name="uni0163" unicode="&#x163;" horiz-adv-x="366" 
d="M259 -8c-7 0 -15 1 -26 2v0l-21 -43c12 2 20 3 23 3v0c25 0 46 -9 64 -27c17 -18 26 -41 26 -68v0c0 -27 -9 -49 -28 -68s-43 -28 -72 -28v0c-21 0 -40 6 -57 19s-30 29 -37 48v0l50 22c3 -10 9 -19 17 -26c7 -7 16 -11 27 -11v0c13 0 24 4 32 13s12 19 12 31v0
c0 13 -4 23 -12 32s-19 13 -32 13v0c-14 0 -26 -6 -35 -17v0l-44 20l42 101c-11 5 -22 12 -31 21v0c-13 13 -23 27 -30 44s-10 37 -10 61v0v299h-89v77h89v144h85v-144h124v-77h-124v-278c0 -28 5 -49 16 -62v0c13 -15 31 -22 55 -22v0c19 0 38 6 56 17v0v-83
c-10 -5 -20 -8 -30 -10c-11 -2 -24 -3 -40 -3v0z" />
    <glyph glyph-name="Tcaron" unicode="&#x164;" horiz-adv-x="539" 
d="M227 0v635h-201v81h486v-81h-200v-635h-85zM232 779l-102 116v5h82l53 -63h8l54 63h82v-5l-102 -116h-75z" />
    <glyph glyph-name="tcaron" unicode="&#x165;" horiz-adv-x="359" 
d="M267 574v142h85l-24 -142h-61zM259 -8c-21 0 -40 3 -57 10c-18 7 -33 16 -45 27v0c-13 13 -23 27 -30 44s-10 37 -10 61v0v299h-89v77h89v144h85v-144h124v-77h-124v-278c0 -28 5 -49 16 -62v0c13 -15 31 -22 55 -22v0c19 0 38 6 56 17v0v-83c-10 -5 -20 -8 -30 -10
c-11 -2 -24 -3 -40 -3v0z" />
    <glyph glyph-name="Tbar" unicode="&#x166;" horiz-adv-x="539" 
d="M512 635h-200v-228h130v-66h-130v-341h-85v341h-130v66h130v228h-201v81h486v-81z" />
    <glyph glyph-name="tbar" unicode="&#x167;" horiz-adv-x="366" 
d="M273 71c19 0 38 6 56 17v0v-83c-10 -5 -20 -8 -30 -10c-11 -2 -24 -3 -40 -3v0c-21 0 -40 3 -57 10c-18 7 -33 16 -45 27v0c-13 13 -23 27 -30 44s-10 37 -10 61v0v100h-89v77h89v122h-89v77h89v144h85v-144h124v-77h-124v-122h124v-77h-124v-79c0 -28 5 -49 16 -62v0
c13 -15 31 -22 55 -22v0z" />
    <glyph glyph-name="Utilde" unicode="&#x168;" horiz-adv-x="652" 
d="M330 -16c-51 0 -97 12 -137 36c-40 23 -71 56 -93 99c-22 42 -33 91 -33 146v0v451h85v-455c0 -58 15 -105 46 -141c31 -37 75 -55 132 -55v0c57 0 102 18 133 55c31 36 46 83 46 141v0v455h84v-451c0 -55 -10 -104 -31 -147s-52 -76 -91 -99c-40 -23 -87 -35 -141 -35v0
zM388 780c-12 0 -24 3 -35 8c-12 5 -26 12 -43 21v0c-19 12 -33 18 -40 18v0c-22 0 -34 -12 -36 -37v0h-70c0 25 5 47 16 64s24 29 41 38c17 8 33 12 50 12v0c21 0 47 -10 80 -30v0c20 -11 33 -17 39 -17v0c22 0 34 12 36 37v0h70c0 -37 -11 -65 -33 -84
c-23 -20 -48 -30 -75 -30v0z" />
    <glyph glyph-name="utilde" unicode="&#x169;" 
d="M248 -16c-61 0 -108 18 -140 54c-33 36 -49 86 -49 151v0v321h85v-308c0 -49 11 -84 33 -107s52 -34 89 -34v0c29 0 54 8 77 23c22 15 39 35 52 60c12 25 18 51 18 78v0v288h85v-510h-81v74h-4c-14 -25 -36 -47 -67 -64s-63 -26 -98 -26v0zM336 616c-12 0 -24 3 -35 8
c-12 5 -26 12 -43 21v0c-19 12 -33 18 -40 18v0c-22 0 -34 -12 -36 -37v0h-70c0 37 11 65 33 84s47 29 74 29v0c21 0 47 -10 80 -30v0c20 -11 33 -17 39 -17v0c22 0 34 12 36 37v0h70c0 -37 -11 -65 -33 -84s-47 -29 -75 -29v0z" />
    <glyph glyph-name="Umacron" unicode="&#x16a;" horiz-adv-x="652" 
d="M330 -16c-51 0 -97 12 -137 36c-40 23 -71 56 -93 99c-22 42 -33 91 -33 146v0v451h85v-455c0 -58 15 -105 46 -141c31 -37 75 -55 132 -55v0c57 0 102 18 133 55c31 36 46 83 46 141v0v455h84v-451c0 -55 -10 -104 -31 -147s-52 -76 -91 -99c-40 -23 -87 -35 -141 -35v0
zM192 810v66h277v-66h-277z" />
    <glyph glyph-name="umacron" unicode="&#x16b;" 
d="M248 -16c-61 0 -108 18 -140 54c-33 36 -49 86 -49 151v0v321h85v-308c0 -49 11 -84 33 -107s52 -34 89 -34v0c29 0 54 8 77 23c22 15 39 35 52 60c12 25 18 51 18 78v0v288h85v-510h-81v74h-4c-14 -25 -36 -47 -67 -64s-63 -26 -98 -26v0zM140 645v67h277v-67h-277z" />
    <glyph glyph-name="Ubreve" unicode="&#x16c;" horiz-adv-x="652" 
d="M330 -16c-51 0 -97 12 -137 36c-40 23 -71 56 -93 99c-22 42 -33 91 -33 146v0v451h85v-455c0 -58 15 -105 46 -141c31 -37 75 -55 132 -55v0c57 0 102 18 133 55c31 36 46 83 46 141v0v455h84v-451c0 -55 -10 -104 -31 -147s-52 -76 -91 -99c-40 -23 -87 -35 -141 -35v0
zM331 772c-22 0 -43 6 -62 17c-20 11 -36 26 -48 45s-18 39 -18 62v0h69c0 -17 5 -31 16 -42c11 -12 25 -18 43 -18v0c17 0 30 6 41 18c11 11 16 25 16 42v0h68c0 -23 -6 -43 -17 -62c-12 -19 -28 -34 -47 -45s-40 -17 -61 -17v0z" />
    <glyph glyph-name="ubreve" unicode="&#x16d;" 
d="M248 -16c-61 0 -108 18 -140 54c-33 36 -49 86 -49 151v0v321h85v-308c0 -49 11 -84 33 -107s52 -34 89 -34v0c29 0 54 8 77 23c22 15 39 35 52 60c12 25 18 51 18 78v0v288h85v-510h-81v74h-4c-14 -25 -36 -47 -67 -64s-63 -26 -98 -26v0zM279 607c-22 0 -43 6 -62 17
c-20 11 -36 26 -48 45s-18 40 -18 63v0h69c0 -17 5 -31 16 -43s25 -18 43 -18v0c17 0 30 6 41 18s16 26 16 43v0h68c0 -23 -6 -44 -17 -63c-12 -19 -28 -34 -47 -45s-40 -17 -61 -17v0z" />
    <glyph glyph-name="Uring" unicode="&#x16e;" horiz-adv-x="652" 
d="M330 -16c-51 0 -97 12 -137 36c-40 23 -71 56 -93 99c-22 42 -33 91 -33 146v0v451h85v-455c0 -58 15 -105 46 -141c31 -37 75 -55 132 -55v0c57 0 102 18 133 55c31 36 46 83 46 141v0v455h84v-451c0 -55 -10 -104 -31 -147s-52 -76 -91 -99c-40 -23 -87 -35 -141 -35v0
zM330 753c-29 0 -53 10 -73 30s-30 44 -30 73v0c0 29 10 54 30 74c19 19 44 29 73 29v0c29 0 53 -10 74 -30c20 -20 30 -44 30 -73v0c0 -29 -10 -53 -30 -73c-21 -20 -45 -30 -74 -30v0zM330 808c13 0 24 5 33 14s14 21 14 34v0c0 13 -5 25 -14 34s-20 13 -33 13v0
c-13 0 -24 -5 -33 -14s-14 -20 -14 -33v0c0 -13 5 -24 14 -33c9 -10 20 -15 33 -15v0z" />
    <glyph glyph-name="uring" unicode="&#x16f;" 
d="M248 -16c-61 0 -108 18 -140 54c-33 36 -49 86 -49 151v0v321h85v-308c0 -49 11 -84 33 -107s52 -34 89 -34v0c29 0 54 8 77 23c22 15 39 35 52 60c12 25 18 51 18 78v0v288h85v-510h-81v74h-4c-14 -25 -36 -47 -67 -64s-63 -26 -98 -26v0zM278 588c-29 0 -53 10 -73 31
c-20 20 -30 44 -30 73v0c0 29 10 53 30 73s44 30 73 30v0c29 0 53 -10 74 -30c20 -20 30 -44 30 -73v0c0 -29 -10 -53 -30 -73c-21 -21 -45 -31 -74 -31v0zM278 644c13 0 25 5 34 14s13 21 13 34v0c0 13 -5 25 -14 34s-20 13 -33 13v0c-13 0 -24 -5 -33 -14s-14 -20 -14 -33
v0c0 -13 5 -25 14 -34s20 -14 33 -14v0z" />
    <glyph glyph-name="Uhungarumlaut" unicode="&#x170;" horiz-adv-x="652" 
d="M330 -16c-51 0 -97 12 -137 36c-40 23 -71 56 -93 99c-22 42 -33 91 -33 146v0v451h85v-455c0 -58 15 -105 46 -141c31 -37 75 -55 132 -55v0c57 0 102 18 133 55c31 36 46 83 46 141v0v455h84v-451c0 -55 -10 -104 -31 -147s-52 -76 -91 -99c-40 -23 -87 -35 -141 -35v0
zM230 773l52 127h93l-71 -127h-74zM357 773l52 127h93l-71 -127h-74z" />
    <glyph glyph-name="uhungarumlaut" unicode="&#x171;" 
d="M248 -16c-61 0 -108 18 -140 54c-33 36 -49 86 -49 151v0v321h85v-308c0 -49 11 -84 33 -107s52 -34 89 -34v0c29 0 54 8 77 23c22 15 39 35 52 60c12 25 18 51 18 78v0v288h85v-510h-81v74h-4c-14 -25 -36 -47 -67 -64s-63 -26 -98 -26v0zM162 609l52 127h93l-71 -127
h-74zM321 609l52 127h93l-71 -127h-74z" />
    <glyph glyph-name="Uogonek" unicode="&#x172;" horiz-adv-x="661" 
d="M420 -224c-37 0 -66 11 -87 33c-22 21 -33 48 -33 79v0c0 20 5 38 16 55c10 17 22 31 37 42v0c-5 -1 -12 -1 -23 -1v0c-51 0 -97 12 -137 36c-40 23 -71 56 -93 99c-22 42 -33 91 -33 146v0v451h85v-455c0 -58 15 -105 46 -141c31 -37 75 -55 132 -55v0
c57 0 102 18 133 55c31 36 46 83 46 141v0v455h84v-451c0 -52 -9 -98 -28 -139s-45 -73 -78 -96v0c-74 -50 -111 -93 -111 -130v0c0 -15 5 -28 14 -38c9 -11 22 -16 37 -16v0c13 0 27 3 40 10v0v-72c-12 -5 -28 -8 -47 -8v0z" />
    <glyph glyph-name="uogonek" unicode="&#x173;" 
d="M468 -224c-36 0 -65 11 -86 33c-22 21 -33 48 -33 79v0c0 25 7 47 20 66s29 34 48 46v0v74h-4c-14 -25 -36 -47 -67 -64s-63 -26 -98 -26v0c-61 0 -108 18 -140 54c-33 36 -49 86 -49 151v0v321h85v-308c0 -49 11 -84 33 -107s52 -34 89 -34v0c29 0 54 8 77 23
c22 15 39 35 52 60c12 25 18 51 18 78v0v288h85v-510c-24 -19 -42 -35 -54 -50c-13 -15 -19 -31 -19 -50v0c0 -15 5 -28 14 -38c9 -11 22 -16 37 -16v0c13 0 27 3 40 10v0v-72c-12 -5 -28 -8 -48 -8v0z" />
    <glyph glyph-name="Wcircumflex" unicode="&#x174;" horiz-adv-x="944" 
d="M211 0l-194 716h94l130 -526l12 -49h4l15 49l160 526h88l153 -526l15 -49h4l141 575h94l-193 -716h-88l-152 518l-16 56h-4l-17 -56l-158 -518h-88zM337 779v5l102 116h75l102 -116v-5h-82l-54 63h-8l-53 -63h-82z" />
    <glyph glyph-name="wcircumflex" unicode="&#x175;" horiz-adv-x="777" 
d="M171 0l-164 510h87l122 -403h1l128 403h88l129 -402h1l121 402h86l-165 -510h-86l-132 407l-131 -407h-85zM250 614v5l102 117h75l102 -117v-5h-82l-54 64h-8l-53 -64h-82z" />
    <glyph glyph-name="Ycircumflex" unicode="&#x176;" horiz-adv-x="595" 
d="M257 0v331l-242 385h99l183 -300h4l180 300h99l-238 -385v-331h-85zM158 779v5l102 116h75l102 -116v-5h-82l-54 63h-8l-53 -63h-82z" />
    <glyph glyph-name="ycircumflex" unicode="&#x177;" horiz-adv-x="516" 
d="M105 -216l114 248l-211 478h92l160 -379h2l154 379h92l-315 -726h-88zM119 614v5l102 117h75l102 -117v-5h-82l-54 64h-8l-53 -64h-82z" />
    <glyph glyph-name="Ydieresis" unicode="&#x178;" horiz-adv-x="595" 
d="M257 0v331l-242 385h99l183 -300h4l180 300h99l-238 -385v-331h-85zM215 789c-15 0 -27 6 -38 17s-16 23 -16 37v0c0 15 5 28 16 39c11 10 23 15 38 15v0c15 0 28 -5 38 -15c10 -11 15 -24 15 -39v0c0 -15 -5 -27 -15 -38s-23 -16 -38 -16v0zM379 789c-14 0 -26 6 -37 17
s-17 23 -17 37v0c0 15 5 28 16 39c11 10 23 15 38 15v0c15 0 28 -5 39 -15c10 -11 15 -24 15 -39v0c0 -15 -5 -27 -15 -38c-11 -11 -24 -16 -39 -16v0z" />
    <glyph glyph-name="Zacute" unicode="&#x179;" horiz-adv-x="572" 
d="M38 0v89l386 546h-370v81h468v-89l-386 -546h390v-81h-488zM251 773l52 127h93l-71 -127h-74z" />
    <glyph glyph-name="zacute" unicode="&#x17a;" horiz-adv-x="487" 
d="M37 0v73l301 360h-292v77h396v-73l-302 -360h310v-77h-413zM207 609l52 127h93l-71 -127h-74z" />
    <glyph glyph-name="Zdotaccent" unicode="&#x17b;" horiz-adv-x="572" 
d="M38 0v89l386 546h-370v81h468v-89l-386 -546h390v-81h-488zM288 807c-13 0 -24 5 -34 15s-15 21 -15 34v0c0 13 5 25 15 35c10 9 21 14 34 14v0c15 0 27 -5 36 -14s14 -21 14 -35v0c0 -13 -5 -25 -14 -34c-10 -10 -22 -15 -36 -15v0z" />
    <glyph glyph-name="zdotaccent" unicode="&#x17c;" horiz-adv-x="487" 
d="M37 0v73l301 360h-292v77h396v-73l-302 -360h310v-77h-413zM244 625c-15 0 -27 5 -38 16s-16 23 -16 38v0c0 15 5 28 16 38s23 15 38 15v0c15 0 28 -5 38 -15s15 -23 15 -38v0c0 -15 -5 -27 -15 -38s-23 -16 -38 -16v0z" />
    <glyph glyph-name="Zcaron" unicode="&#x17d;" horiz-adv-x="572" 
d="M38 0v89l386 546h-370v81h468v-89l-386 -546h390v-81h-488zM251 779l-102 116v5h82l53 -63h8l54 63h82v-5l-102 -116h-75z" />
    <glyph glyph-name="zcaron" unicode="&#x17e;" horiz-adv-x="487" 
d="M37 0v73l301 360h-292v77h396v-73l-302 -360h310v-77h-413zM207 614l-102 117v5h82l53 -64h8l54 64h82v-5l-102 -117h-75z" />
    <glyph glyph-name="uni0180" unicode="&#x180;" horiz-adv-x="20" 
 />
    <glyph glyph-name="florin" unicode="&#x192;" horiz-adv-x="575" 
d="M481 643c-21 0 -39 -6 -54 -17s-24 -28 -29 -49v0l-35 -174h130v-78h-145l-82 -412c-8 -39 -26 -71 -53 -96s-61 -37 -101 -37v0c-21 0 -41 3 -60 10v0v82c22 -10 42 -15 61 -15v0c19 0 35 6 48 19c13 12 21 29 26 50v0l79 399h-106v78h121l37 185c7 39 26 71 56 96
c29 24 65 36 107 36v0c15 0 26 -1 33 -2s15 -4 25 -7v0v-83c-17 10 -36 15 -58 15v0z" />
    <glyph glyph-name="Aringacute" unicode="&#x1fa;" horiz-adv-x="669" 
d="M398 675l256 -675h-93l-72 197h-309l-72 -197h-93l256 674c-12 10 -22 22 -29 37c-7 14 -11 29 -11 45v0c0 23 7 44 20 62c13 17 31 29 52 36v0l33 78h85l-43 -82c18 -9 33 -21 44 -38s16 -35 16 -56v0c0 -16 -3 -31 -10 -45s-17 -26 -30 -36v0zM334 712c12 0 22 4 31 13
s13 19 13 31v0c0 12 -4 22 -13 31s-19 13 -31 13v0c-11 0 -21 -4 -30 -13s-13 -19 -13 -31v0c0 -12 4 -22 13 -31s19 -13 30 -13v0zM209 277h251l-95 258l-29 77h-4l-28 -77z" />
    <glyph glyph-name="aringacute" unicode="&#x1fb;" horiz-adv-x="531" 
d="M218 814l43 105h93l-59 -105h-77zM258 588c-29 0 -53 10 -73 31c-20 20 -30 44 -30 73v0c0 29 10 53 30 73s44 30 73 30v0c29 0 53 -10 74 -30c20 -20 30 -44 30 -73v0c0 -29 -10 -53 -30 -73c-21 -21 -45 -31 -74 -31v0zM258 644c13 0 25 5 34 14s13 21 13 34v0
c0 13 -4 25 -13 34s-21 13 -34 13v0c-13 0 -24 -5 -33 -14s-14 -20 -14 -33v0c0 -13 5 -25 14 -34s20 -14 33 -14v0zM226 -16c-37 0 -71 7 -100 22s-52 35 -68 61c-16 25 -24 54 -24 87v0c0 54 20 96 61 127c41 30 92 45 154 45v0c31 0 59 -3 86 -10c26 -7 46 -14 60 -23v0
v31c0 38 -13 69 -40 92s-60 34 -101 34v0c-29 0 -55 -6 -79 -18c-24 -13 -43 -30 -57 -52v0l-64 48c20 31 48 55 83 72s73 26 116 26v0c69 0 124 -18 164 -54c39 -37 59 -86 59 -149v0v-323h-81v73h-4c-15 -25 -37 -46 -66 -63s-62 -26 -99 -26v0zM234 59c29 0 55 7 80 22
s44 34 59 59s22 52 22 81v0c-16 11 -36 19 -59 26s-48 10 -74 10v0c-47 0 -82 -10 -105 -29c-24 -19 -36 -44 -36 -75v0c0 -28 11 -51 32 -68s48 -26 81 -26v0z" />
    <glyph glyph-name="AEacute" unicode="&#x1fc;" horiz-adv-x="960" 
d="M7 0l432 716h464v-81h-329v-237h297v-80h-297v-237h329v-81h-414v197h-264l-118 -197h-100zM272 277h217v358h-4l-29 -50zM629 773l52 127h93l-71 -127h-74z" />
    <glyph glyph-name="aeacute" unicode="&#x1fd;" horiz-adv-x="919" 
d="M226 -16c-37 0 -71 7 -100 22s-52 35 -68 61c-16 25 -24 54 -24 87v0c0 54 20 96 61 127c41 30 92 45 154 45v0c31 0 59 -3 86 -10c26 -7 46 -14 60 -23v0v31c0 38 -13 69 -38 92s-58 34 -98 34v0c-27 0 -51 -6 -72 -19s-37 -31 -49 -54v0l-72 36c15 34 40 61 75 82
c34 21 73 31 116 31v0c46 0 85 -9 118 -26c33 -18 58 -43 75 -75v0c21 31 47 56 80 74c32 17 68 26 109 26v0c50 0 93 -11 130 -33s65 -53 85 -92c19 -39 29 -84 29 -135v0c0 -8 -1 -17 -2 -26v0h-404c2 -39 11 -71 28 -98s38 -47 64 -60c25 -13 52 -20 80 -20v0
c67 0 117 31 151 92v0l72 -35c-21 -41 -51 -73 -89 -97c-38 -25 -84 -37 -137 -37v0c-49 0 -92 12 -129 35s-66 54 -85 93v0c-48 -85 -117 -128 -206 -128v0zM482 309h311c-1 21 -7 43 -18 64s-27 39 -50 54c-23 14 -51 21 -86 21v0c-41 0 -75 -13 -102 -38
c-28 -25 -46 -59 -55 -101v0zM234 59c29 0 55 7 80 22s44 34 59 59s22 52 22 81v0c-15 10 -34 19 -57 26c-24 7 -49 10 -76 10v0c-47 0 -82 -10 -105 -29c-24 -19 -36 -44 -36 -75v0c0 -28 11 -51 32 -68s48 -26 81 -26v0zM413 609l52 127h93l-71 -127h-74z" />
    <glyph glyph-name="Oslashacute" unicode="&#x1fe;" horiz-adv-x="825" 
d="M639 655c44 -35 79 -78 104 -129c25 -52 37 -108 37 -168v0c0 -69 -16 -131 -48 -188s-76 -103 -132 -136c-57 -33 -119 -50 -188 -50v0c-61 0 -116 13 -167 39v0l-37 -59l-59 37l37 59c-44 35 -78 78 -103 130s-38 108 -38 168v0c0 68 16 131 48 188s76 103 132 136
s118 50 187 50v0c61 0 117 -13 168 -40v0l38 61l58 -38zM131 358c0 -47 9 -89 27 -128c17 -39 41 -72 72 -99v0l307 492c-39 19 -81 28 -125 28v0c-51 0 -98 -12 -141 -37s-77 -60 -102 -105s-38 -95 -38 -151v0zM412 65c51 0 99 13 142 38s77 59 102 104
c25 44 37 94 37 151v0c0 47 -9 89 -26 128s-41 71 -72 98v0l-307 -491c39 -19 81 -28 124 -28v0zM375 773l52 127h93l-71 -127h-74z" />
    <glyph glyph-name="oslashacute" unicode="&#x1ff;" horiz-adv-x="596" 
d="M467 466c29 -25 52 -56 69 -93c16 -37 24 -76 24 -118v0c0 -50 -11 -96 -33 -137c-23 -41 -54 -74 -94 -98s-85 -36 -135 -36v0c-41 0 -80 8 -115 25v0l-26 -41l-55 31l28 44c-30 25 -53 56 -69 93c-17 36 -25 76 -25 119v0c0 50 11 96 34 137c22 41 53 74 93 98
s85 36 135 36v0c43 0 81 -9 116 -26v0l27 43l54 -32zM120 255c0 -29 5 -56 14 -80s22 -45 39 -62v0l199 319c-24 11 -49 17 -74 17v0c-31 0 -61 -8 -88 -23c-27 -16 -49 -39 -65 -68c-17 -29 -25 -64 -25 -103v0zM298 61c31 0 61 8 88 24c27 15 48 38 65 67
c16 29 24 64 24 103v0c0 57 -17 104 -52 141v0l-198 -319c22 -11 46 -16 73 -16v0zM261 609l52 127h93l-71 -127h-74z" />
    <glyph glyph-name="uni0218" unicode="&#x218;" 
d="M280 -16c-56 0 -107 17 -154 51s-79 82 -96 143v0l81 33c11 -43 32 -78 63 -105s67 -41 108 -41v0c41 0 76 11 105 34c29 22 43 52 43 91v0c0 33 -12 61 -36 83c-25 21 -65 41 -120 60v0l-45 16c-51 18 -92 42 -124 71s-48 70 -48 122v0c0 34 9 66 28 95s45 52 78 69
s71 26 112 26v0c41 0 77 -8 108 -23s55 -34 74 -56c18 -22 31 -44 38 -65v0l-80 -34c-7 25 -22 47 -45 67c-24 20 -55 30 -94 30v0c-37 0 -68 -10 -94 -31s-39 -47 -39 -78v0c0 -28 11 -51 33 -68c22 -18 55 -35 100 -50v0l47 -16c61 -22 108 -49 142 -82s51 -78 51 -135v0
c0 -46 -12 -85 -35 -116c-24 -31 -54 -54 -90 -69s-73 -22 -111 -22v0zM265 -238l-38 26l40 57c-12 3 -22 9 -29 19c-8 9 -12 20 -12 33v0c0 14 5 27 16 38s24 17 40 17v0c17 0 30 -5 41 -16c10 -11 15 -25 15 -42v0c0 -13 -4 -27 -12 -43v0z" />
    <glyph glyph-name="uni0219" unicode="&#x219;" horiz-adv-x="473" 
d="M241 -16c-55 0 -100 13 -137 39c-37 25 -63 58 -78 98v0l76 34c13 -31 32 -54 57 -71s52 -25 82 -25v0c32 0 59 7 82 20s34 31 34 55v0c0 21 -9 39 -27 52s-46 24 -85 33v0l-62 16c-41 10 -74 27 -100 51s-39 55 -39 93v0c0 29 9 55 27 78c17 22 41 39 70 51s61 18 95 18
v0c45 0 85 -10 120 -29s59 -46 74 -81v0l-74 -34c-23 45 -63 68 -121 68v0c-28 0 -52 -6 -73 -19s-32 -30 -32 -50v0c0 -19 7 -34 22 -45c15 -12 37 -22 66 -29v0l74 -19c50 -13 88 -31 113 -56s38 -56 38 -92v0c0 -31 -9 -59 -27 -82c-18 -24 -42 -42 -73 -55
s-65 -19 -102 -19v0zM225 -238l-38 26l40 57c-12 3 -22 9 -29 19c-8 9 -12 20 -12 33v0c0 14 5 27 16 38s24 17 40 17v0c17 0 30 -5 41 -16c10 -11 15 -25 15 -42v0c0 -13 -4 -27 -12 -43v0z" />
    <glyph glyph-name="uni021A" unicode="&#x21a;" horiz-adv-x="539" 
d="M227 0v635h-201v81h486v-81h-200v-635h-85zM252 -238l-38 26l40 57c-12 3 -22 9 -29 19c-8 9 -12 20 -12 33v0c0 14 5 27 16 38s24 17 40 17v0c17 0 30 -5 41 -16c10 -11 15 -25 15 -42v0c0 -13 -4 -27 -12 -43v0z" />
    <glyph glyph-name="uni021B" unicode="&#x21b;" horiz-adv-x="366" 
d="M259 -8c-21 0 -40 3 -57 10c-18 7 -33 16 -45 27v0c-13 13 -23 27 -30 44s-10 37 -10 61v0v299h-89v77h89v144h85v-144h124v-77h-124v-278c0 -28 5 -49 16 -62v0c13 -15 31 -22 55 -22v0c19 0 38 6 56 17v0v-83c-10 -5 -20 -8 -30 -10c-11 -2 -24 -3 -40 -3v0zM217 -238
l-38 26l40 57c-12 3 -22 9 -29 19c-8 9 -12 20 -12 33v0c0 14 5 27 16 38s24 17 40 17v0c17 0 30 -5 41 -16c10 -11 15 -25 15 -42v0c0 -13 -4 -27 -12 -43v0z" />
    <glyph glyph-name="uni0237" unicode="&#x237;" horiz-adv-x="226" 
d="M15 -226c-16 0 -31 2 -45 7v0v81c5 -3 12 -6 20 -8s15 -3 22 -3v0c21 0 36 7 45 20s14 32 14 57v0v582h84v-582c0 -51 -12 -90 -37 -115c-25 -26 -59 -39 -103 -39v0z" />
  </font>
</defs>
</svg>
